<svg width="1248" height="117" viewBox="0 0 1248 117" fill="none" xmlns="http://www.w3.org/2000/svg">
<rect y="0.589966" width="1248" height="116" rx="22" fill="url(#paint0_linear_0_1)" fill-opacity="0.56"/>
<path d="M97.716 49.0792C98.6633 49.0792 99.543 49.2049 100.355 49.4562C101.186 49.7075 101.911 50.0845 102.53 50.5872C103.149 51.0705 103.632 51.6892 103.98 52.4432C104.328 53.1972 104.502 54.0672 104.502 55.0532C104.502 56.3872 104.164 57.5182 103.487 58.4462C102.81 59.3742 101.863 60.0799 100.645 60.5632C99.427 61.0659 97.9963 61.3172 96.353 61.3172C95.193 61.3172 94.1007 61.1819 93.076 60.9112C92.0513 60.6405 91.1427 60.2539 90.35 59.7512C89.5573 59.2485 88.9193 58.6299 88.436 57.8952C87.972 57.1799 87.7207 56.3582 87.682 55.4302H91.278C91.3553 56.0295 91.626 56.5322 92.09 56.9382C92.554 57.3635 93.1437 57.6825 93.859 57.8952C94.5937 58.1079 95.3767 58.2142 96.208 58.2142C96.788 58.2142 97.339 58.1465 97.861 58.0112C98.4023 57.8952 98.8857 57.7115 99.311 57.4602C99.7557 57.2089 100.104 56.8802 100.355 56.4742C100.606 56.0682 100.732 55.5849 100.732 55.0242C100.732 54.4635 100.606 53.9802 100.355 53.5742C100.123 53.1682 99.7943 52.8299 99.369 52.5592C98.963 52.2885 98.4893 52.0952 97.948 51.9792C97.426 51.8439 96.875 51.7762 96.295 51.7762C95.6957 51.7762 95.0867 51.8342 94.468 51.9502C93.8493 52.0469 93.279 52.2305 92.757 52.5012C92.235 52.7719 91.8193 53.1392 91.51 53.6032L88.233 52.9942L89.103 42.0902H102.53V45.3092H92.612L92.032 52.3272L91.626 52.1242C91.8967 51.4669 92.3413 50.9159 92.96 50.4712C93.5787 50.0265 94.3037 49.6882 95.135 49.4562C95.9663 49.2049 96.8267 49.0792 97.716 49.0792ZM107.196 60.9112L106.674 59.9252C106.964 59.4999 107.244 59.0262 107.515 58.5042C107.805 57.9822 107.959 57.4505 107.979 56.9092L106.384 56.5902V53.2552H110.821V55.6332C110.821 57.0059 110.492 58.1079 109.835 58.9392C109.197 59.7899 108.317 60.4472 107.196 60.9112ZM122.094 56.9382C120.277 56.9382 118.672 56.6482 117.28 56.0682C115.908 55.4882 114.835 54.6472 114.061 53.5452C113.288 52.4239 112.901 51.0512 112.901 49.4272C112.901 47.8032 113.288 46.4305 114.061 45.3092C114.835 44.1685 115.908 43.3082 117.28 42.7282C118.672 42.1482 120.277 41.8582 122.094 41.8582C123.912 41.8582 125.497 42.1482 126.85 42.7282C128.223 43.3082 129.296 44.1685 130.069 45.3092C130.843 46.4305 131.229 47.8032 131.229 49.4272C131.229 51.0512 130.843 52.4239 130.069 53.5452C129.296 54.6472 128.223 55.4882 126.85 56.0682C125.497 56.6482 123.912 56.9382 122.094 56.9382ZM122.094 54.0382C123.08 54.0382 123.97 53.8642 124.762 53.5162C125.574 53.1489 126.212 52.6269 126.676 51.9502C127.16 51.2542 127.401 50.4132 127.401 49.4272C127.401 48.4412 127.16 47.6002 126.676 46.9042C126.212 46.1889 125.584 45.6475 124.791 45.2802C123.999 44.9129 123.1 44.7292 122.094 44.7292C121.108 44.7292 120.209 44.9129 119.397 45.2802C118.585 45.6475 117.938 46.1792 117.454 46.8752C116.971 47.5712 116.729 48.4219 116.729 49.4272C116.729 50.4132 116.961 51.2542 117.425 51.9502C117.909 52.6269 118.556 53.1489 119.368 53.5162C120.18 53.8642 121.089 54.0382 122.094 54.0382ZM142.905 56.9382C141.087 56.9382 139.483 56.6482 138.091 56.0682C136.718 55.4882 135.645 54.6472 134.872 53.5452C134.098 52.4239 133.712 51.0512 133.712 49.4272C133.712 47.8032 134.098 46.4305 134.872 45.3092C135.645 44.1685 136.718 43.3082 138.091 42.7282C139.483 42.1482 141.087 41.8582 142.905 41.8582C144.722 41.8582 146.307 42.1482 147.661 42.7282C149.033 43.3082 150.106 44.1685 150.88 45.3092C151.653 46.4305 152.04 47.8032 152.04 49.4272C152.04 51.0512 151.653 52.4239 150.88 53.5452C150.106 54.6472 149.033 55.4882 147.661 56.0682C146.307 56.6482 144.722 56.9382 142.905 56.9382ZM142.905 54.0382C143.891 54.0382 144.78 53.8642 145.573 53.5162C146.385 53.1489 147.023 52.6269 147.487 51.9502C147.97 51.2542 148.212 50.4132 148.212 49.4272C148.212 48.4412 147.97 47.6002 147.487 46.9042C147.023 46.1889 146.394 45.6475 145.602 45.2802C144.809 44.9129 143.91 44.7292 142.905 44.7292C141.919 44.7292 141.02 44.9129 140.208 45.2802C139.396 45.6475 138.748 46.1792 138.265 46.8752C137.781 47.5712 137.54 48.4219 137.54 49.4272C137.54 50.4132 137.772 51.2542 138.236 51.9502C138.719 52.6269 139.367 53.1489 140.179 53.5162C140.991 53.8642 141.899 54.0382 142.905 54.0382ZM163.715 56.9382C161.897 56.9382 160.293 56.6482 158.901 56.0682C157.528 55.4882 156.455 54.6472 155.682 53.5452C154.908 52.4239 154.522 51.0512 154.522 49.4272C154.522 47.8032 154.908 46.4305 155.682 45.3092C156.455 44.1685 157.528 43.3082 158.901 42.7282C160.293 42.1482 161.897 41.8582 163.715 41.8582C165.532 41.8582 167.117 42.1482 168.471 42.7282C169.843 43.3082 170.916 44.1685 171.69 45.3092C172.463 46.4305 172.85 47.8032 172.85 49.4272C172.85 51.0512 172.463 52.4239 171.69 53.5452C170.916 54.6472 169.843 55.4882 168.471 56.0682C167.117 56.6482 165.532 56.9382 163.715 56.9382ZM163.715 54.0382C164.701 54.0382 165.59 53.8642 166.383 53.5162C167.195 53.1489 167.833 52.6269 168.297 51.9502C168.78 51.2542 169.022 50.4132 169.022 49.4272C169.022 48.4412 168.78 47.6002 168.297 46.9042C167.833 46.1889 167.204 45.6475 166.412 45.2802C165.619 44.9129 164.72 44.7292 163.715 44.7292C162.729 44.7292 161.83 44.9129 161.018 45.2802C160.206 45.6475 159.558 46.1792 159.075 46.8752C158.591 47.5712 158.35 48.4219 158.35 49.4272C158.35 50.4132 158.582 51.2542 159.046 51.9502C159.529 52.6269 160.177 53.1489 160.989 53.5162C161.801 53.8642 162.709 54.0382 163.715 54.0382ZM175.245 47.3682H188.585V50.1232H175.245V47.3682ZM183.481 43.2792V54.2412H180.349V43.2792H183.481ZM100.976 76.3962C100.868 77.3322 100.538 78.1302 99.986 78.7902C99.434 79.4502 98.684 79.9542 97.736 80.3022C96.788 80.6502 95.66 80.8242 94.352 80.8242C93.26 80.8242 92.258 80.6982 91.346 80.4462C90.446 80.1942 89.666 79.8162 89.006 79.3122C88.358 78.8082 87.854 78.1842 87.494 77.4402C87.134 76.6842 86.954 75.8022 86.954 74.7942C86.954 73.7862 87.134 72.9042 87.494 72.1482C87.854 71.3922 88.358 70.7622 89.006 70.2582C89.666 69.7422 90.446 69.3582 91.346 69.1062C92.258 68.8422 93.26 68.7102 94.352 68.7102C95.66 68.7102 96.788 68.8902 97.736 69.2502C98.696 69.6102 99.452 70.1262 100.004 70.7982C100.556 71.4582 100.88 72.2622 100.976 73.2102H98.6C98.444 72.7062 98.18 72.2742 97.808 71.9142C97.448 71.5422 96.98 71.2602 96.404 71.0682C95.828 70.8762 95.144 70.7802 94.352 70.7802C93.368 70.7802 92.504 70.9362 91.76 71.2482C91.016 71.5482 90.44 71.9982 90.032 72.5982C89.624 73.1862 89.42 73.9182 89.42 74.7942C89.42 75.6582 89.624 76.3842 90.032 76.9722C90.44 77.5602 91.016 78.0102 91.76 78.3222C92.504 78.6222 93.368 78.7722 94.352 78.7722C95.144 78.7722 95.822 78.6762 96.386 78.4842C96.962 78.2922 97.43 78.0162 97.79 77.6562C98.162 77.2962 98.432 76.8762 98.6 76.3962H100.976ZM107.68 80.8062C106.552 80.8062 105.556 80.6262 104.692 80.2662C103.84 79.9062 103.174 79.3842 102.694 78.7002C102.214 78.0042 101.974 77.1522 101.974 76.1442C101.974 75.1362 102.214 74.2842 102.694 73.5882C103.174 72.8802 103.84 72.3462 104.692 71.9862C105.556 71.6262 106.552 71.4462 107.68 71.4462C108.808 71.4462 109.792 71.6262 110.632 71.9862C111.484 72.3462 112.15 72.8802 112.63 73.5882C113.11 74.2842 113.35 75.1362 113.35 76.1442C113.35 77.1522 113.11 78.0042 112.63 78.7002C112.15 79.3842 111.484 79.9062 110.632 80.2662C109.792 80.6262 108.808 80.8062 107.68 80.8062ZM107.68 79.0062C108.304 79.0062 108.862 78.8982 109.354 78.6822C109.858 78.4542 110.254 78.1302 110.542 77.7102C110.83 77.2782 110.974 76.7562 110.974 76.1442C110.974 75.5322 110.83 75.0102 110.542 74.5782C110.254 74.1342 109.864 73.7982 109.372 73.5702C108.88 73.3422 108.316 73.2282 107.68 73.2282C107.056 73.2282 106.492 73.3422 105.988 73.5702C105.484 73.7982 105.082 74.1282 104.782 74.5602C104.494 74.9922 104.35 75.5202 104.35 76.1442C104.35 76.7562 104.494 77.2782 104.782 77.7102C105.07 78.1302 105.466 78.4542 105.97 78.6822C106.474 78.8982 107.044 79.0062 107.68 79.0062ZM114.48 71.6442H116.82V80.5902H114.48V71.6442ZM120.978 71.4462C121.53 71.4462 122.04 71.5182 122.508 71.6622C122.976 71.8062 123.384 72.0282 123.732 72.3282C124.08 72.6282 124.35 73.0122 124.542 73.4802C124.734 73.9362 124.83 74.4822 124.83 75.1182V80.5902H122.49V75.5322C122.49 74.7762 122.304 74.2242 121.932 73.8762C121.572 73.5162 120.978 73.3362 120.15 73.3362C119.526 73.3362 118.962 73.4562 118.458 73.6962C117.954 73.9362 117.546 74.2422 117.234 74.6142C116.922 74.9742 116.742 75.3522 116.694 75.7482L116.676 74.8302C116.736 74.4102 116.874 74.0022 117.09 73.6062C117.306 73.2102 117.594 72.8502 117.954 72.5262C118.326 72.1902 118.764 71.9262 119.268 71.7342C119.772 71.5422 120.342 71.4462 120.978 71.4462ZM128.772 71.4462C129.324 71.4462 129.834 71.5182 130.302 71.6622C130.77 71.8062 131.178 72.0282 131.526 72.3282C131.874 72.6282 132.144 73.0122 132.336 73.4802C132.54 73.9362 132.642 74.4822 132.642 75.1182V80.5902H130.302V75.5322C130.302 74.7762 130.116 74.2242 129.744 73.8762C129.372 73.5162 128.772 73.3362 127.944 73.3362C127.32 73.3362 126.756 73.4562 126.252 73.6962C125.748 73.9362 125.34 74.2422 125.028 74.6142C124.716 74.9742 124.542 75.3522 124.506 75.7482L124.47 74.7762C124.53 74.3802 124.674 73.9842 124.902 73.5882C125.13 73.1922 125.43 72.8322 125.802 72.5082C126.174 72.1842 126.606 71.9262 127.098 71.7342C127.602 71.5422 128.16 71.4462 128.772 71.4462ZM134.165 71.6442H136.505V80.5902H134.165V71.6442ZM140.663 71.4462C141.215 71.4462 141.725 71.5182 142.193 71.6622C142.661 71.8062 143.069 72.0282 143.417 72.3282C143.765 72.6282 144.035 73.0122 144.227 73.4802C144.419 73.9362 144.515 74.4822 144.515 75.1182V80.5902H142.175V75.5322C142.175 74.7762 141.989 74.2242 141.617 73.8762C141.257 73.5162 140.663 73.3362 139.835 73.3362C139.211 73.3362 138.647 73.4562 138.143 73.6962C137.639 73.9362 137.231 74.2422 136.919 74.6142C136.607 74.9742 136.427 75.3522 136.379 75.7482L136.361 74.8302C136.421 74.4102 136.559 74.0022 136.775 73.6062C136.991 73.2102 137.279 72.8502 137.639 72.5262C138.011 72.1902 138.449 71.9262 138.953 71.7342C139.457 71.5422 140.027 71.4462 140.663 71.4462ZM148.457 71.4462C149.009 71.4462 149.519 71.5182 149.987 71.6622C150.455 71.8062 150.863 72.0282 151.211 72.3282C151.559 72.6282 151.829 73.0122 152.021 73.4802C152.225 73.9362 152.327 74.4822 152.327 75.1182V80.5902H149.987V75.5322C149.987 74.7762 149.801 74.2242 149.429 73.8762C149.057 73.5162 148.457 73.3362 147.629 73.3362C147.005 73.3362 146.441 73.4562 145.937 73.6962C145.433 73.9362 145.025 74.2422 144.713 74.6142C144.401 74.9742 144.227 75.3522 144.191 75.7482L144.155 74.7762C144.215 74.3802 144.359 73.9842 144.587 73.5882C144.815 73.1922 145.115 72.8322 145.487 72.5082C145.859 72.1842 146.291 71.9262 146.783 71.7342C147.287 71.5422 147.845 71.4462 148.457 71.4462ZM164.2 80.5902H161.86V71.6442H164.2V80.5902ZM161.986 76.2882L162.004 76.9002C161.98 77.0682 161.92 77.3142 161.824 77.6382C161.728 77.9502 161.578 78.2862 161.374 78.6462C161.182 79.0062 160.93 79.3542 160.618 79.6902C160.306 80.0142 159.922 80.2842 159.466 80.5002C159.01 80.7042 158.47 80.8062 157.846 80.8062C157.354 80.8062 156.868 80.7462 156.388 80.6262C155.92 80.5062 155.494 80.3082 155.11 80.0322C154.726 79.7442 154.42 79.3602 154.192 78.8802C153.964 78.4002 153.85 77.7942 153.85 77.0622V71.6442H156.19V76.6662C156.19 77.2422 156.28 77.6982 156.46 78.0342C156.652 78.3582 156.928 78.5862 157.288 78.7182C157.648 78.8502 158.074 78.9162 158.566 78.9162C159.214 78.9162 159.772 78.7782 160.24 78.5022C160.708 78.2142 161.086 77.8662 161.374 77.4582C161.674 77.0502 161.878 76.6602 161.986 76.2882ZM165.73 71.6442H168.07V80.5902H165.73V71.6442ZM172.228 71.4462C172.78 71.4462 173.29 71.5182 173.758 71.6622C174.226 71.8062 174.634 72.0282 174.982 72.3282C175.33 72.6282 175.6 73.0122 175.792 73.4802C175.984 73.9362 176.08 74.4822 176.08 75.1182V80.5902H173.74V75.5322C173.74 74.7762 173.554 74.2242 173.182 73.8762C172.822 73.5162 172.228 73.3362 171.4 73.3362C170.776 73.3362 170.212 73.4562 169.708 73.6962C169.204 73.9362 168.796 74.2422 168.484 74.6142C168.172 74.9742 167.992 75.3522 167.944 75.7482L167.926 74.8302C167.986 74.4102 168.124 74.0022 168.34 73.6062C168.556 73.2102 168.844 72.8502 169.204 72.5262C169.576 72.1902 170.014 71.9262 170.518 71.7342C171.022 71.5422 171.592 71.4462 172.228 71.4462ZM180.293 67.7202V69.7722H177.575V67.7202H180.293ZM177.755 71.6442H180.095V80.5902H177.755V71.6442ZM181.197 71.6442H188.145V73.4622H181.197V71.6442ZM183.501 69.1962H185.841V80.5902H183.501V69.1962ZM188.222 71.6442H190.706L194.576 80.2302L192.56 80.5902L188.222 71.6442ZM199.166 71.6442L192.974 84.1902H190.544L193.19 79.2582L196.664 71.6442H199.166ZM203.67 71.6442H206.01V80.5902H203.67V71.6442ZM210.168 71.4462C210.72 71.4462 211.23 71.5182 211.698 71.6622C212.166 71.8062 212.574 72.0282 212.922 72.3282C213.27 72.6282 213.54 73.0122 213.732 73.4802C213.924 73.9362 214.02 74.4822 214.02 75.1182V80.5902H211.68V75.5322C211.68 74.7762 211.494 74.2242 211.122 73.8762C210.762 73.5162 210.168 73.3362 209.34 73.3362C208.716 73.3362 208.152 73.4562 207.648 73.6962C207.144 73.9362 206.736 74.2422 206.424 74.6142C206.112 74.9742 205.932 75.3522 205.884 75.7482L205.866 74.8302C205.926 74.4102 206.064 74.0022 206.28 73.6062C206.496 73.2102 206.784 72.8502 207.144 72.5262C207.516 72.1902 207.954 71.9262 208.458 71.7342C208.962 71.5422 209.532 71.4462 210.168 71.4462ZM217.962 71.4462C218.514 71.4462 219.024 71.5182 219.492 71.6622C219.96 71.8062 220.368 72.0282 220.716 72.3282C221.064 72.6282 221.334 73.0122 221.526 73.4802C221.73 73.9362 221.832 74.4822 221.832 75.1182V80.5902H219.492V75.5322C219.492 74.7762 219.306 74.2242 218.934 73.8762C218.562 73.5162 217.962 73.3362 217.134 73.3362C216.51 73.3362 215.946 73.4562 215.442 73.6962C214.938 73.9362 214.53 74.2422 214.218 74.6142C213.906 74.9742 213.732 75.3522 213.696 75.7482L213.66 74.7762C213.72 74.3802 213.864 73.9842 214.092 73.5882C214.32 73.1922 214.62 72.8322 214.992 72.5082C215.364 72.1842 215.796 71.9262 216.288 71.7342C216.792 71.5422 217.35 71.4462 217.962 71.4462ZM231.509 77.6202H233.777C233.681 78.2322 233.423 78.7782 233.003 79.2582C232.595 79.7382 232.037 80.1162 231.329 80.3922C230.621 80.6682 229.757 80.8062 228.737 80.8062C227.597 80.8062 226.589 80.6262 225.713 80.2662C224.837 79.8942 224.153 79.3602 223.661 78.6642C223.169 77.9682 222.923 77.1282 222.923 76.1442C222.923 75.1602 223.163 74.3202 223.643 73.6242C224.123 72.9162 224.789 72.3762 225.641 72.0042C226.505 71.6322 227.513 71.4462 228.665 71.4462C229.841 71.4462 230.819 71.6322 231.599 72.0042C232.379 72.3762 232.955 72.9402 233.327 73.6962C233.711 74.4402 233.873 75.3942 233.813 76.5582H225.281C225.341 77.0142 225.509 77.4282 225.785 77.8002C226.073 78.1722 226.457 78.4662 226.937 78.6822C227.429 78.8982 228.011 79.0062 228.683 79.0062C229.427 79.0062 230.045 78.8802 230.537 78.6282C231.041 78.3642 231.365 78.0282 231.509 77.6202ZM228.557 73.2282C227.693 73.2282 226.991 73.4202 226.451 73.8042C225.911 74.1762 225.563 74.6382 225.407 75.1902H231.491C231.431 74.5902 231.143 74.1162 230.627 73.7682C230.123 73.4082 229.433 73.2282 228.557 73.2282ZM234.954 71.6442H237.294V80.5902H234.954V71.6442ZM241.452 71.4462C242.004 71.4462 242.514 71.5182 242.982 71.6622C243.45 71.8062 243.858 72.0282 244.206 72.3282C244.554 72.6282 244.824 73.0122 245.016 73.4802C245.208 73.9362 245.304 74.4822 245.304 75.1182V80.5902H242.964V75.5322C242.964 74.7762 242.778 74.2242 242.406 73.8762C242.046 73.5162 241.452 73.3362 240.624 73.3362C240 73.3362 239.436 73.4562 238.932 73.6962C238.428 73.9362 238.02 74.2422 237.708 74.6142C237.396 74.9742 237.216 75.3522 237.168 75.7482L237.15 74.8302C237.21 74.4102 237.348 74.0022 237.564 73.6062C237.78 73.2102 238.068 72.8502 238.428 72.5262C238.8 72.1902 239.238 71.9262 239.742 71.7342C240.246 71.5422 240.816 71.4462 241.452 71.4462ZM249.246 71.4462C249.798 71.4462 250.308 71.5182 250.776 71.6622C251.244 71.8062 251.652 72.0282 252 72.3282C252.348 72.6282 252.618 73.0122 252.81 73.4802C253.014 73.9362 253.116 74.4822 253.116 75.1182V80.5902H250.776V75.5322C250.776 74.7762 250.59 74.2242 250.218 73.8762C249.846 73.5162 249.246 73.3362 248.418 73.3362C247.794 73.3362 247.23 73.4562 246.726 73.6962C246.222 73.9362 245.814 74.2422 245.502 74.6142C245.19 74.9742 245.016 75.3522 244.98 75.7482L244.944 74.7762C245.004 74.3802 245.148 73.9842 245.376 73.5882C245.604 73.1922 245.904 72.8322 246.276 72.5082C246.648 72.1842 247.08 71.9262 247.572 71.7342C248.076 71.5422 248.634 71.4462 249.246 71.4462ZM261.533 80.7882C260.741 80.7882 260.063 80.6502 259.499 80.3742C258.935 80.0862 258.479 79.7142 258.131 79.2582C257.783 78.7902 257.525 78.2862 257.357 77.7462C257.189 77.1942 257.105 76.6542 257.105 76.1262C257.105 75.4662 257.183 74.8542 257.339 74.2902C257.507 73.7262 257.765 73.2342 258.113 72.8142C258.461 72.3822 258.917 72.0462 259.481 71.8062C260.045 71.5662 260.729 71.4462 261.533 71.4462C262.457 71.4462 263.273 71.6442 263.981 72.0402C264.701 72.4242 265.265 72.9642 265.673 73.6602C266.093 74.3562 266.303 75.1782 266.303 76.1262C266.303 77.0502 266.093 77.8662 265.673 78.5742C265.253 79.2702 264.683 79.8162 263.963 80.2122C263.243 80.5962 262.433 80.7882 261.533 80.7882ZM260.777 78.9882C261.413 78.9882 261.965 78.8682 262.433 78.6282C262.901 78.3882 263.261 78.0582 263.513 77.6382C263.777 77.2062 263.909 76.7022 263.909 76.1262C263.909 75.2622 263.633 74.5662 263.081 74.0382C262.541 73.5102 261.773 73.2462 260.777 73.2462C260.081 73.2462 259.475 73.3602 258.959 73.5882C258.443 73.8162 258.041 74.1462 257.753 74.5782C257.477 74.9982 257.339 75.5142 257.339 76.1262C257.339 76.6902 257.477 77.1882 257.753 77.6202C258.029 78.0522 258.425 78.3882 258.941 78.6282C259.457 78.8682 260.069 78.9882 260.777 78.9882ZM257.339 68.0442V78.2862C257.339 78.6702 257.321 79.0842 257.285 79.5282C257.249 79.9602 257.213 80.3142 257.177 80.5902H254.999V68.0442H257.339ZM275.588 77.6202H277.856C277.76 78.2322 277.502 78.7782 277.082 79.2582C276.674 79.7382 276.116 80.1162 275.408 80.3922C274.7 80.6682 273.836 80.8062 272.816 80.8062C271.676 80.8062 270.668 80.6262 269.792 80.2662C268.916 79.8942 268.232 79.3602 267.74 78.6642C267.248 77.9682 267.002 77.1282 267.002 76.1442C267.002 75.1602 267.242 74.3202 267.722 73.6242C268.202 72.9162 268.868 72.3762 269.72 72.0042C270.584 71.6322 271.592 71.4462 272.744 71.4462C273.92 71.4462 274.898 71.6322 275.678 72.0042C276.458 72.3762 277.034 72.9402 277.406 73.6962C277.79 74.4402 277.952 75.3942 277.892 76.5582H269.36C269.42 77.0142 269.588 77.4282 269.864 77.8002C270.152 78.1722 270.536 78.4662 271.016 78.6822C271.508 78.8982 272.09 79.0062 272.762 79.0062C273.506 79.0062 274.124 78.8802 274.616 78.6282C275.12 78.3642 275.444 78.0282 275.588 77.6202ZM272.636 73.2282C271.772 73.2282 271.07 73.4202 270.53 73.8042C269.99 74.1762 269.642 74.6382 269.486 75.1902H275.57C275.51 74.5902 275.222 74.1162 274.706 73.7682C274.202 73.4082 273.512 73.2282 272.636 73.2282ZM279.033 71.6442H281.373V80.5902H279.033V71.6442ZM284.811 73.5702C284.139 73.5702 283.557 73.7022 283.065 73.9662C282.573 74.2182 282.177 74.5302 281.877 74.9022C281.577 75.2742 281.367 75.6342 281.247 75.9822L281.229 74.9922C281.241 74.8482 281.289 74.6382 281.373 74.3622C281.457 74.0742 281.583 73.7682 281.751 73.4442C281.919 73.1082 282.141 72.7902 282.417 72.4902C282.693 72.1782 283.029 71.9262 283.425 71.7342C283.821 71.5422 284.283 71.4462 284.811 71.4462V73.5702ZM285.298 77.6202H287.458C287.59 78.0282 287.86 78.3642 288.268 78.6282C288.688 78.8802 289.234 79.0062 289.906 79.0062C290.362 79.0062 290.716 78.9642 290.968 78.8802C291.22 78.7962 291.394 78.6762 291.49 78.5202C291.586 78.3522 291.634 78.1662 291.634 77.9622C291.634 77.7102 291.556 77.5182 291.4 77.3862C291.244 77.2422 291.004 77.1282 290.68 77.0442C290.356 76.9602 289.942 76.8822 289.438 76.8102C288.934 76.7262 288.448 76.6242 287.98 76.5042C287.512 76.3842 287.098 76.2282 286.738 76.0362C286.378 75.8322 286.09 75.5802 285.874 75.2802C285.67 74.9682 285.568 74.5902 285.568 74.1462C285.568 73.7142 285.67 73.3302 285.874 72.9942C286.09 72.6582 286.384 72.3762 286.756 72.1482C287.14 71.9202 287.584 71.7462 288.088 71.6262C288.604 71.5062 289.156 71.4462 289.744 71.4462C290.632 71.4462 291.37 71.5782 291.958 71.8422C292.546 72.0942 292.984 72.4542 293.272 72.9222C293.572 73.3782 293.722 73.9062 293.722 74.5062H291.652C291.556 74.0622 291.364 73.7442 291.076 73.5522C290.788 73.3482 290.344 73.2462 289.744 73.2462C289.156 73.2462 288.712 73.3362 288.412 73.5162C288.112 73.6962 287.962 73.9422 287.962 74.2542C287.962 74.5062 288.052 74.7042 288.232 74.8482C288.424 74.9802 288.7 75.0882 289.06 75.1722C289.432 75.2562 289.894 75.3462 290.446 75.4422C290.914 75.5382 291.358 75.6462 291.778 75.7662C292.21 75.8862 292.594 76.0422 292.93 76.2342C293.266 76.4142 293.53 76.6602 293.722 76.9722C293.926 77.2722 294.028 77.6562 294.028 78.1242C294.028 78.7002 293.86 79.1862 293.524 79.5822C293.2 79.9782 292.732 80.2842 292.12 80.5002C291.508 80.7042 290.776 80.8062 289.924 80.8062C289.168 80.8062 288.514 80.7282 287.962 80.5722C287.422 80.4042 286.972 80.1942 286.612 79.9422C286.252 79.6782 285.97 79.4022 285.766 79.1142C285.574 78.8142 285.442 78.5322 285.37 78.2682C285.298 78.0042 285.274 77.7882 285.298 77.6202Z" fill="black"/>
<rect x="26" y="39.59" width="44" height="44" rx="7" fill="#C7C644" fill-opacity="0.28"/>
<path fill-rule="evenodd" clip-rule="evenodd" d="M33.7741 75.8158C36.2149 78.2567 40.1433 78.2567 48 78.2567C55.8567 78.2567 59.7852 78.2567 62.2258 75.8158C64.6667 73.3752 64.6667 69.4467 64.6667 61.59C64.6667 53.7333 64.6667 49.8049 62.2258 47.3641C59.7852 44.9233 55.8567 44.9233 48 44.9233C40.1433 44.9233 36.2149 44.9233 33.7741 47.3641C31.3333 49.8049 31.3333 53.7333 31.3333 61.59C31.3333 69.4467 31.3333 73.3752 33.7741 75.8158ZM43.8333 56.1733C40.8418 56.1733 38.4167 58.5985 38.4167 61.59C38.4167 64.5815 40.8418 67.0067 43.8333 67.0067C46.8248 67.0067 49.25 64.5815 49.25 61.59C49.25 60.8997 49.8097 60.34 50.5 60.34C51.1903 60.34 51.75 60.8997 51.75 61.59C51.75 65.9623 48.2057 69.5067 43.8333 69.5067C39.4611 69.5067 35.9167 65.9623 35.9167 61.59C35.9167 57.2178 39.4611 53.6733 43.8333 53.6733C44.5237 53.6733 45.0833 54.233 45.0833 54.9233C45.0833 55.6137 44.5237 56.1733 43.8333 56.1733ZM57.5833 61.59C57.5833 64.5815 55.1582 67.0067 52.1667 67.0067C51.4763 67.0067 50.9167 67.5663 50.9167 68.2567C50.9167 68.947 51.4763 69.5067 52.1667 69.5067C56.539 69.5067 60.0833 65.9623 60.0833 61.59C60.0833 57.2178 56.539 53.6733 52.1667 53.6733C47.7943 53.6733 44.25 57.2178 44.25 61.59C44.25 62.2803 44.8097 62.84 45.5 62.84C46.1903 62.84 46.75 62.2803 46.75 61.59C46.75 58.5985 49.1752 56.1733 52.1667 56.1733C55.1582 56.1733 57.5833 58.5985 57.5833 61.59Z" fill="#C7C644"/>
<path d="M427.7 45.782V42.674H435.288V56.59H431.648V45.782H427.7ZM439.186 60.762L438.682 59.81C438.962 59.3993 439.233 58.942 439.494 58.438C439.774 57.934 439.923 57.4206 439.942 56.898L438.402 56.59V53.37H442.686V55.666C442.686 56.9913 442.369 58.0553 441.734 58.858C441.118 59.6793 440.269 60.314 439.186 60.762ZM453.551 56.926C451.796 56.926 450.247 56.646 448.903 56.086C447.577 55.526 446.541 54.714 445.795 53.65C445.048 52.5673 444.675 51.242 444.675 49.674C444.675 48.106 445.048 46.7806 445.795 45.698C446.541 44.5966 447.577 43.766 448.903 43.206C450.247 42.646 451.796 42.366 453.551 42.366C455.305 42.366 456.836 42.646 458.143 43.206C459.468 43.766 460.504 44.5966 461.251 45.698C461.997 46.7806 462.371 48.106 462.371 49.674C462.371 51.242 461.997 52.5673 461.251 53.65C460.504 54.714 459.468 55.526 458.143 56.086C456.836 56.646 455.305 56.926 453.551 56.926ZM453.551 54.126C454.503 54.126 455.361 53.958 456.127 53.622C456.911 53.2673 457.527 52.7633 457.975 52.11C458.441 51.438 458.675 50.626 458.675 49.674C458.675 48.722 458.441 47.91 457.975 47.238C457.527 46.5473 456.92 46.0246 456.155 45.67C455.389 45.3153 454.521 45.138 453.551 45.138C452.599 45.138 451.731 45.3153 450.947 45.67C450.163 46.0246 449.537 46.538 449.071 47.21C448.604 47.882 448.371 48.7033 448.371 49.674C448.371 50.626 448.595 51.438 449.043 52.11C449.509 52.7633 450.135 53.2673 450.919 53.622C451.703 53.958 452.58 54.126 453.551 54.126ZM473.623 56.926C471.868 56.926 470.319 56.646 468.975 56.086C467.649 55.526 466.613 54.714 465.867 53.65C465.12 52.5673 464.747 51.242 464.747 49.674C464.747 48.106 465.12 46.7806 465.867 45.698C466.613 44.5966 467.649 43.766 468.975 43.206C470.319 42.646 471.868 42.366 473.623 42.366C475.377 42.366 476.908 42.646 478.215 43.206C479.54 43.766 480.576 44.5966 481.323 45.698C482.069 46.7806 482.443 48.106 482.443 49.674C482.443 51.242 482.069 52.5673 481.323 53.65C480.576 54.714 479.54 55.526 478.215 56.086C476.908 56.646 475.377 56.926 473.623 56.926ZM473.623 54.126C474.575 54.126 475.433 53.958 476.199 53.622C476.983 53.2673 477.599 52.7633 478.047 52.11C478.513 51.438 478.747 50.626 478.747 49.674C478.747 48.722 478.513 47.91 478.047 47.238C477.599 46.5473 476.992 46.0246 476.227 45.67C475.461 45.3153 474.593 45.138 473.623 45.138C472.671 45.138 471.803 45.3153 471.019 45.67C470.235 46.0246 469.609 46.538 469.143 47.21C468.676 47.882 468.443 48.7033 468.443 49.674C468.443 50.626 468.667 51.438 469.115 52.11C469.581 52.7633 470.207 53.2673 470.991 53.622C471.775 53.958 472.652 54.126 473.623 54.126ZM493.694 56.926C491.94 56.926 490.39 56.646 489.046 56.086C487.721 55.526 486.685 54.714 485.938 53.65C485.192 52.5673 484.818 51.242 484.818 49.674C484.818 48.106 485.192 46.7806 485.938 45.698C486.685 44.5966 487.721 43.766 489.046 43.206C490.39 42.646 491.94 42.366 493.694 42.366C495.449 42.366 496.98 42.646 498.286 43.206C499.612 43.766 500.648 44.5966 501.394 45.698C502.141 46.7806 502.514 48.106 502.514 49.674C502.514 51.242 502.141 52.5673 501.394 53.65C500.648 54.714 499.612 55.526 498.286 56.086C496.98 56.646 495.449 56.926 493.694 56.926ZM493.694 54.126C494.646 54.126 495.505 53.958 496.27 53.622C497.054 53.2673 497.67 52.7633 498.118 52.11C498.585 51.438 498.818 50.626 498.818 49.674C498.818 48.722 498.585 47.91 498.118 47.238C497.67 46.5473 497.064 46.0246 496.298 45.67C495.533 45.3153 494.665 45.138 493.694 45.138C492.742 45.138 491.874 45.3153 491.09 45.67C490.306 46.0246 489.681 46.538 489.214 47.21C488.748 47.882 488.514 48.7033 488.514 49.674C488.514 50.626 488.738 51.438 489.186 52.11C489.653 52.7633 490.278 53.2673 491.062 53.622C491.846 53.958 492.724 54.126 493.694 54.126ZM504.806 47.686H517.686V50.346H504.806V47.686ZM512.758 43.738V54.322H509.734V43.738H512.758ZM434.392 80.798C433.016 80.798 431.837 80.5846 430.856 80.158C429.885 79.7206 429.139 79.102 428.616 78.302C428.104 77.502 427.848 76.542 427.848 75.422C427.848 74.2913 428.104 73.326 428.616 72.526C429.139 71.726 429.885 71.1126 430.856 70.686C431.837 70.2486 433.016 70.03 434.392 70.03C435.779 70.03 436.957 70.2486 437.928 70.686C438.899 71.1126 439.64 71.726 440.152 72.526C440.675 73.326 440.936 74.2913 440.936 75.422C440.936 76.542 440.675 77.502 440.152 78.302C439.64 79.102 438.899 79.7206 437.928 80.158C436.957 80.5846 435.779 80.798 434.392 80.798ZM434.392 78.958C435.245 78.958 435.992 78.83 436.632 78.574C437.283 78.318 437.789 77.9286 438.152 77.406C438.525 76.8833 438.712 76.222 438.712 75.422C438.712 74.622 438.525 73.9606 438.152 73.438C437.789 72.9153 437.283 72.526 436.632 72.27C435.992 72.0033 435.245 71.87 434.392 71.87C433.549 71.87 432.797 72.0033 432.136 72.27C431.475 72.526 430.957 72.9153 430.584 73.438C430.211 73.9606 430.024 74.622 430.024 75.422C430.024 76.222 430.211 76.8833 430.584 77.406C430.957 77.9286 431.475 78.318 432.136 78.574C432.797 78.83 433.549 78.958 434.392 78.958ZM447.933 80.782C447.229 80.782 446.627 80.6593 446.125 80.414C445.635 80.158 445.235 79.8273 444.925 79.422C444.616 79.006 444.387 78.5526 444.237 78.062C444.088 77.5713 444.013 77.0913 444.013 76.622C444.013 76.0353 444.083 75.4913 444.221 74.99C444.371 74.4886 444.6 74.0513 444.909 73.678C445.219 73.294 445.619 72.9953 446.109 72.782C446.611 72.5686 447.219 72.462 447.933 72.462C448.733 72.462 449.453 72.638 450.093 72.99C450.733 73.342 451.24 73.8326 451.613 74.462C451.997 75.0806 452.189 75.8006 452.189 76.622C452.189 77.4646 451.997 78.2006 451.613 78.83C451.229 79.4486 450.717 79.9286 450.077 80.27C449.437 80.6113 448.723 80.782 447.933 80.782ZM447.261 79.166C447.827 79.166 448.317 79.0593 448.733 78.846C449.16 78.6326 449.485 78.3393 449.709 77.966C449.944 77.582 450.061 77.134 450.061 76.622C450.061 75.854 449.816 75.2353 449.325 74.766C448.845 74.2966 448.157 74.062 447.261 74.062C446.696 74.062 446.179 74.1633 445.709 74.366C445.251 74.5686 444.888 74.862 444.621 75.246C444.355 75.6193 444.221 76.078 444.221 76.622C444.221 77.134 444.344 77.582 444.589 77.966C444.835 78.3393 445.187 78.6326 445.645 78.846C446.104 79.0593 446.643 79.166 447.261 79.166ZM442.141 72.638H444.125L444.221 74.75V83.79H442.141V72.638ZM458.911 80.782C458.207 80.782 457.605 80.6593 457.103 80.414C456.613 80.158 456.213 79.8273 455.903 79.422C455.594 79.006 455.365 78.5526 455.215 78.062C455.066 77.5713 454.991 77.0913 454.991 76.622C454.991 76.0353 455.061 75.4913 455.199 74.99C455.349 74.4886 455.578 74.0513 455.887 73.678C456.197 73.294 456.597 72.9953 457.087 72.782C457.589 72.5686 458.197 72.462 458.911 72.462C459.711 72.462 460.431 72.638 461.071 72.99C461.711 73.342 462.218 73.8326 462.591 74.462C462.975 75.0806 463.167 75.8006 463.167 76.622C463.167 77.4646 462.975 78.2006 462.591 78.83C462.207 79.4486 461.695 79.9286 461.055 80.27C460.415 80.6113 459.701 80.782 458.911 80.782ZM458.239 79.166C458.805 79.166 459.295 79.0593 459.711 78.846C460.138 78.6326 460.463 78.3393 460.687 77.966C460.922 77.582 461.039 77.134 461.039 76.622C461.039 75.854 460.794 75.2353 460.303 74.766C459.823 74.2966 459.135 74.062 458.239 74.062C457.674 74.062 457.157 74.1633 456.687 74.366C456.229 74.5686 455.866 74.862 455.599 75.246C455.333 75.6193 455.199 76.078 455.199 76.622C455.199 77.134 455.322 77.582 455.567 77.966C455.813 78.3393 456.165 78.6326 456.623 78.846C457.082 79.0593 457.621 79.166 458.239 79.166ZM453.119 72.638H455.103L455.199 74.75V83.79H453.119V72.638ZM468.786 80.782C467.783 80.782 466.898 80.622 466.13 80.302C465.372 79.982 464.78 79.518 464.354 78.91C463.927 78.2913 463.714 77.534 463.714 76.638C463.714 75.742 463.927 74.9846 464.354 74.366C464.78 73.7366 465.372 73.262 466.13 72.942C466.898 72.622 467.783 72.462 468.786 72.462C469.788 72.462 470.663 72.622 471.41 72.942C472.167 73.262 472.759 73.7366 473.186 74.366C473.612 74.9846 473.826 75.742 473.826 76.638C473.826 77.534 473.612 78.2913 473.186 78.91C472.759 79.518 472.167 79.982 471.41 80.302C470.663 80.622 469.788 80.782 468.786 80.782ZM468.786 79.182C469.34 79.182 469.836 79.086 470.274 78.894C470.722 78.6913 471.074 78.4033 471.33 78.03C471.586 77.646 471.714 77.182 471.714 76.638C471.714 76.094 471.586 75.63 471.33 75.246C471.074 74.8513 470.727 74.5526 470.29 74.35C469.852 74.1473 469.351 74.046 468.786 74.046C468.231 74.046 467.73 74.1473 467.282 74.35C466.834 74.5526 466.476 74.846 466.21 75.23C465.954 75.614 465.826 76.0833 465.826 76.638C465.826 77.182 465.954 77.646 466.21 78.03C466.466 78.4033 466.818 78.6913 467.266 78.894C467.714 79.086 468.22 79.182 468.786 79.182ZM474.763 72.638H476.843V80.59H474.763V72.638ZM479.899 74.35C479.302 74.35 478.784 74.4673 478.347 74.702C477.91 74.926 477.558 75.2033 477.291 75.534C477.024 75.8646 476.838 76.1846 476.731 76.494L476.715 75.614C476.726 75.486 476.768 75.2993 476.843 75.054C476.918 74.798 477.03 74.526 477.179 74.238C477.328 73.9393 477.526 73.6566 477.771 73.39C478.016 73.1126 478.315 72.8886 478.667 72.718C479.019 72.5473 479.43 72.462 479.899 72.462V74.35ZM480.072 72.638H486.248V74.254H480.072V72.638ZM482.12 70.462H484.2V80.59H482.12V70.462ZM496.169 80.59H494.089V72.638H496.169V80.59ZM494.201 76.766L494.217 77.31C494.196 77.4593 494.143 77.678 494.057 77.966C493.972 78.2433 493.839 78.542 493.657 78.862C493.487 79.182 493.263 79.4913 492.985 79.79C492.708 80.078 492.367 80.318 491.961 80.51C491.556 80.6913 491.076 80.782 490.521 80.782C490.084 80.782 489.652 80.7286 489.225 80.622C488.809 80.5153 488.431 80.3393 488.089 80.094C487.748 79.838 487.476 79.4966 487.273 79.07C487.071 78.6433 486.969 78.1046 486.969 77.454V72.638H489.049V77.102C489.049 77.614 489.129 78.0193 489.289 78.318C489.46 78.606 489.705 78.8086 490.025 78.926C490.345 79.0433 490.724 79.102 491.161 79.102C491.737 79.102 492.233 78.9793 492.649 78.734C493.065 78.478 493.401 78.1686 493.657 77.806C493.924 77.4433 494.105 77.0966 494.201 76.766ZM497.463 72.638H499.543V80.59H497.463V72.638ZM503.239 72.462C503.73 72.462 504.183 72.526 504.599 72.654C505.015 72.782 505.378 72.9793 505.687 73.246C505.996 73.5126 506.236 73.854 506.407 74.27C506.578 74.6753 506.663 75.1606 506.663 75.726V80.59H504.583V76.094C504.583 75.422 504.418 74.9313 504.087 74.622C503.767 74.302 503.239 74.142 502.503 74.142C501.948 74.142 501.447 74.2486 500.999 74.462C500.551 74.6753 500.188 74.9473 499.911 75.278C499.634 75.598 499.474 75.934 499.431 76.286L499.415 75.47C499.468 75.0966 499.591 74.734 499.783 74.382C499.975 74.03 500.231 73.71 500.551 73.422C500.882 73.1233 501.271 72.8886 501.719 72.718C502.167 72.5473 502.674 72.462 503.239 72.462ZM510.341 69.15V70.974H507.925V69.15H510.341ZM508.085 72.638H510.165V80.59H508.085V72.638ZM511.078 72.638H517.254V74.254H511.078V72.638ZM513.126 70.462H515.206V80.59H513.126V70.462ZM520.36 69.15V70.974H517.944V69.15H520.36ZM518.104 72.638H520.184V80.59H518.104V72.638ZM528.905 77.95H530.921C530.836 78.494 530.606 78.9793 530.233 79.406C529.87 79.8326 529.374 80.1686 528.745 80.414C528.116 80.6593 527.348 80.782 526.441 80.782C525.428 80.782 524.532 80.622 523.753 80.302C522.974 79.9713 522.366 79.4966 521.929 78.878C521.492 78.2593 521.273 77.5126 521.273 76.638C521.273 75.7633 521.486 75.0166 521.913 74.398C522.34 73.7686 522.932 73.2886 523.689 72.958C524.457 72.6273 525.353 72.462 526.377 72.462C527.422 72.462 528.292 72.6273 528.985 72.958C529.678 73.2886 530.19 73.79 530.521 74.462C530.862 75.1233 531.006 75.9713 530.953 77.006H523.369C523.422 77.4113 523.572 77.7793 523.817 78.11C524.073 78.4406 524.414 78.702 524.841 78.894C525.278 79.086 525.796 79.182 526.393 79.182C527.054 79.182 527.604 79.07 528.041 78.846C528.489 78.6113 528.777 78.3126 528.905 77.95ZM526.281 74.046C525.513 74.046 524.889 74.2166 524.409 74.558C523.929 74.8886 523.62 75.2993 523.481 75.79H528.889C528.836 75.2566 528.58 74.8353 528.121 74.526C527.673 74.206 527.06 74.046 526.281 74.046ZM531.581 77.95H533.501C533.618 78.3126 533.858 78.6113 534.221 78.846C534.594 79.07 535.079 79.182 535.677 79.182C536.082 79.182 536.397 79.1446 536.621 79.07C536.845 78.9953 536.999 78.8886 537.085 78.75C537.17 78.6006 537.213 78.4353 537.213 78.254C537.213 78.03 537.143 77.8593 537.005 77.742C536.866 77.614 536.653 77.5126 536.365 77.438C536.077 77.3633 535.709 77.294 535.261 77.23C534.813 77.1553 534.381 77.0646 533.965 76.958C533.549 76.8513 533.181 76.7126 532.861 76.542C532.541 76.3606 532.285 76.1366 532.093 75.87C531.911 75.5926 531.821 75.2566 531.821 74.862C531.821 74.478 531.911 74.1366 532.093 73.838C532.285 73.5393 532.546 73.2886 532.877 73.086C533.218 72.8833 533.613 72.7286 534.061 72.622C534.519 72.5153 535.01 72.462 535.533 72.462C536.322 72.462 536.978 72.5793 537.501 72.814C538.023 73.038 538.413 73.358 538.669 73.774C538.935 74.1793 539.069 74.6486 539.069 75.182H537.229C537.143 74.7873 536.973 74.5046 536.717 74.334C536.461 74.1526 536.066 74.062 535.533 74.062C535.01 74.062 534.615 74.142 534.349 74.302C534.082 74.462 533.949 74.6806 533.949 74.958C533.949 75.182 534.029 75.358 534.189 75.486C534.359 75.6033 534.605 75.6993 534.925 75.774C535.255 75.8486 535.666 75.9286 536.157 76.014C536.573 76.0993 536.967 76.1953 537.341 76.302C537.725 76.4086 538.066 76.5473 538.365 76.718C538.663 76.878 538.898 77.0966 539.069 77.374C539.25 77.6406 539.341 77.982 539.341 78.398C539.341 78.91 539.191 79.342 538.893 79.694C538.605 80.046 538.189 80.318 537.645 80.51C537.101 80.6913 536.45 80.782 535.693 80.782C535.021 80.782 534.439 80.7126 533.949 80.574C533.469 80.4246 533.069 80.238 532.749 80.014C532.429 79.7793 532.178 79.534 531.997 79.278C531.826 79.0113 531.709 78.7606 531.645 78.526C531.581 78.2913 531.559 78.0993 531.581 77.95ZM553.031 77.454C552.978 78.1473 552.754 78.7446 552.359 79.246C551.975 79.7473 551.442 80.1313 550.759 80.398C550.077 80.654 549.266 80.782 548.327 80.782C547.346 80.782 546.466 80.6273 545.687 80.318C544.919 79.998 544.311 79.534 543.863 78.926C543.426 78.3073 543.207 77.5446 543.207 76.638C543.207 75.7313 543.426 74.9686 543.863 74.35C544.311 73.7313 544.919 73.262 545.687 72.942C546.466 72.622 547.346 72.462 548.327 72.462C549.266 72.462 550.071 72.5953 550.743 72.862C551.415 73.118 551.943 73.4913 552.327 73.982C552.722 74.4726 552.951 75.0646 553.015 75.758H551.111C550.93 75.2246 550.594 74.8086 550.103 74.51C549.613 74.2113 549.021 74.062 548.327 74.062C547.773 74.062 547.266 74.158 546.807 74.35C546.359 74.542 545.997 74.83 545.719 75.214C545.453 75.5873 545.319 76.062 545.319 76.638C545.319 77.2033 545.453 77.678 545.719 78.062C545.986 78.4353 546.349 78.718 546.807 78.91C547.266 79.0913 547.773 79.182 548.327 79.182C549.074 79.182 549.682 79.0326 550.151 78.734C550.631 78.4353 550.957 78.0086 551.127 77.454H553.031ZM553.96 72.638H556.04V80.59H553.96V72.638ZM559.096 74.35C558.499 74.35 557.981 74.4673 557.544 74.702C557.107 74.926 556.755 75.2033 556.488 75.534C556.221 75.8646 556.035 76.1846 555.928 76.494L555.912 75.614C555.923 75.486 555.965 75.2993 556.04 75.054C556.115 74.798 556.227 74.526 556.376 74.238C556.525 73.9393 556.723 73.6566 556.968 73.39C557.213 73.1126 557.512 72.8886 557.864 72.718C558.216 72.5473 558.627 72.462 559.096 72.462V74.35ZM567.03 77.95H569.046C568.961 78.494 568.731 78.9793 568.358 79.406C567.995 79.8326 567.499 80.1686 566.87 80.414C566.241 80.6593 565.473 80.782 564.566 80.782C563.553 80.782 562.657 80.622 561.878 80.302C561.099 79.9713 560.491 79.4966 560.054 78.878C559.617 78.2593 559.398 77.5126 559.398 76.638C559.398 75.7633 559.611 75.0166 560.038 74.398C560.465 73.7686 561.057 73.2886 561.814 72.958C562.582 72.6273 563.478 72.462 564.502 72.462C565.547 72.462 566.417 72.6273 567.11 72.958C567.803 73.2886 568.315 73.79 568.646 74.462C568.987 75.1233 569.131 75.9713 569.078 77.006H561.494C561.547 77.4113 561.697 77.7793 561.942 78.11C562.198 78.4406 562.539 78.702 562.966 78.894C563.403 79.086 563.921 79.182 564.518 79.182C565.179 79.182 565.729 79.07 566.166 78.846C566.614 78.6113 566.902 78.3126 567.03 77.95ZM564.406 74.046C563.638 74.046 563.014 74.2166 562.534 74.558C562.054 74.8886 561.745 75.2993 561.606 75.79H567.014C566.961 75.2566 566.705 74.8353 566.246 74.526C565.798 74.206 565.185 74.046 564.406 74.046ZM573.898 80.766C573.108 80.766 572.388 80.5953 571.738 80.254C571.098 79.902 570.586 79.4166 570.202 78.798C569.828 78.1686 569.642 77.4433 569.642 76.622C569.642 75.7793 569.834 75.0486 570.218 74.43C570.602 73.8113 571.119 73.3313 571.77 72.99C572.431 72.638 573.178 72.462 574.01 72.462C574.927 72.462 575.663 72.6486 576.218 73.022C576.783 73.3846 577.194 73.8806 577.45 74.51C577.706 75.1393 577.834 75.8433 577.834 76.622C577.834 77.0913 577.759 77.5713 577.61 78.062C577.46 78.542 577.231 78.99 576.922 79.406C576.612 79.8113 576.207 80.142 575.706 80.398C575.204 80.6433 574.602 80.766 573.898 80.766ZM574.57 79.166C575.199 79.166 575.743 79.0593 576.202 78.846C576.66 78.6326 577.012 78.334 577.258 77.95C577.503 77.566 577.626 77.1233 577.626 76.622C577.626 76.078 577.498 75.6193 577.242 75.246C576.996 74.862 576.644 74.574 576.186 74.382C575.738 74.1793 575.199 74.078 574.57 74.078C573.684 74.078 572.996 74.3126 572.506 74.782C572.015 75.2406 571.77 75.854 571.77 76.622C571.77 77.134 571.887 77.582 572.122 77.966C572.356 78.3393 572.682 78.6326 573.098 78.846C573.524 79.0593 574.015 79.166 574.57 79.166ZM577.626 72.638H579.706V80.59H577.77C577.77 80.59 577.754 80.4886 577.722 80.286C577.7 80.0726 577.679 79.806 577.658 79.486C577.636 79.166 577.626 78.8513 577.626 78.542V72.638ZM580.428 72.638H586.604V74.254H580.428V72.638ZM582.476 70.462H584.556V80.59H582.476V70.462ZM594.464 77.95H596.48C596.395 78.494 596.166 78.9793 595.792 79.406C595.43 79.8326 594.934 80.1686 594.304 80.414C593.675 80.6593 592.907 80.782 592 80.782C590.987 80.782 590.091 80.622 589.312 80.302C588.534 79.9713 587.926 79.4966 587.488 78.878C587.051 78.2593 586.832 77.5126 586.832 76.638C586.832 75.7633 587.046 75.0166 587.472 74.398C587.899 73.7686 588.491 73.2886 589.248 72.958C590.016 72.6273 590.912 72.462 591.936 72.462C592.982 72.462 593.851 72.6273 594.544 72.958C595.238 73.2886 595.75 73.79 596.08 74.462C596.422 75.1233 596.566 75.9713 596.512 77.006H588.928C588.982 77.4113 589.131 77.7793 589.376 78.11C589.632 78.4406 589.974 78.702 590.4 78.894C590.838 79.086 591.355 79.182 591.952 79.182C592.614 79.182 593.163 79.07 593.6 78.846C594.048 78.6113 594.336 78.3126 594.464 77.95ZM591.84 74.046C591.072 74.046 590.448 74.2166 589.968 74.558C589.488 74.8886 589.179 75.2993 589.04 75.79H594.448C594.395 75.2566 594.139 74.8353 593.68 74.526C593.232 74.206 592.619 74.046 591.84 74.046ZM601.332 80.766C600.532 80.766 599.807 80.5953 599.156 80.254C598.516 79.902 598.009 79.4166 597.636 78.798C597.263 78.1686 597.076 77.4433 597.076 76.622C597.076 75.7793 597.257 75.0486 597.62 74.43C597.993 73.8113 598.5 73.3313 599.14 72.99C599.78 72.638 600.511 72.462 601.332 72.462C602.047 72.462 602.655 72.5686 603.156 72.782C603.657 72.9953 604.063 73.294 604.372 73.678C604.681 74.0513 604.905 74.4886 605.044 74.99C605.193 75.4913 605.268 76.0353 605.268 76.622C605.268 77.0913 605.193 77.5713 605.044 78.062C604.895 78.542 604.665 78.99 604.356 79.406C604.047 79.8113 603.641 80.142 603.14 80.398C602.639 80.6433 602.036 80.766 601.332 80.766ZM602.004 79.166C602.633 79.166 603.177 79.0593 603.636 78.846C604.095 78.6326 604.447 78.334 604.692 77.95C604.937 77.566 605.06 77.1233 605.06 76.622C605.06 76.078 604.932 75.6193 604.676 75.246C604.431 74.862 604.079 74.5686 603.62 74.366C603.172 74.1633 602.633 74.062 602.004 74.062C601.119 74.062 600.431 74.2966 599.94 74.766C599.449 75.2353 599.204 75.854 599.204 76.622C599.204 77.134 599.321 77.582 599.556 77.966C599.791 78.3393 600.116 78.6326 600.532 78.846C600.959 79.0593 601.449 79.166 602.004 79.166ZM605.06 69.438H607.14V80.59H605.204C605.172 80.3446 605.14 80.03 605.108 79.646C605.076 79.2513 605.06 78.8833 605.06 78.542V69.438Z" fill="black"/>
<rect x="367" y="39.59" width="44" height="44" rx="7" fill="#C7C644" fill-opacity="0.28"/>
<path d="M394.96 60.55C391.68 60.55 388.96 63.23 388.96 66.55C388.96 69.83 391.64 72.55 394.96 72.55C398.28 72.55 400.96 69.87 400.96 66.55C400.96 63.23 398.24 60.55 394.96 60.55ZM397.88 65.79L396.76 66.91C396.64 67.03 396.6 67.15 396.6 67.23L396.88 68.91C396.96 69.39 396.52 69.11 396.52 69.11L395.16 68.39C394.96 68.27 394.76 68.39 394.76 68.39L393.36 69.11C393 69.3101 393 69.11 393 68.95L393.28 67.39C393.32 67.07 393.16 66.95 393.16 66.91L392.16 65.95L392.04 65.83C391.92 65.71 391.84 65.51 392.28 65.43L393.68 65.23C393.88 65.19 394 65.11 394.04 65.03L394.8 63.47C394.84 63.35 395 63.23 395.16 63.55L395.92 65.07C395.96 65.15 396.08 65.19 396.16 65.23H396.28L397.76 65.43H397.8C397.88 65.47 398.16 65.55 397.88 65.79Z" fill="#C7C644"/>
<path d="M388.56 72.4699C388.96 72.4699 389.2 71.9899 388.96 71.6699C387.68 70.2299 386.96 68.3899 386.96 66.4699C386.96 65.1099 387.4 63.5899 388.12 62.3899C388.96 60.9499 389.92 60.3499 390.68 59.2299C391.92 57.3899 392.16 54.7499 391.36 52.7499C390.56 50.7099 388.68 49.5099 386.48 49.5499C384.28 49.5899 382.48 50.9499 381.8 52.9899C381 55.2299 381.36 57.9499 383.16 59.6299C383.92 60.3099 384.56 61.3899 384.2 62.4299C384.12 62.6299 383.88 62.9499 383.32 63.1899C381.04 64.1899 378.72 65.3899 377.68 67.0699C377.48 67.3899 377.08 68.1899 377.04 69.3099C377.04 69.5899 377.04 69.8299 377.08 70.1899C377.08 70.3499 377.08 70.3499 377.12 70.5099C377.24 71.1899 377.64 71.7899 378.24 72.1499C378.48 72.2699 379.04 72.4699 380.12 72.4699H388.56Z" fill="#C7C644"/>
<path d="M741.7 46.782V43.674H749.288V57.59H745.648V46.782H741.7ZM761.67 57.926C759.915 57.926 758.366 57.646 757.022 57.086C755.697 56.526 754.661 55.714 753.914 54.65C753.167 53.5673 752.794 52.242 752.794 50.674C752.794 49.106 753.167 47.7806 753.914 46.698C754.661 45.5966 755.697 44.766 757.022 44.206C758.366 43.646 759.915 43.366 761.67 43.366C763.425 43.366 764.955 43.646 766.262 44.206C767.587 44.766 768.623 45.5966 769.37 46.698C770.117 47.7806 770.49 49.106 770.49 50.674C770.49 52.242 770.117 53.5673 769.37 54.65C768.623 55.714 767.587 56.526 766.262 57.086C764.955 57.646 763.425 57.926 761.67 57.926ZM761.67 55.126C762.622 55.126 763.481 54.958 764.246 54.622C765.03 54.2673 765.646 53.7633 766.094 53.11C766.561 52.438 766.794 51.626 766.794 50.674C766.794 49.722 766.561 48.91 766.094 48.238C765.646 47.5473 765.039 47.0246 764.274 46.67C763.509 46.3153 762.641 46.138 761.67 46.138C760.718 46.138 759.85 46.3153 759.066 46.67C758.282 47.0246 757.657 47.538 757.19 48.21C756.723 48.882 756.49 49.7033 756.49 50.674C756.49 51.626 756.714 52.438 757.162 53.11C757.629 53.7633 758.254 54.2673 759.038 54.622C759.822 54.958 760.699 55.126 761.67 55.126ZM781.742 57.926C779.987 57.926 778.438 57.646 777.094 57.086C775.769 56.526 774.733 55.714 773.986 54.65C773.239 53.5673 772.866 52.242 772.866 50.674C772.866 49.106 773.239 47.7806 773.986 46.698C774.733 45.5966 775.769 44.766 777.094 44.206C778.438 43.646 779.987 43.366 781.742 43.366C783.497 43.366 785.027 43.646 786.334 44.206C787.659 44.766 788.695 45.5966 789.442 46.698C790.189 47.7806 790.562 49.106 790.562 50.674C790.562 52.242 790.189 53.5673 789.442 54.65C788.695 55.714 787.659 56.526 786.334 57.086C785.027 57.646 783.497 57.926 781.742 57.926ZM781.742 55.126C782.694 55.126 783.553 54.958 784.318 54.622C785.102 54.2673 785.718 53.7633 786.166 53.11C786.633 52.438 786.866 51.626 786.866 50.674C786.866 49.722 786.633 48.91 786.166 48.238C785.718 47.5473 785.111 47.0246 784.346 46.67C783.581 46.3153 782.713 46.138 781.742 46.138C780.79 46.138 779.922 46.3153 779.138 46.67C778.354 47.0246 777.729 47.538 777.262 48.21C776.795 48.882 776.562 49.7033 776.562 50.674C776.562 51.626 776.786 52.438 777.234 53.11C777.701 53.7633 778.326 54.2673 779.11 54.622C779.894 54.958 780.771 55.126 781.742 55.126ZM792.854 48.686H805.734V51.346H792.854V48.686ZM800.806 44.738V55.322H797.782V44.738H800.806ZM744.072 78.23V76.534H748.808C749.373 76.534 749.821 76.3846 750.152 76.086C750.483 75.7766 750.648 75.35 750.648 74.806C750.648 74.2406 750.483 73.8086 750.152 73.51C749.821 73.2113 749.373 73.062 748.808 73.062H744.328V81.59H742.2V71.238H748.616C749.192 71.238 749.731 71.3073 750.232 71.446C750.744 71.5846 751.187 71.798 751.56 72.086C751.944 72.374 752.243 72.742 752.456 73.19C752.669 73.638 752.776 74.1766 752.776 74.806C752.776 75.4246 752.669 75.9526 752.456 76.39C752.243 76.8273 751.944 77.1846 751.56 77.462C751.187 77.7286 750.744 77.926 750.232 78.054C749.731 78.1713 749.192 78.23 748.616 78.23H744.072ZM753.907 73.638H755.987V81.59H753.907V73.638ZM759.043 75.35C758.446 75.35 757.928 75.4673 757.491 75.702C757.054 75.926 756.702 76.2033 756.435 76.534C756.168 76.8646 755.982 77.1846 755.875 77.494L755.859 76.614C755.87 76.486 755.912 76.2993 755.987 76.054C756.062 75.798 756.174 75.526 756.323 75.238C756.472 74.9393 756.67 74.6566 756.915 74.39C757.16 74.1126 757.459 73.8886 757.811 73.718C758.163 73.5473 758.574 73.462 759.043 73.462V75.35ZM764.417 81.782C763.414 81.782 762.529 81.622 761.761 81.302C761.003 80.982 760.411 80.518 759.985 79.91C759.558 79.2913 759.345 78.534 759.345 77.638C759.345 76.742 759.558 75.9846 759.985 75.366C760.411 74.7366 761.003 74.262 761.761 73.942C762.529 73.622 763.414 73.462 764.417 73.462C765.419 73.462 766.294 73.622 767.041 73.942C767.798 74.262 768.39 74.7366 768.817 75.366C769.243 75.9846 769.457 76.742 769.457 77.638C769.457 78.534 769.243 79.2913 768.817 79.91C768.39 80.518 767.798 80.982 767.041 81.302C766.294 81.622 765.419 81.782 764.417 81.782ZM764.417 80.182C764.971 80.182 765.467 80.086 765.905 79.894C766.353 79.6913 766.705 79.4033 766.961 79.03C767.217 78.646 767.345 78.182 767.345 77.638C767.345 77.094 767.217 76.63 766.961 76.246C766.705 75.8513 766.358 75.5526 765.921 75.35C765.483 75.1473 764.982 75.046 764.417 75.046C763.862 75.046 763.361 75.1473 762.913 75.35C762.465 75.5526 762.107 75.846 761.841 76.23C761.585 76.614 761.457 77.0833 761.457 77.638C761.457 78.182 761.585 78.646 761.841 79.03C762.097 79.4033 762.449 79.6913 762.897 79.894C763.345 80.086 763.851 80.182 764.417 80.182ZM770.554 73.638H772.634V84.79H770.554V73.638ZM772.778 70.15V71.974H770.362V70.15H772.778ZM781.324 78.95H783.34C783.254 79.494 783.025 79.9793 782.652 80.406C782.289 80.8326 781.793 81.1686 781.164 81.414C780.534 81.6593 779.766 81.782 778.86 81.782C777.846 81.782 776.95 81.622 776.172 81.302C775.393 80.9713 774.785 80.4966 774.348 79.878C773.91 79.2593 773.692 78.5126 773.692 77.638C773.692 76.7633 773.905 76.0166 774.332 75.398C774.758 74.7686 775.35 74.2886 776.108 73.958C776.876 73.6273 777.772 73.462 778.796 73.462C779.841 73.462 780.71 73.6273 781.404 73.958C782.097 74.2886 782.609 74.79 782.94 75.462C783.281 76.1233 783.425 76.9713 783.372 78.006H775.788C775.841 78.4113 775.99 78.7793 776.236 79.11C776.492 79.4406 776.833 79.702 777.26 79.894C777.697 80.086 778.214 80.182 778.812 80.182C779.473 80.182 780.022 80.07 780.46 79.846C780.908 79.6113 781.196 79.3126 781.324 78.95ZM778.7 75.046C777.932 75.046 777.308 75.2166 776.828 75.558C776.348 75.8886 776.038 76.2993 775.9 76.79H781.308C781.254 76.2566 780.998 75.8353 780.54 75.526C780.092 75.206 779.478 75.046 778.7 75.046ZM793.759 78.454C793.706 79.1473 793.482 79.7446 793.087 80.246C792.703 80.7473 792.17 81.1313 791.487 81.398C790.805 81.654 789.994 81.782 789.055 81.782C788.074 81.782 787.194 81.6273 786.415 81.318C785.647 80.998 785.039 80.534 784.591 79.926C784.154 79.3073 783.935 78.5446 783.935 77.638C783.935 76.7313 784.154 75.9686 784.591 75.35C785.039 74.7313 785.647 74.262 786.415 73.942C787.194 73.622 788.074 73.462 789.055 73.462C789.994 73.462 790.799 73.5953 791.471 73.862C792.143 74.118 792.671 74.4913 793.055 74.982C793.45 75.4726 793.679 76.0646 793.743 76.758H791.839C791.658 76.2246 791.322 75.8086 790.831 75.51C790.341 75.2113 789.749 75.062 789.055 75.062C788.501 75.062 787.994 75.158 787.535 75.35C787.087 75.542 786.725 75.83 786.447 76.214C786.181 76.5873 786.047 77.062 786.047 77.638C786.047 78.2033 786.181 78.678 786.447 79.062C786.714 79.4353 787.077 79.718 787.535 79.91C787.994 80.0913 788.501 80.182 789.055 80.182C789.802 80.182 790.41 80.0326 790.879 79.734C791.359 79.4353 791.685 79.0086 791.855 78.454H793.759ZM794.128 73.638H800.304V75.254H794.128V73.638ZM796.176 71.462H798.256V81.59H796.176V71.462ZM800.706 78.95H802.626C802.743 79.3126 802.983 79.6113 803.346 79.846C803.719 80.07 804.204 80.182 804.802 80.182C805.207 80.182 805.522 80.1446 805.746 80.07C805.97 79.9953 806.124 79.8886 806.21 79.75C806.295 79.6006 806.338 79.4353 806.338 79.254C806.338 79.03 806.268 78.8593 806.13 78.742C805.991 78.614 805.778 78.5126 805.49 78.438C805.202 78.3633 804.834 78.294 804.386 78.23C803.938 78.1553 803.506 78.0646 803.09 77.958C802.674 77.8513 802.306 77.7126 801.986 77.542C801.666 77.3606 801.41 77.1366 801.218 76.87C801.036 76.5926 800.946 76.2566 800.946 75.862C800.946 75.478 801.036 75.1366 801.218 74.838C801.41 74.5393 801.671 74.2886 802.002 74.086C802.343 73.8833 802.738 73.7286 803.186 73.622C803.644 73.5153 804.135 73.462 804.658 73.462C805.447 73.462 806.103 73.5793 806.626 73.814C807.148 74.038 807.538 74.358 807.794 74.774C808.06 75.1793 808.194 75.6486 808.194 76.182H806.354C806.268 75.7873 806.098 75.5046 805.842 75.334C805.586 75.1526 805.191 75.062 804.658 75.062C804.135 75.062 803.74 75.142 803.474 75.302C803.207 75.462 803.074 75.6806 803.074 75.958C803.074 76.182 803.154 76.358 803.314 76.486C803.484 76.6033 803.73 76.6993 804.05 76.774C804.38 76.8486 804.791 76.9286 805.282 77.014C805.698 77.0993 806.092 77.1953 806.466 77.302C806.85 77.4086 807.191 77.5473 807.49 77.718C807.788 77.878 808.023 78.0966 808.194 78.374C808.375 78.6406 808.466 78.982 808.466 79.398C808.466 79.91 808.316 80.342 808.018 80.694C807.73 81.046 807.314 81.318 806.77 81.51C806.226 81.6913 805.575 81.782 804.818 81.782C804.146 81.782 803.564 81.7126 803.074 81.574C802.594 81.4246 802.194 81.238 801.874 81.014C801.554 80.7793 801.303 80.534 801.122 80.278C800.951 80.0113 800.834 79.7606 800.77 79.526C800.706 79.2913 800.684 79.0993 800.706 78.95ZM812.988 81.59V71.238H818.956C820.343 71.238 821.394 71.4726 822.108 71.942C822.834 72.4006 823.196 73.0886 823.196 74.006C823.196 74.5926 823.052 75.0566 822.764 75.398C822.476 75.7286 822.066 75.974 821.532 76.134C821.01 76.294 820.391 76.3953 819.676 76.438L819.74 76.326C820.263 76.3366 820.754 76.374 821.212 76.438C821.682 76.502 822.092 76.6193 822.444 76.79C822.796 76.9606 823.074 77.2006 823.276 77.51C823.479 77.8086 823.58 78.2033 823.58 78.694C823.58 79.334 823.41 79.8673 823.068 80.294C822.727 80.71 822.252 81.0246 821.644 81.238C821.036 81.4513 820.332 81.5686 819.532 81.59H812.988ZM815.116 79.83H819.308C819.98 79.83 820.498 79.7233 820.86 79.51C821.223 79.286 821.404 78.934 821.404 78.454C821.404 78.102 821.298 77.846 821.084 77.686C820.871 77.526 820.588 77.43 820.236 77.398C819.884 77.3553 819.506 77.334 819.1 77.334H815.116V79.83ZM815.116 75.622H818.876C819.548 75.622 820.066 75.526 820.428 75.334C820.791 75.1313 820.972 74.79 820.972 74.31C820.972 73.83 820.791 73.494 820.428 73.302C820.066 73.0993 819.586 72.998 818.988 72.998H815.116V75.622ZM833.801 81.59H831.721V73.638H833.801V81.59ZM831.833 77.766L831.849 78.31C831.827 78.4593 831.774 78.678 831.689 78.966C831.603 79.2433 831.47 79.542 831.289 79.862C831.118 80.182 830.894 80.4913 830.617 80.79C830.339 81.078 829.998 81.318 829.593 81.51C829.187 81.6913 828.707 81.782 828.153 81.782C827.715 81.782 827.283 81.7286 826.857 81.622C826.441 81.5153 826.062 81.3393 825.721 81.094C825.379 80.838 825.107 80.4966 824.905 80.07C824.702 79.6433 824.601 79.1046 824.601 78.454V73.638H826.681V78.102C826.681 78.614 826.761 79.0193 826.921 79.318C827.091 79.606 827.337 79.8086 827.657 79.926C827.977 80.0433 828.355 80.102 828.793 80.102C829.369 80.102 829.865 79.9793 830.281 79.734C830.697 79.478 831.033 79.1686 831.289 78.806C831.555 78.4433 831.737 78.0966 831.833 77.766ZM837.478 70.15V71.974H835.062V70.15H837.478ZM835.222 73.638H837.302V81.59H835.222V73.638ZM838.936 70.438H841.016V81.59H838.936V70.438ZM846.391 81.766C845.591 81.766 844.866 81.5953 844.215 81.254C843.575 80.902 843.069 80.4166 842.695 79.798C842.322 79.1686 842.135 78.4433 842.135 77.622C842.135 76.7793 842.317 76.0486 842.679 75.43C843.053 74.8113 843.559 74.3313 844.199 73.99C844.839 73.638 845.57 73.462 846.391 73.462C847.106 73.462 847.714 73.5686 848.215 73.782C848.717 73.9953 849.122 74.294 849.431 74.678C849.741 75.0513 849.965 75.4886 850.103 75.99C850.253 76.4913 850.327 77.0353 850.327 77.622C850.327 78.0913 850.253 78.5713 850.103 79.062C849.954 79.542 849.725 79.99 849.415 80.406C849.106 80.8113 848.701 81.142 848.199 81.398C847.698 81.6433 847.095 81.766 846.391 81.766ZM847.063 80.166C847.693 80.166 848.237 80.0593 848.695 79.846C849.154 79.6326 849.506 79.334 849.751 78.95C849.997 78.566 850.119 78.1233 850.119 77.622C850.119 77.078 849.991 76.6193 849.735 76.246C849.49 75.862 849.138 75.5686 848.679 75.366C848.231 75.1633 847.693 75.062 847.063 75.062C846.178 75.062 845.49 75.2966 844.999 75.766C844.509 76.2353 844.263 76.854 844.263 77.622C844.263 78.134 844.381 78.582 844.615 78.966C844.85 79.3393 845.175 79.6326 845.591 79.846C846.018 80.0593 846.509 80.166 847.063 80.166ZM850.119 70.438H852.199V81.59H850.263C850.231 81.3446 850.199 81.03 850.167 80.646C850.135 80.2513 850.119 79.8833 850.119 79.542V70.438Z" fill="black"/>
<rect x="681" y="39.59" width="44" height="44" rx="7" fill="#C7C644" fill-opacity="0.28"/>
<path d="M704 61.59C704 63.2476 704.658 64.8373 705.831 66.0094C707.003 67.1815 708.592 67.84 710.25 67.84H710.3C711.523 67.8868 712.487 67.6118 713.619 66.8853C713.902 66.7051 714.229 66.6043 714.564 66.5934C714.9 66.5825 715.232 66.6619 715.526 66.8233C715.821 66.9847 716.066 67.2222 716.238 67.511C716.409 67.7998 716.5 68.1292 716.5 68.465V74.09C716.5 74.753 716.237 75.3889 715.768 75.8577C715.299 76.3266 714.663 76.59 714 76.59H691.5C690.837 76.59 690.201 76.3266 689.732 75.8577C689.263 75.3889 689 74.753 689 74.09V49.09C689 48.4269 689.263 47.791 689.732 47.3222C690.201 46.8534 690.837 46.59 691.5 46.59H714C714.663 46.59 715.299 46.8534 715.768 47.3222C716.237 47.791 716.5 48.4269 716.5 49.09V54.715C716.5 55.0513 716.409 55.3814 716.238 55.6707C716.066 55.9599 715.82 56.1977 715.525 56.3591C715.229 56.5204 714.896 56.5995 714.56 56.5879C714.224 56.5762 713.897 56.4744 713.614 56.2931C712.665 55.7008 711.575 55.3724 710.457 55.342C709.339 55.3116 708.232 55.5802 707.253 56.12C706.273 56.6598 705.455 57.4514 704.883 58.413C704.311 59.3745 704.006 60.4713 704 61.59Z" fill="#C7C644"/>
<path d="M1025.38 51.4382V51.2982C1026.48 51.3355 1027.49 51.4289 1028.4 51.5782C1029.34 51.7089 1030.14 51.9422 1030.81 52.2782C1031.48 52.5955 1032.01 53.0435 1032.38 53.6222C1032.75 54.2009 1032.94 54.9382 1032.94 55.8342C1032.94 56.8795 1032.6 57.8035 1031.93 58.6062C1031.28 59.4089 1030.35 60.0342 1029.13 60.4822C1027.92 60.9489 1026.49 61.1822 1024.85 61.1822C1023.24 61.1822 1021.83 60.9302 1020.62 60.4262C1019.43 59.9409 1018.51 59.2595 1017.88 58.3822C1017.24 57.5235 1016.95 56.5249 1017.01 55.3862H1020.54C1020.55 55.9275 1020.73 56.3942 1021.07 56.7862C1021.42 57.1969 1021.92 57.5142 1022.55 57.7382C1023.21 57.9622 1023.97 58.0742 1024.85 58.0742C1026.21 58.0742 1027.26 57.8409 1027.98 57.3742C1028.71 56.9075 1029.08 56.2169 1029.08 55.3022C1029.08 54.4249 1028.66 53.8089 1027.82 53.4542C1026.98 53.0809 1025.79 52.8942 1024.26 52.8942H1021.88V50.0942H1024.26C1025.32 50.0942 1026.18 50.0289 1026.84 49.8982C1027.51 49.7489 1027.99 49.5155 1028.29 49.1982C1028.61 48.8622 1028.77 48.4235 1028.77 47.8822C1028.77 47.1169 1028.46 46.5195 1027.84 46.0902C1027.23 45.6422 1026.23 45.4182 1024.85 45.4182C1023.54 45.4182 1022.53 45.6515 1021.82 46.1182C1021.13 46.5849 1020.77 47.2009 1020.73 47.9662H1017.2C1017.15 47.0889 1017.31 46.3049 1017.68 45.6142C1018.07 44.9235 1018.62 44.3355 1019.33 43.8502C1020.06 43.3462 1020.89 42.9635 1021.82 42.7022C1022.78 42.4409 1023.78 42.3102 1024.85 42.3102C1026.45 42.3102 1027.83 42.5155 1028.99 42.9262C1030.15 43.3369 1031.04 43.9155 1031.65 44.6622C1032.27 45.4089 1032.58 46.2769 1032.58 47.2662C1032.58 48.0875 1032.4 48.7689 1032.04 49.3102C1031.69 49.8329 1031.19 50.2529 1030.53 50.5702C1029.88 50.8689 1029.11 51.0835 1028.24 51.2142C1027.38 51.3449 1026.43 51.4195 1025.38 51.4382ZM1043.7 56.9262C1041.94 56.9262 1040.39 56.6462 1039.05 56.0862C1037.72 55.5262 1036.69 54.7142 1035.94 53.6502C1035.19 52.5675 1034.82 51.2422 1034.82 49.6742C1034.82 48.1062 1035.19 46.7809 1035.94 45.6982C1036.69 44.5969 1037.72 43.7662 1039.05 43.2062C1040.39 42.6462 1041.94 42.3662 1043.7 42.3662C1045.45 42.3662 1046.98 42.6462 1048.29 43.2062C1049.61 43.7662 1050.65 44.5969 1051.4 45.6982C1052.14 46.7809 1052.52 48.1062 1052.52 49.6742C1052.52 51.2422 1052.14 52.5675 1051.4 53.6502C1050.65 54.7142 1049.61 55.5262 1048.29 56.0862C1046.98 56.6462 1045.45 56.9262 1043.7 56.9262ZM1043.7 54.1262C1044.65 54.1262 1045.51 53.9582 1046.27 53.6222C1047.06 53.2675 1047.67 52.7635 1048.12 52.1102C1048.59 51.4382 1048.82 50.6262 1048.82 49.6742C1048.82 48.7222 1048.59 47.9102 1048.12 47.2382C1047.67 46.5475 1047.07 46.0249 1046.3 45.6702C1045.54 45.3155 1044.67 45.1382 1043.7 45.1382C1042.75 45.1382 1041.88 45.3155 1041.09 45.6702C1040.31 46.0249 1039.68 46.5382 1039.22 47.2102C1038.75 47.8822 1038.52 48.7035 1038.52 49.6742C1038.52 50.6262 1038.74 51.4382 1039.19 52.1102C1039.66 52.7635 1040.28 53.2675 1041.07 53.6222C1041.85 53.9582 1042.73 54.1262 1043.7 54.1262ZM1054.81 47.6862H1067.69V50.3462H1054.81V47.6862ZM1062.76 43.7382V54.3222H1059.74V43.7382H1062.76ZM1029.31 76.8622C1029.22 77.6942 1028.92 78.4035 1028.43 78.9902C1027.94 79.5769 1027.27 80.0249 1026.43 80.3342C1025.59 80.6435 1024.59 80.7982 1023.42 80.7982C1022.45 80.7982 1021.56 80.6862 1020.75 80.4622C1019.95 80.2382 1019.26 79.9022 1018.67 79.4542C1018.1 79.0062 1017.65 78.4515 1017.33 77.7902C1017.01 77.1182 1016.85 76.3342 1016.85 75.4382C1016.85 74.5422 1017.01 73.7582 1017.33 73.0862C1017.65 72.4142 1018.1 71.8542 1018.67 71.4062C1019.26 70.9475 1019.95 70.6062 1020.75 70.3822C1021.56 70.1475 1022.45 70.0302 1023.42 70.0302C1024.59 70.0302 1025.59 70.1902 1026.43 70.5102C1027.29 70.8302 1027.96 71.2889 1028.45 71.8862C1028.94 72.4729 1029.23 73.1875 1029.31 74.0302H1027.2C1027.06 73.5822 1026.83 73.1982 1026.5 72.8782C1026.18 72.5475 1025.76 72.2969 1025.25 72.1262C1024.74 71.9555 1024.13 71.8702 1023.42 71.8702C1022.55 71.8702 1021.78 72.0089 1021.12 72.2862C1020.46 72.5529 1019.95 72.9529 1019.58 73.4862C1019.22 74.0089 1019.04 74.6595 1019.04 75.4382C1019.04 76.2062 1019.22 76.8515 1019.58 77.3742C1019.95 77.8969 1020.46 78.2969 1021.12 78.5742C1021.78 78.8409 1022.55 78.9742 1023.42 78.9742C1024.13 78.9742 1024.73 78.8889 1025.23 78.7182C1025.74 78.5475 1026.16 78.3022 1026.48 77.9822C1026.81 77.6622 1027.05 77.2889 1027.2 76.8622H1029.31ZM1035.2 80.7822C1034.2 80.7822 1033.32 80.6222 1032.55 80.3022C1031.79 79.9822 1031.2 79.5182 1030.77 78.9102C1030.35 78.2915 1030.13 77.5342 1030.13 76.6382C1030.13 75.7422 1030.35 74.9849 1030.77 74.3662C1031.2 73.7369 1031.79 73.2622 1032.55 72.9422C1033.32 72.6222 1034.2 72.4622 1035.2 72.4622C1036.21 72.4622 1037.08 72.6222 1037.83 72.9422C1038.59 73.2622 1039.18 73.7369 1039.6 74.3662C1040.03 74.9849 1040.24 75.7422 1040.24 76.6382C1040.24 77.5342 1040.03 78.2915 1039.6 78.9102C1039.18 79.5182 1038.59 79.9822 1037.83 80.3022C1037.08 80.6222 1036.21 80.7822 1035.2 80.7822ZM1035.2 79.1822C1035.76 79.1822 1036.25 79.0862 1036.69 78.8942C1037.14 78.6915 1037.49 78.4035 1037.75 78.0302C1038 77.6462 1038.13 77.1822 1038.13 76.6382C1038.13 76.0942 1038 75.6302 1037.75 75.2462C1037.49 74.8515 1037.15 74.5529 1036.71 74.3502C1036.27 74.1475 1035.77 74.0462 1035.2 74.0462C1034.65 74.0462 1034.15 74.1475 1033.7 74.3502C1033.25 74.5529 1032.89 74.8462 1032.63 75.2302C1032.37 75.6142 1032.24 76.0835 1032.24 76.6382C1032.24 77.1822 1032.37 77.6462 1032.63 78.0302C1032.88 78.4035 1033.24 78.6915 1033.68 78.8942C1034.13 79.0862 1034.64 79.1822 1035.2 79.1822ZM1041.18 72.6382H1043.26V80.5902H1041.18V72.6382ZM1046.96 72.4622C1047.45 72.4622 1047.9 72.5262 1048.32 72.6542C1048.73 72.7822 1049.1 72.9795 1049.41 73.2462C1049.72 73.5129 1049.96 73.8542 1050.13 74.2702C1050.3 74.6755 1050.38 75.1609 1050.38 75.7262V80.5902H1048.3V76.0942C1048.3 75.4222 1048.14 74.9315 1047.81 74.6222C1047.49 74.3022 1046.96 74.1422 1046.22 74.1422C1045.67 74.1422 1045.17 74.2489 1044.72 74.4622C1044.27 74.6755 1043.91 74.9475 1043.63 75.2782C1043.35 75.5982 1043.19 75.9342 1043.15 76.2862L1043.13 75.4702C1043.19 75.0969 1043.31 74.7342 1043.5 74.3822C1043.69 74.0302 1043.95 73.7102 1044.27 73.4222C1044.6 73.1235 1044.99 72.8889 1045.44 72.7182C1045.89 72.5475 1046.39 72.4622 1046.96 72.4622ZM1053.89 72.4622C1054.38 72.4622 1054.83 72.5262 1055.25 72.6542C1055.66 72.7822 1056.02 72.9795 1056.33 73.2462C1056.64 73.5129 1056.88 73.8542 1057.05 74.2702C1057.24 74.6755 1057.33 75.1609 1057.33 75.7262V80.5902H1055.25V76.0942C1055.25 75.4222 1055.08 74.9315 1054.75 74.6222C1054.42 74.3022 1053.89 74.1422 1053.15 74.1422C1052.6 74.1422 1052.09 74.2489 1051.65 74.4622C1051.2 74.6755 1050.84 74.9475 1050.56 75.2782C1050.28 75.5982 1050.13 75.9342 1050.09 76.2862L1050.06 75.4222C1050.12 75.0702 1050.24 74.7182 1050.45 74.3662C1050.65 74.0142 1050.92 73.6942 1051.25 73.4062C1051.58 73.1182 1051.96 72.8889 1052.4 72.7182C1052.85 72.5475 1053.34 72.4622 1053.89 72.4622ZM1064.41 80.7822C1063.7 80.7822 1063.1 80.6595 1062.6 80.4142C1062.11 80.1582 1061.71 79.8275 1061.4 79.4222C1061.09 79.0062 1060.86 78.5529 1060.71 78.0622C1060.56 77.5715 1060.49 77.0915 1060.49 76.6222C1060.49 76.0355 1060.55 75.4915 1060.69 74.9902C1060.84 74.4889 1061.07 74.0515 1061.38 73.6782C1061.69 73.2942 1062.09 72.9955 1062.58 72.7822C1063.08 72.5689 1063.69 72.4622 1064.41 72.4622C1065.21 72.4622 1065.93 72.6382 1066.57 72.9902C1067.21 73.3422 1067.71 73.8329 1068.09 74.4622C1068.47 75.0809 1068.66 75.8009 1068.66 76.6222C1068.66 77.4649 1068.47 78.2009 1068.09 78.8302C1067.7 79.4489 1067.19 79.9289 1066.55 80.2702C1065.91 80.6115 1065.19 80.7822 1064.41 80.7822ZM1063.73 79.1662C1064.3 79.1662 1064.79 79.0595 1065.21 78.8462C1065.63 78.6329 1065.96 78.3395 1066.18 77.9662C1066.42 77.5822 1066.53 77.1342 1066.53 76.6222C1066.53 75.8542 1066.29 75.2355 1065.8 74.7662C1065.32 74.2969 1064.63 74.0622 1063.73 74.0622C1063.17 74.0622 1062.65 74.1635 1062.18 74.3662C1061.72 74.5689 1061.36 74.8622 1061.09 75.2462C1060.83 75.6195 1060.69 76.0782 1060.69 76.6222C1060.69 77.1342 1060.82 77.5822 1061.06 77.9662C1061.31 78.3395 1061.66 78.6329 1062.12 78.8462C1062.58 79.0595 1063.11 79.1662 1063.73 79.1662ZM1058.61 72.6382H1060.6L1060.69 74.7502V83.7902H1058.61V72.6382ZM1073.46 80.7662C1072.67 80.7662 1071.95 80.5955 1071.3 80.2542C1070.66 79.9022 1070.15 79.4169 1069.77 78.7982C1069.39 78.1689 1069.21 77.4435 1069.21 76.6222C1069.21 75.7795 1069.4 75.0489 1069.78 74.4302C1070.17 73.8115 1070.68 73.3315 1071.34 72.9902C1072 72.6382 1072.74 72.4622 1073.58 72.4622C1074.49 72.4622 1075.23 72.6489 1075.78 73.0222C1076.35 73.3849 1076.76 73.8809 1077.02 74.5102C1077.27 75.1395 1077.4 75.8435 1077.4 76.6222C1077.4 77.0915 1077.32 77.5715 1077.18 78.0622C1077.03 78.5422 1076.8 78.9902 1076.49 79.4062C1076.18 79.8115 1075.77 80.1422 1075.27 80.3982C1074.77 80.6435 1074.17 80.7662 1073.46 80.7662ZM1074.14 79.1662C1074.76 79.1662 1075.31 79.0595 1075.77 78.8462C1076.23 78.6329 1076.58 78.3342 1076.82 77.9502C1077.07 77.5662 1077.19 77.1235 1077.19 76.6222C1077.19 76.0782 1077.06 75.6195 1076.81 75.2462C1076.56 74.8622 1076.21 74.5742 1075.75 74.3822C1075.3 74.1795 1074.76 74.0782 1074.14 74.0782C1073.25 74.0782 1072.56 74.3129 1072.07 74.7822C1071.58 75.2409 1071.34 75.8542 1071.34 76.6222C1071.34 77.1342 1071.45 77.5822 1071.69 77.9662C1071.92 78.3395 1072.25 78.6329 1072.66 78.8462C1073.09 79.0595 1073.58 79.1662 1074.14 79.1662ZM1077.19 72.6382H1079.27V80.5902H1077.34C1077.34 80.5902 1077.32 80.4889 1077.29 80.2862C1077.27 80.0729 1077.24 79.8062 1077.22 79.4862C1077.2 79.1662 1077.19 78.8515 1077.19 78.5422V72.6382ZM1080.55 72.6382H1082.63V80.5902H1080.55V72.6382ZM1086.33 72.4622C1086.82 72.4622 1087.27 72.5262 1087.69 72.6542C1088.11 72.7822 1088.47 72.9795 1088.78 73.2462C1089.09 73.5129 1089.33 73.8542 1089.5 74.2702C1089.67 74.6755 1089.75 75.1609 1089.75 75.7262V80.5902H1087.67V76.0942C1087.67 75.4222 1087.51 74.9315 1087.18 74.6222C1086.86 74.3022 1086.33 74.1422 1085.59 74.1422C1085.04 74.1422 1084.54 74.2489 1084.09 74.4622C1083.64 74.6755 1083.28 74.9475 1083 75.2782C1082.72 75.5982 1082.56 75.9342 1082.52 76.2862L1082.51 75.4702C1082.56 75.0969 1082.68 74.7342 1082.87 74.3822C1083.07 74.0302 1083.32 73.7102 1083.64 73.4222C1083.97 73.1235 1084.36 72.8889 1084.81 72.7182C1085.26 72.5475 1085.76 72.4622 1086.33 72.4622ZM1093.43 69.1502V70.9742H1091.02V69.1502H1093.43ZM1091.18 72.6382H1093.26V80.5902H1091.18V72.6382ZM1101.98 77.9502H1103.99C1103.91 78.4942 1103.68 78.9795 1103.3 79.4062C1102.94 79.8329 1102.45 80.1689 1101.82 80.4142C1101.19 80.6595 1100.42 80.7822 1099.51 80.7822C1098.5 80.7822 1097.6 80.6222 1096.82 80.3022C1096.05 79.9715 1095.44 79.4969 1095 78.8782C1094.56 78.2595 1094.34 77.5129 1094.34 76.6382C1094.34 75.7635 1094.56 75.0169 1094.98 74.3982C1095.41 73.7689 1096 73.2889 1096.76 72.9582C1097.53 72.6275 1098.42 72.4622 1099.45 72.4622C1100.49 72.4622 1101.36 72.6275 1102.06 72.9582C1102.75 73.2889 1103.26 73.7902 1103.59 74.4622C1103.93 75.1235 1104.08 75.9715 1104.02 77.0062H1096.44C1096.49 77.4115 1096.64 77.7795 1096.89 78.1102C1097.14 78.4409 1097.49 78.7022 1097.91 78.8942C1098.35 79.0862 1098.87 79.1822 1099.46 79.1822C1100.13 79.1822 1100.68 79.0702 1101.11 78.8462C1101.56 78.6115 1101.85 78.3129 1101.98 77.9502ZM1099.35 74.0462C1098.58 74.0462 1097.96 74.2169 1097.48 74.5582C1097 74.8889 1096.69 75.2995 1096.55 75.7902H1101.96C1101.91 75.2569 1101.65 74.8355 1101.19 74.5262C1100.74 74.2062 1100.13 74.0462 1099.35 74.0462ZM1104.65 77.9502H1106.57C1106.69 78.3129 1106.93 78.6115 1107.29 78.8462C1107.67 79.0702 1108.15 79.1822 1108.75 79.1822C1109.15 79.1822 1109.47 79.1449 1109.69 79.0702C1109.92 78.9955 1110.07 78.8889 1110.16 78.7502C1110.24 78.6009 1110.28 78.4355 1110.28 78.2542C1110.28 78.0302 1110.22 77.8595 1110.08 77.7422C1109.94 77.6142 1109.72 77.5129 1109.44 77.4382C1109.15 77.3635 1108.78 77.2942 1108.33 77.2302C1107.88 77.1555 1107.45 77.0649 1107.04 76.9582C1106.62 76.8515 1106.25 76.7129 1105.93 76.5422C1105.61 76.3609 1105.36 76.1369 1105.16 75.8702C1104.98 75.5929 1104.89 75.2569 1104.89 74.8622C1104.89 74.4782 1104.98 74.1369 1105.16 73.8382C1105.36 73.5395 1105.62 73.2889 1105.95 73.0862C1106.29 72.8835 1106.68 72.7289 1107.13 72.6222C1107.59 72.5155 1108.08 72.4622 1108.6 72.4622C1109.39 72.4622 1110.05 72.5795 1110.57 72.8142C1111.1 73.0382 1111.48 73.3582 1111.74 73.7742C1112.01 74.1795 1112.14 74.6489 1112.14 75.1822H1110.3C1110.22 74.7875 1110.04 74.5049 1109.79 74.3342C1109.53 74.1529 1109.14 74.0622 1108.6 74.0622C1108.08 74.0622 1107.69 74.1422 1107.42 74.3022C1107.15 74.4622 1107.02 74.6809 1107.02 74.9582C1107.02 75.1822 1107.1 75.3582 1107.26 75.4862C1107.43 75.6035 1107.68 75.6995 1108 75.7742C1108.33 75.8489 1108.74 75.9289 1109.23 76.0142C1109.64 76.0995 1110.04 76.1955 1110.41 76.3022C1110.8 76.4089 1111.14 76.5475 1111.44 76.7182C1111.74 76.8782 1111.97 77.0969 1112.14 77.3742C1112.32 77.6409 1112.41 77.9822 1112.41 78.3982C1112.41 78.9102 1112.26 79.3422 1111.96 79.6942C1111.68 80.0462 1111.26 80.3182 1110.72 80.5102C1110.17 80.6915 1109.52 80.7822 1108.76 80.7822C1108.09 80.7822 1107.51 80.7129 1107.02 80.5742C1106.54 80.4249 1106.14 80.2382 1105.82 80.0142C1105.5 79.7795 1105.25 79.5342 1105.07 79.2782C1104.9 79.0115 1104.78 78.7609 1104.72 78.5262C1104.65 78.2915 1104.63 78.0995 1104.65 77.9502ZM1120.54 80.7662C1119.75 80.7662 1119.03 80.5955 1118.38 80.2542C1117.74 79.9022 1117.22 79.4169 1116.84 78.7982C1116.47 78.1689 1116.28 77.4435 1116.28 76.6222C1116.28 75.7795 1116.47 75.0489 1116.86 74.4302C1117.24 73.8115 1117.76 73.3315 1118.41 72.9902C1119.07 72.6382 1119.82 72.4622 1120.65 72.4622C1121.56 72.4622 1122.3 72.6489 1122.86 73.0222C1123.42 73.3849 1123.83 73.8809 1124.09 74.5102C1124.34 75.1395 1124.47 75.8435 1124.47 76.6222C1124.47 77.0915 1124.4 77.5715 1124.25 78.0622C1124.1 78.5422 1123.87 78.9902 1123.56 79.4062C1123.25 79.8115 1122.84 80.1422 1122.34 80.3982C1121.84 80.6435 1121.24 80.7662 1120.54 80.7662ZM1121.21 79.1662C1121.84 79.1662 1122.38 79.0595 1122.84 78.8462C1123.3 78.6329 1123.65 78.3342 1123.9 77.9502C1124.14 77.5662 1124.26 77.1235 1124.26 76.6222C1124.26 76.0782 1124.14 75.6195 1123.88 75.2462C1123.63 74.8622 1123.28 74.5742 1122.82 74.3822C1122.38 74.1795 1121.84 74.0782 1121.21 74.0782C1120.32 74.0782 1119.63 74.3129 1119.14 74.7822C1118.65 75.2409 1118.41 75.8542 1118.41 76.6222C1118.41 77.1342 1118.52 77.5822 1118.76 77.9662C1118.99 78.3395 1119.32 78.6329 1119.74 78.8462C1120.16 79.0595 1120.65 79.1662 1121.21 79.1662ZM1124.26 72.6382H1126.34V80.5902H1124.41C1124.41 80.5902 1124.39 80.4889 1124.36 80.2862C1124.34 80.0729 1124.32 79.8062 1124.3 79.4862C1124.27 79.1662 1124.26 78.8515 1124.26 78.5422V72.6382ZM1127.63 72.6382H1129.71V80.5902H1127.63V72.6382ZM1133.4 72.4622C1133.89 72.4622 1134.35 72.5262 1134.76 72.6542C1135.18 72.7822 1135.54 72.9795 1135.85 73.2462C1136.16 73.5129 1136.4 73.8542 1136.57 74.2702C1136.74 74.6755 1136.83 75.1609 1136.83 75.7262V80.5902H1134.75V76.0942C1134.75 75.4222 1134.58 74.9315 1134.25 74.6222C1133.93 74.3022 1133.4 74.1422 1132.67 74.1422C1132.11 74.1422 1131.61 74.2489 1131.16 74.4622C1130.71 74.6755 1130.35 74.9475 1130.07 75.2782C1129.8 75.5982 1129.64 75.9342 1129.59 76.2862L1129.58 75.4702C1129.63 75.0969 1129.75 74.7342 1129.95 74.3822C1130.14 74.0302 1130.39 73.7102 1130.71 73.4222C1131.04 73.1235 1131.43 72.8889 1131.88 72.7182C1132.33 72.5475 1132.84 72.4622 1133.4 72.4622ZM1141.99 80.7662C1141.19 80.7662 1140.47 80.5955 1139.82 80.2542C1139.18 79.9022 1138.67 79.4169 1138.3 78.7982C1137.92 78.1689 1137.74 77.4435 1137.74 76.6222C1137.74 75.7795 1137.92 75.0489 1138.28 74.4302C1138.65 73.8115 1139.16 73.3315 1139.8 72.9902C1140.44 72.6382 1141.17 72.4622 1141.99 72.4622C1142.71 72.4622 1143.31 72.5689 1143.82 72.7822C1144.32 72.9955 1144.72 73.2942 1145.03 73.6782C1145.34 74.0515 1145.56 74.4889 1145.7 74.9902C1145.85 75.4915 1145.93 76.0355 1145.93 76.6222C1145.93 77.0915 1145.85 77.5715 1145.7 78.0622C1145.55 78.5422 1145.32 78.9902 1145.02 79.4062C1144.71 79.8115 1144.3 80.1422 1143.8 80.3982C1143.3 80.6435 1142.7 80.7662 1141.99 80.7662ZM1142.66 79.1662C1143.29 79.1662 1143.84 79.0595 1144.3 78.8462C1144.75 78.6329 1145.11 78.3342 1145.35 77.9502C1145.6 77.5662 1145.72 77.1235 1145.72 76.6222C1145.72 76.0782 1145.59 75.6195 1145.34 75.2462C1145.09 74.8622 1144.74 74.5689 1144.28 74.3662C1143.83 74.1635 1143.29 74.0622 1142.66 74.0622C1141.78 74.0622 1141.09 74.2969 1140.6 74.7662C1140.11 75.2355 1139.86 75.8542 1139.86 76.6222C1139.86 77.1342 1139.98 77.5822 1140.22 77.9662C1140.45 78.3395 1140.78 78.6329 1141.19 78.8462C1141.62 79.0595 1142.11 79.1662 1142.66 79.1662ZM1145.72 69.4382H1147.8V80.5902H1145.86C1145.83 80.3449 1145.8 80.0302 1145.77 79.6462C1145.74 79.2515 1145.72 78.8835 1145.72 78.5422V69.4382ZM1154.81 77.2302V75.5342H1159.55C1160.11 75.5342 1160.56 75.3849 1160.89 75.0862C1161.22 74.7769 1161.39 74.3502 1161.39 73.8062C1161.39 73.2409 1161.22 72.8089 1160.89 72.5102C1160.56 72.2115 1160.11 72.0622 1159.55 72.0622H1155.07V80.5902H1152.94V70.2382H1159.36C1159.93 70.2382 1160.47 70.3075 1160.97 70.4462C1161.48 70.5849 1161.93 70.7982 1162.3 71.0862C1162.68 71.3742 1162.98 71.7422 1163.2 72.1902C1163.41 72.6382 1163.52 73.1769 1163.52 73.8062C1163.52 74.4249 1163.41 74.9529 1163.2 75.3902C1162.98 75.8275 1162.68 76.1849 1162.3 76.4622C1161.93 76.7289 1161.48 76.9262 1160.97 77.0542C1160.47 77.1715 1159.93 77.2302 1159.36 77.2302H1154.81ZM1168.25 80.7662C1167.46 80.7662 1166.74 80.5955 1166.09 80.2542C1165.45 79.9022 1164.94 79.4169 1164.56 78.7982C1164.18 78.1689 1164 77.4435 1164 76.6222C1164 75.7795 1164.19 75.0489 1164.57 74.4302C1164.96 73.8115 1165.48 73.3315 1166.13 72.9902C1166.79 72.6382 1167.53 72.4622 1168.37 72.4622C1169.28 72.4622 1170.02 72.6489 1170.57 73.0222C1171.14 73.3849 1171.55 73.8809 1171.81 74.5102C1172.06 75.1395 1172.19 75.8435 1172.19 76.6222C1172.19 77.0915 1172.12 77.5715 1171.97 78.0622C1171.82 78.5422 1171.59 78.9902 1171.28 79.4062C1170.97 79.8115 1170.56 80.1422 1170.06 80.3982C1169.56 80.6435 1168.96 80.7662 1168.25 80.7662ZM1168.93 79.1662C1169.56 79.1662 1170.1 79.0595 1170.56 78.8462C1171.02 78.6329 1171.37 78.3342 1171.61 77.9502C1171.86 77.5662 1171.98 77.1235 1171.98 76.6222C1171.98 76.0782 1171.85 75.6195 1171.6 75.2462C1171.35 74.8622 1171 74.5742 1170.54 74.3822C1170.09 74.1795 1169.56 74.0782 1168.93 74.0782C1168.04 74.0782 1167.35 74.3129 1166.86 74.7822C1166.37 75.2409 1166.13 75.8542 1166.13 76.6222C1166.13 77.1342 1166.24 77.5822 1166.48 77.9662C1166.71 78.3395 1167.04 78.6329 1167.45 78.8462C1167.88 79.0595 1168.37 79.1662 1168.93 79.1662ZM1171.98 72.6382H1174.06V80.5902H1172.13C1172.13 80.5902 1172.11 80.4889 1172.08 80.2862C1172.06 80.0729 1172.04 79.8062 1172.01 79.4862C1171.99 79.1662 1171.98 78.8515 1171.98 78.5422V72.6382ZM1175.34 72.6382H1177.42V80.5902H1175.34V72.6382ZM1180.48 74.3502C1179.88 74.3502 1179.37 74.4675 1178.93 74.7022C1178.49 74.9262 1178.14 75.2035 1177.87 75.5342C1177.61 75.8649 1177.42 76.1849 1177.31 76.4942L1177.3 75.6142C1177.31 75.4862 1177.35 75.2995 1177.42 75.0542C1177.5 74.7982 1177.61 74.5262 1177.76 74.2382C1177.91 73.9395 1178.11 73.6569 1178.35 73.3902C1178.6 73.1129 1178.9 72.8889 1179.25 72.7182C1179.6 72.5475 1180.01 72.4622 1180.48 72.4622V74.3502ZM1180.65 72.6382H1186.83V74.2542H1180.65V72.6382ZM1182.7 70.4622H1184.78V80.5902H1182.7V70.4622ZM1187.55 72.6382H1189.63V80.5902H1187.55V72.6382ZM1193.33 72.4622C1193.82 72.4622 1194.27 72.5262 1194.69 72.6542C1195.1 72.7822 1195.47 72.9795 1195.77 73.2462C1196.08 73.5129 1196.32 73.8542 1196.49 74.2702C1196.67 74.6755 1196.75 75.1609 1196.75 75.7262V80.5902H1194.67V76.0942C1194.67 75.4222 1194.51 74.9315 1194.17 74.6222C1193.85 74.3022 1193.33 74.1422 1192.59 74.1422C1192.04 74.1422 1191.53 74.2489 1191.09 74.4622C1190.64 74.6755 1190.28 74.9475 1190 75.2782C1189.72 75.5982 1189.56 75.9342 1189.52 76.2862L1189.5 75.4702C1189.56 75.0969 1189.68 74.7342 1189.87 74.3822C1190.06 74.0302 1190.32 73.7102 1190.64 73.4222C1190.97 73.1235 1191.36 72.8889 1191.81 72.7182C1192.25 72.5475 1192.76 72.4622 1193.33 72.4622ZM1205.29 77.9502H1207.31C1207.22 78.4942 1206.99 78.9795 1206.62 79.4062C1206.26 79.8329 1205.76 80.1689 1205.13 80.4142C1204.5 80.6595 1203.74 80.7822 1202.83 80.7822C1201.82 80.7822 1200.92 80.6222 1200.14 80.3022C1199.36 79.9715 1198.75 79.4969 1198.32 78.8782C1197.88 78.2595 1197.66 77.5129 1197.66 76.6382C1197.66 75.7635 1197.87 75.0169 1198.3 74.3982C1198.73 73.7689 1199.32 73.2889 1200.08 72.9582C1200.84 72.6275 1201.74 72.4622 1202.76 72.4622C1203.81 72.4622 1204.68 72.6275 1205.37 72.9582C1206.07 73.2889 1206.58 73.7902 1206.91 74.4622C1207.25 75.1235 1207.39 75.9715 1207.34 77.0062H1199.76C1199.81 77.4115 1199.96 77.7795 1200.2 78.1102C1200.46 78.4409 1200.8 78.7022 1201.23 78.8942C1201.67 79.0862 1202.18 79.1822 1202.78 79.1822C1203.44 79.1822 1203.99 79.0702 1204.43 78.8462C1204.88 78.6115 1205.16 78.3129 1205.29 77.9502ZM1202.67 74.0462C1201.9 74.0462 1201.28 74.2169 1200.8 74.5582C1200.32 74.8889 1200.01 75.2995 1199.87 75.7902H1205.28C1205.22 75.2569 1204.97 74.8355 1204.51 74.5262C1204.06 74.2062 1203.45 74.0462 1202.67 74.0462ZM1208.29 72.6382H1210.37V80.5902H1208.29V72.6382ZM1213.42 74.3502C1212.83 74.3502 1212.31 74.4675 1211.87 74.7022C1211.43 74.9262 1211.08 75.2035 1210.82 75.5342C1210.55 75.8649 1210.36 76.1849 1210.26 76.4942L1210.24 75.6142C1210.25 75.4862 1210.29 75.2995 1210.37 75.0542C1210.44 74.7982 1210.55 74.5262 1210.7 74.2382C1210.85 73.9395 1211.05 73.6569 1211.3 73.3902C1211.54 73.1129 1211.84 72.8889 1212.19 72.7182C1212.54 72.5475 1212.95 72.4622 1213.42 72.4622V74.3502ZM1213.79 77.9502H1215.71C1215.83 78.3129 1216.07 78.6115 1216.43 78.8462C1216.8 79.0702 1217.29 79.1822 1217.89 79.1822C1218.29 79.1822 1218.61 79.1449 1218.83 79.0702C1219.05 78.9955 1219.21 78.8889 1219.29 78.7502C1219.38 78.6009 1219.42 78.4355 1219.42 78.2542C1219.42 78.0302 1219.35 77.8595 1219.21 77.7422C1219.08 77.6142 1218.86 77.5129 1218.57 77.4382C1218.29 77.3635 1217.92 77.2942 1217.47 77.2302C1217.02 77.1555 1216.59 77.0649 1216.17 76.9582C1215.76 76.8515 1215.39 76.7129 1215.07 76.5422C1214.75 76.3609 1214.49 76.1369 1214.3 75.8702C1214.12 75.5929 1214.03 75.2569 1214.03 74.8622C1214.03 74.4782 1214.12 74.1369 1214.3 73.8382C1214.49 73.5395 1214.76 73.2889 1215.09 73.0862C1215.43 72.8835 1215.82 72.7289 1216.27 72.6222C1216.73 72.5155 1217.22 72.4622 1217.74 72.4622C1218.53 72.4622 1219.19 72.5795 1219.71 72.8142C1220.23 73.0382 1220.62 73.3582 1220.88 73.7742C1221.14 74.1795 1221.28 74.6489 1221.28 75.1822H1219.44C1219.35 74.7875 1219.18 74.5049 1218.93 74.3342C1218.67 74.1529 1218.28 74.0622 1217.74 74.0622C1217.22 74.0622 1216.82 74.1422 1216.56 74.3022C1216.29 74.4622 1216.16 74.6809 1216.16 74.9582C1216.16 75.1822 1216.24 75.3582 1216.4 75.4862C1216.57 75.6035 1216.81 75.6995 1217.13 75.7742C1217.46 75.8489 1217.88 75.9289 1218.37 76.0142C1218.78 76.0995 1219.18 76.1955 1219.55 76.3022C1219.93 76.4089 1220.28 76.5475 1220.57 76.7182C1220.87 76.8782 1221.11 77.0969 1221.28 77.3742C1221.46 77.6409 1221.55 77.9822 1221.55 78.3982C1221.55 78.9102 1221.4 79.3422 1221.1 79.6942C1220.81 80.0462 1220.4 80.3182 1219.85 80.5102C1219.31 80.6915 1218.66 80.7822 1217.9 80.7822C1217.23 80.7822 1216.65 80.7129 1216.16 80.5742C1215.68 80.4249 1215.28 80.2382 1214.96 80.0142C1214.64 79.7795 1214.39 79.5342 1214.21 79.2782C1214.04 79.0115 1213.92 78.7609 1213.85 78.5262C1213.79 78.2915 1213.77 78.0995 1213.79 77.9502Z" fill="black"/>
<rect x="956" y="39.59" width="44" height="44" rx="7" fill="#C7C644" fill-opacity="0.28"/>
<path d="M991.972 72.5897H990.006V58.5878C990.006 58.0573 989.795 57.5485 989.42 57.1734C989.045 56.7983 988.536 56.5875 988.006 56.5875H982.505C982.372 56.5875 982.245 56.6402 982.151 56.734C982.057 56.8278 982.005 56.955 982.005 57.0876V72.5897H980.004V50.638C980.008 50.3264 979.94 50.0182 979.807 49.7366C979.673 49.455 979.478 49.2075 979.234 49.0128C978.903 48.7543 978.498 48.6068 978.078 48.5913C977.658 48.5758 977.244 48.6931 976.894 48.9265L966.893 55.5874C966.618 55.7704 966.394 56.0185 966.238 56.3095C966.083 56.6004 966.002 56.9253 966.003 57.2551V72.5897H964.036C963.778 72.5859 963.527 72.6801 963.336 72.8533C963.144 73.0266 963.025 73.2661 963.002 73.5236C962.993 73.6604 963.012 73.7976 963.058 73.9267C963.105 74.0558 963.177 74.174 963.271 74.274C963.364 74.374 963.478 74.4537 963.604 74.508C963.73 74.5624 963.865 74.5903 964.002 74.59H992.006C992.143 74.5903 992.279 74.5624 992.405 74.508C992.531 74.4537 992.644 74.374 992.738 74.274C992.832 74.174 992.904 74.0558 992.95 73.9267C992.996 73.7976 993.015 73.6604 993.006 73.5236C992.984 73.2661 992.865 73.0266 992.673 72.8533C992.481 72.6801 992.231 72.5859 991.972 72.5897ZM971.503 69.5893C971.504 69.7264 971.476 69.8621 971.421 69.988C971.367 70.1138 971.287 70.2272 971.187 70.321C971.087 70.4148 970.969 70.487 970.84 70.5332C970.711 70.5794 970.574 70.5985 970.437 70.5894C970.179 70.567 969.94 70.4477 969.766 70.2556C969.593 70.0636 969.499 69.8129 969.503 69.5543V67.6228C969.5 67.3644 969.594 67.1142 969.767 66.9225C969.94 66.7307 970.18 66.6116 970.437 66.5889C970.574 66.5798 970.711 66.5989 970.84 66.6451C970.969 66.6913 971.087 66.7635 971.187 66.8573C971.287 66.9511 971.367 67.0645 971.421 67.1903C971.476 67.3162 971.504 67.4519 971.503 67.589V69.5893ZM971.503 62.5883C971.504 62.7254 971.476 62.8611 971.421 62.987C971.367 63.1129 971.287 63.2262 971.187 63.32C971.087 63.4138 970.969 63.4861 970.84 63.5322C970.711 63.5784 970.574 63.5976 970.437 63.5885C970.179 63.5658 969.94 63.4464 969.767 63.2544C969.593 63.0624 969.499 62.8119 969.503 62.5533V60.6218C969.5 60.3635 969.594 60.1133 969.767 59.9215C969.94 59.7298 970.18 59.6106 970.437 59.5879C970.574 59.5788 970.711 59.598 970.84 59.6442C970.969 59.6903 971.087 59.7626 971.187 59.8564C971.287 59.9502 971.367 60.0635 971.421 60.1894C971.476 60.3153 971.504 60.451 971.503 60.5881V62.5883ZM976.504 69.5893C976.504 69.7264 976.476 69.8621 976.422 69.988C976.368 70.1138 976.288 70.2272 976.188 70.321C976.088 70.4148 975.97 70.487 975.841 70.5332C975.712 70.5794 975.574 70.5985 975.438 70.5894C975.18 70.567 974.941 70.4481 974.768 70.2566C974.595 70.065 974.5 69.815 974.504 69.5568V67.6228C974.501 67.3646 974.595 67.1148 974.768 66.9233C974.941 66.7318 975.18 66.6128 975.438 66.5901C975.574 66.581 975.712 66.6002 975.841 66.6464C975.97 66.6925 976.088 66.7648 976.188 66.8586C976.288 66.9524 976.368 67.0657 976.422 67.1916C976.476 67.3175 976.504 67.4532 976.504 67.5903V69.5893ZM976.504 62.5883C976.504 62.7254 976.476 62.8611 976.422 62.987C976.368 63.1129 976.288 63.2262 976.188 63.32C976.088 63.4138 975.97 63.4861 975.841 63.5322C975.712 63.5784 975.574 63.5976 975.438 63.5885C975.18 63.5658 974.941 63.4468 974.768 63.2553C974.595 63.0638 974.501 62.814 974.504 62.5558V60.6218C974.501 60.3637 974.595 60.1138 974.768 59.9223C974.941 59.7309 975.18 59.6119 975.438 59.5892C975.574 59.5801 975.712 59.5992 975.841 59.6454C975.97 59.6916 976.088 59.7638 976.188 59.8576C976.288 59.9514 976.368 60.0648 976.422 60.1906C976.476 60.3165 976.504 60.4522 976.504 60.5893V62.5883Z" fill="#C7C644"/>
<defs>
<linearGradient id="paint0_linear_0_1" x1="561.5" y1="0.589966" x2="568.5" y2="116.59" gradientUnits="userSpaceOnUse">
<stop stop-color="#FFFEAF"/>
<stop offset="1" stop-color="#F0ED00"/>
</linearGradient>
</defs>
</svg>
