<svg xmlns="http://www.w3.org/2000/svg" xmlns:xlink="http://www.w3.org/1999/xlink" width="500" zoomAndPan="magnify" viewBox="0 0 375 374.999991" height="500" preserveAspectRatio="xMidYMid meet" version="1.0"><defs><g/><clipPath id="60dffc52da"><path d="M 234.648438 179.0625 L 250.734375 179.0625 L 250.734375 204.660156 L 234.648438 204.660156 Z M 234.648438 179.0625 " clip-rule="nonzero"/></clipPath><clipPath id="ae43891550"><path d="M 237 177 L 247 177 L 247 206 L 237 206 Z M 237 177 " clip-rule="nonzero"/></clipPath><clipPath id="eeac06dd7f"><path d="M 232.355469 181.761719 L 244.421875 177.636719 L 252.671875 201.761719 L 240.609375 205.890625 Z M 232.355469 181.761719 " clip-rule="nonzero"/></clipPath><clipPath id="82c58662f7"><path d="M 232.355469 181.761719 L 244.421875 177.636719 L 252.671875 201.761719 L 240.609375 205.890625 Z M 232.355469 181.761719 " clip-rule="nonzero"/></clipPath><clipPath id="6b21d5e826"><path d="M 237 179 L 242 179 L 242 206 L 237 206 Z M 237 179 " clip-rule="nonzero"/></clipPath><clipPath id="3c1c3c8d44"><path d="M 232.355469 181.761719 L 244.421875 177.636719 L 252.671875 201.761719 L 240.609375 205.890625 Z M 232.355469 181.761719 " clip-rule="nonzero"/></clipPath><clipPath id="09f3503bf9"><path d="M 232.355469 181.761719 L 244.421875 177.636719 L 252.671875 201.761719 L 240.609375 205.890625 Z M 232.355469 181.761719 " clip-rule="nonzero"/></clipPath></defs><g fill="#000000" fill-opacity="1"><g transform="translate(92.471469, 204.223405)"><g><path d="M 26.25 -8.875 L 7.734375 -8.875 L 3.75 0 L 0.09375 0 L 15.28125 -33.234375 L 18.75 -33.234375 L 33.9375 0 L 30.234375 0 Z M 24.96875 -11.71875 L 17 -29.578125 L 9.015625 -11.71875 Z M 24.96875 -11.71875 "/></g></g></g><g fill="#000000" fill-opacity="1"><g transform="translate(126.500989, 204.223405)"><g><path d="M 4.703125 -35.21875 L 8.0625 -35.21875 L 8.0625 0 L 4.703125 0 Z M 4.703125 -35.21875 "/></g></g></g><g fill="#000000" fill-opacity="1"><g transform="translate(139.267994, 204.223405)"><g><path d="M 17.84375 -1.515625 C 17.21875 -0.953125 16.4375 -0.519531 15.5 -0.21875 C 14.5625 0.0820312 13.585938 0.234375 12.578125 0.234375 C 10.234375 0.234375 8.425781 -0.394531 7.15625 -1.65625 C 5.894531 -2.925781 5.265625 -4.71875 5.265625 -7.03125 L 5.265625 -22.125 L 0.8125 -22.125 L 0.8125 -24.96875 L 5.265625 -24.96875 L 5.265625 -30.421875 L 8.640625 -30.421875 L 8.640625 -24.96875 L 16.234375 -24.96875 L 16.234375 -22.125 L 8.640625 -22.125 L 8.640625 -7.21875 C 8.640625 -5.726562 9.007812 -4.59375 9.75 -3.8125 C 10.5 -3.039062 11.566406 -2.65625 12.953125 -2.65625 C 13.648438 -2.65625 14.320312 -2.765625 14.96875 -2.984375 C 15.625 -3.210938 16.1875 -3.53125 16.65625 -3.9375 Z M 17.84375 -1.515625 "/></g></g></g><g fill="#000000" fill-opacity="1"><g transform="translate(158.541777, 204.223405)"><g><path d="M 15 0.671875 C 12.3125 0.671875 9.703125 0.335938 7.171875 -0.328125 C 4.640625 -0.992188 2.582031 -1.878906 1 -2.984375 L 4.078125 -9.921875 C 5.566406 -8.941406 7.289062 -8.148438 9.25 -7.546875 C 11.21875 -6.941406 13.148438 -6.640625 15.046875 -6.640625 C 18.648438 -6.640625 20.453125 -7.539062 20.453125 -9.34375 C 20.453125 -10.300781 19.9375 -11.007812 18.90625 -11.46875 C 17.882812 -11.925781 16.234375 -12.40625 13.953125 -12.90625 C 11.453125 -13.445312 9.363281 -14.023438 7.6875 -14.640625 C 6.007812 -15.253906 4.566406 -16.242188 3.359375 -17.609375 C 2.160156 -18.972656 1.5625 -20.8125 1.5625 -23.125 C 1.5625 -25.144531 2.113281 -26.96875 3.21875 -28.59375 C 4.332031 -30.226562 5.988281 -31.519531 8.1875 -32.46875 C 10.382812 -33.414062 13.082031 -33.890625 16.28125 -33.890625 C 18.46875 -33.890625 20.617188 -33.644531 22.734375 -33.15625 C 24.859375 -32.664062 26.726562 -31.945312 28.34375 -31 L 25.4375 -24.015625 C 22.28125 -25.722656 19.210938 -26.578125 16.234375 -26.578125 C 14.367188 -26.578125 13.007812 -26.300781 12.15625 -25.75 C 11.300781 -25.195312 10.875 -24.476562 10.875 -23.59375 C 10.875 -22.707031 11.378906 -22.039062 12.390625 -21.59375 C 13.398438 -21.15625 15.03125 -20.695312 17.28125 -20.21875 C 19.8125 -19.6875 21.90625 -19.109375 23.5625 -18.484375 C 25.226562 -17.867188 26.671875 -16.890625 27.890625 -15.546875 C 29.109375 -14.203125 29.71875 -12.375 29.71875 -10.0625 C 29.71875 -8.070312 29.160156 -6.269531 28.046875 -4.65625 C 26.941406 -3.039062 25.28125 -1.75 23.0625 -0.78125 C 20.851562 0.1875 18.164062 0.671875 15 0.671875 Z M 15 0.671875 "/></g></g></g><g fill="#000000" fill-opacity="1"><g transform="translate(189.24902, 204.223405)"><g><path d="M 20.65625 -1.046875 C 19.894531 -0.566406 18.96875 -0.203125 17.875 0.046875 C 16.78125 0.296875 15.617188 0.421875 14.390625 0.421875 C 11.023438 0.421875 8.441406 -0.398438 6.640625 -2.046875 C 4.835938 -3.691406 3.9375 -6.144531 3.9375 -9.40625 L 3.9375 -18.03125 L 0.1875 -18.03125 L 0.1875 -24.78125 L 3.9375 -24.78125 L 3.9375 -31.46875 L 12.953125 -31.46875 L 12.953125 -24.78125 L 18.84375 -24.78125 L 18.84375 -18.03125 L 12.953125 -18.03125 L 12.953125 -9.5 C 12.953125 -8.570312 13.195312 -7.847656 13.6875 -7.328125 C 14.1875 -6.804688 14.847656 -6.546875 15.671875 -6.546875 C 16.710938 -6.546875 17.628906 -6.816406 18.421875 -7.359375 Z M 20.65625 -1.046875 "/></g></g></g><g fill="#000000" fill-opacity="1"><g transform="translate(210.464076, 204.223405)"><g><path d="M 13.859375 -26.15625 C 18.128906 -26.15625 21.390625 -25.179688 23.640625 -23.234375 C 25.890625 -21.285156 27.015625 -18.300781 27.015625 -14.28125 L 27.015625 0 L 18.609375 0 L 18.609375 -3.328125 C 17.304688 -0.828125 14.773438 0.421875 11.015625 0.421875 C 9.015625 0.421875 7.285156 0.078125 5.828125 -0.609375 C 4.378906 -1.304688 3.28125 -2.25 2.53125 -3.4375 C 1.789062 -4.625 1.421875 -5.976562 1.421875 -7.5 C 1.421875 -9.9375 2.351562 -11.828125 4.21875 -13.171875 C 6.09375 -14.515625 8.972656 -15.1875 12.859375 -15.1875 L 17.984375 -15.1875 C 17.828125 -17.90625 16.007812 -19.265625 12.53125 -19.265625 C 11.300781 -19.265625 10.050781 -19.066406 8.78125 -18.671875 C 7.519531 -18.273438 6.441406 -17.734375 5.546875 -17.046875 L 2.515625 -23.171875 C 3.941406 -24.117188 5.675781 -24.851562 7.71875 -25.375 C 9.757812 -25.894531 11.804688 -26.15625 13.859375 -26.15625 Z M 13.53125 -5.265625 C 14.570312 -5.265625 15.488281 -5.515625 16.28125 -6.015625 C 17.070312 -6.523438 17.640625 -7.273438 17.984375 -8.265625 L 17.984375 -10.484375 L 14.09375 -10.484375 C 11.46875 -10.484375 10.15625 -9.613281 10.15625 -7.875 C 10.15625 -7.082031 10.457031 -6.445312 11.0625 -5.96875 C 11.664062 -5.5 12.488281 -5.265625 13.53125 -5.265625 Z M 13.53125 -5.265625 "/></g></g></g><g fill="#000000" fill-opacity="1"><g transform="translate(240.26957, 204.223405)"><g><path d="M 11.484375 -22.640625 C 12.398438 -23.816406 13.59375 -24.695312 15.0625 -25.28125 C 16.539062 -25.863281 18.226562 -26.15625 20.125 -26.15625 L 20.125 -18.03125 C 19.300781 -18.132812 18.617188 -18.1875 18.078125 -18.1875 C 16.148438 -18.1875 14.640625 -17.660156 13.546875 -16.609375 C 12.460938 -15.566406 11.921875 -13.96875 11.921875 -11.8125 L 11.921875 0 L 2.890625 0 L 2.890625 -25.734375 L 11.484375 -25.734375 Z M 11.484375 -22.640625 "/></g></g></g><g fill="#000000" fill-opacity="1"><g transform="translate(261.29478, 204.223405)"><g><path d="M 20.65625 -1.046875 C 19.894531 -0.566406 18.96875 -0.203125 17.875 0.046875 C 16.78125 0.296875 15.617188 0.421875 14.390625 0.421875 C 11.023438 0.421875 8.441406 -0.398438 6.640625 -2.046875 C 4.835938 -3.691406 3.9375 -6.144531 3.9375 -9.40625 L 3.9375 -18.03125 L 0.1875 -18.03125 L 0.1875 -24.78125 L 3.9375 -24.78125 L 3.9375 -31.46875 L 12.953125 -31.46875 L 12.953125 -24.78125 L 18.84375 -24.78125 L 18.84375 -18.03125 L 12.953125 -18.03125 L 12.953125 -9.5 C 12.953125 -8.570312 13.195312 -7.847656 13.6875 -7.328125 C 14.1875 -6.804688 14.847656 -6.546875 15.671875 -6.546875 C 16.710938 -6.546875 17.628906 -6.816406 18.421875 -7.359375 Z M 20.65625 -1.046875 "/></g></g></g><g clip-path="url(#60dffc52da)"><path fill="#000000" d="M 234.648438 179.0625 L 250.734375 179.0625 L 250.734375 204.640625 L 234.648438 204.640625 Z M 234.648438 179.0625 " fill-opacity="1" fill-rule="nonzero"/></g><g clip-path="url(#ae43891550)"><g clip-path="url(#eeac06dd7f)"><g clip-path="url(#82c58662f7)"><path fill="#ffffff" d="M 238.363281 179.707031 L 244.476562 177.617188 L 242.4375 187.488281 L 246.023438 186.261719 L 240.503906 205.578125 L 241.214844 191.816406 L 237.378906 193.34375 Z M 238.363281 179.707031 " fill-opacity="1" fill-rule="nonzero"/></g></g></g><g clip-path="url(#6b21d5e826)"><g clip-path="url(#3c1c3c8d44)"><g clip-path="url(#09f3503bf9)"><path fill="#ffffff" d="M 238.363281 179.707031 L 239.417969 179.347656 L 237.378906 193.34375 Z M 240.503906 205.578125 L 241.949219 191.566406 L 241.214844 191.816406 Z M 240.503906 205.578125 " fill-opacity="1" fill-rule="nonzero"/></g></g></g></svg>