<svg width="172" height="41" viewBox="0 0 172 41" fill="none" xmlns="http://www.w3.org/2000/svg">
<path d="M157.17 11.945L162.373 11.085V17.879H170.371V22.222H162.373V31.381C162.373 33.187 162.66 34.477 163.233 35.251C163.807 36.025 164.781 36.412 166.157 36.412C167.103 36.412 167.935 36.3117 168.651 36.111C169.397 35.9103 169.984 35.724 170.414 35.552L171.274 39.68C170.672 39.938 169.884 40.196 168.909 40.454C167.935 40.7407 166.788 40.884 165.469 40.884C163.864 40.884 162.517 40.669 161.427 40.239C160.367 39.809 159.521 39.1927 158.89 38.39C158.26 37.5587 157.815 36.5697 157.557 35.423C157.299 34.2477 157.17 32.9147 157.17 31.424V11.945Z" fill="black"/>
<path d="M152.9 22.566C152.47 22.4227 151.868 22.2793 151.094 22.136C150.348 21.964 149.474 21.878 148.471 21.878C147.897 21.878 147.281 21.9353 146.622 22.05C145.991 22.1647 145.547 22.265 145.289 22.351V40.368H140.086V18.954C141.089 18.5813 142.336 18.2373 143.827 17.922C145.346 17.578 147.023 17.406 148.858 17.406C149.202 17.406 149.603 17.4347 150.062 17.492C150.52 17.5207 150.979 17.578 151.438 17.664C151.896 17.7213 152.341 17.8073 152.771 17.922C153.201 18.008 153.545 18.094 153.803 18.18L152.9 22.566Z" fill="black"/>
<path d="M125.028 36.713C126.633 36.713 127.852 36.627 128.683 36.455V30.693C128.396 30.607 127.981 30.521 127.436 30.435C126.891 30.349 126.289 30.306 125.63 30.306C125.057 30.306 124.469 30.349 123.867 30.435C123.294 30.521 122.763 30.6787 122.276 30.908C121.817 31.1373 121.445 31.467 121.158 31.897C120.871 32.2983 120.728 32.8143 120.728 33.445C120.728 34.6777 121.115 35.5377 121.889 36.025C122.663 36.4837 123.709 36.713 125.028 36.713ZM124.598 17.32C126.318 17.32 127.766 17.535 128.941 17.965C130.116 18.395 131.048 18.997 131.736 19.771C132.453 20.545 132.954 21.491 133.241 22.609C133.556 23.6983 133.714 24.9023 133.714 26.221V39.852C132.911 40.024 131.693 40.2247 130.059 40.454C128.454 40.712 126.633 40.841 124.598 40.841C123.251 40.841 122.018 40.712 120.9 40.454C119.782 40.196 118.822 39.7803 118.019 39.207C117.245 38.6337 116.629 37.8883 116.17 36.971C115.74 36.0537 115.525 34.9213 115.525 33.574C115.525 32.284 115.769 31.1947 116.256 30.306C116.772 29.4173 117.46 28.7007 118.32 28.156C119.18 27.5827 120.169 27.1813 121.287 26.952C122.434 26.694 123.623 26.565 124.856 26.565C125.429 26.565 126.031 26.608 126.662 26.694C127.293 26.7513 127.966 26.866 128.683 27.038V26.178C128.683 25.576 128.611 25.0027 128.468 24.458C128.325 23.9133 128.067 23.4403 127.694 23.039C127.35 22.609 126.877 22.2793 126.275 22.05C125.702 21.8207 124.971 21.706 124.082 21.706C122.878 21.706 121.774 21.792 120.771 21.964C119.768 22.136 118.951 22.3367 118.32 22.566L117.675 18.352C118.334 18.1227 119.295 17.8933 120.556 17.664C121.817 17.4347 123.165 17.32 124.598 17.32Z" fill="black"/>
<path d="M98.8853 11.945L104.088 11.085V17.879H112.086V22.222H104.088V31.381C104.088 33.187 104.375 34.477 104.948 35.251C105.522 36.025 106.496 36.412 107.872 36.412C108.818 36.412 109.65 36.3117 110.366 36.111C111.112 35.9103 111.699 35.724 112.129 35.552L112.989 39.68C112.387 39.938 111.599 40.196 110.624 40.454C109.65 40.7407 108.503 40.884 107.184 40.884C105.579 40.884 104.232 40.669 103.142 40.239C102.082 39.809 101.236 39.1927 100.605 38.39C99.9746 37.5587 99.5303 36.5697 99.2723 35.423C99.0143 34.2477 98.8853 32.9147 98.8853 31.424V11.945Z" fill="black"/>
<path d="M85.124 36.627C86.5 36.627 87.5033 36.4693 88.134 36.154C88.7646 35.81 89.08 35.2367 89.08 34.434C89.08 33.6887 88.736 33.0723 88.048 32.585C87.3886 32.0977 86.285 31.5673 84.737 30.994C83.791 30.65 82.9166 30.2917 82.114 29.919C81.34 29.5177 80.6663 29.059 80.093 28.543C79.5196 28.027 79.061 27.4107 78.717 26.694C78.4016 25.9487 78.244 25.0457 78.244 23.985C78.244 21.921 79.0036 20.3013 80.523 19.126C82.0423 17.922 84.1063 17.32 86.715 17.32C88.0336 17.32 89.295 17.449 90.499 17.707C91.703 17.9363 92.606 18.1657 93.208 18.395L92.262 22.609C91.6886 22.351 90.9576 22.1217 90.069 21.921C89.1803 21.6917 88.1483 21.577 86.973 21.577C85.9123 21.577 85.0523 21.7633 84.393 22.136C83.7336 22.48 83.404 23.0247 83.404 23.77C83.404 24.1427 83.4613 24.4723 83.576 24.759C83.7193 25.0457 83.9486 25.318 84.264 25.576C84.5793 25.8053 84.995 26.049 85.511 26.307C86.027 26.5363 86.6576 26.78 87.403 27.038C88.6356 27.4967 89.682 27.9553 90.542 28.414C91.402 28.844 92.1043 29.3457 92.649 29.919C93.2223 30.4637 93.638 31.0943 93.896 31.811C94.154 32.5277 94.283 33.3877 94.283 34.391C94.283 36.541 93.4803 38.175 91.875 39.293C90.2983 40.3823 88.0336 40.927 85.081 40.927C83.103 40.927 81.512 40.755 80.308 40.411C79.104 40.0957 78.2583 39.8377 77.771 39.637L78.674 35.294C79.448 35.6093 80.3653 35.9103 81.426 36.197C82.5153 36.4837 83.748 36.627 85.124 36.627Z" fill="black"/>
<path d="M61.2603 11.945L66.4633 11.085V17.879H74.4613V22.222H66.4633V31.381C66.4633 33.187 66.75 34.477 67.3233 35.251C67.8966 36.025 68.8713 36.412 70.2473 36.412C71.1933 36.412 72.0246 36.3117 72.7413 36.111C73.4866 35.9103 74.0743 35.724 74.5043 35.552L75.3643 39.68C74.7623 39.938 73.974 40.196 72.9993 40.454C72.0246 40.7407 70.878 40.884 69.5593 40.884C67.954 40.884 66.6066 40.669 65.5173 40.239C64.4566 39.809 63.611 39.1927 62.9803 38.39C62.3496 37.5587 61.9053 36.5697 61.6473 35.423C61.3893 34.2477 61.2603 32.9147 61.2603 31.424V11.945Z" fill="black"/>
<path d="M56.5787 40.798C55.0307 40.7693 53.7407 40.5973 52.7087 40.282C51.7054 39.9667 50.9027 39.5223 50.3007 38.949C49.6987 38.347 49.2687 37.616 49.0107 36.756C48.7814 35.8673 48.6667 34.864 48.6667 33.746V7.86L53.8697 7V32.757C53.8697 33.3877 53.9127 33.918 53.9987 34.348C54.1134 34.778 54.2997 35.1507 54.5577 35.466C54.8157 35.7527 55.1597 35.982 55.5897 36.154C56.0484 36.2973 56.6217 36.412 57.3097 36.498L56.5787 40.798Z" fill="black"/>
<path d="M6.66549 24.5H14L8.52657 39.5029C8.2256 40.2677 7.48738 40.7705 6.66549 40.7705H1.00117C0.272247 40.7705 -0.211762 40.0157 0.0923751 39.3533L6.66549 24.5Z" fill="url(#paint0_linear_1_1147)"/>
<path d="M37 24.5H29.5L35.3568 39.5029C35.6578 40.2677 36.396 40.7705 37.2179 40.7705H42.8822C43.6111 40.7705 44.0952 40.0157 43.791 39.3533L37 24.5Z" fill="url(#paint1_linear_1_1147)"/>
<path d="M18.7001 2.0406C20.2365 -0.693794 24.179 -0.67664 25.6915 2.07102L35 19H28L23.1222 8.36234C22.7768 7.56614 21.6506 7.55776 21.2934 8.34873L15.5 19.5H8.5L18.7001 2.0406Z" fill="#C5C443"/>
<defs>
<linearGradient id="paint0_linear_1_1147" x1="5.57458" y1="31.4199" x2="5.57458" y2="40.7705" gradientUnits="userSpaceOnUse">
<stop stop-color="#C5C443"/>
<stop offset="1" stop-color="#868515"/>
</linearGradient>
<linearGradient id="paint1_linear_1_1147" x1="38.3088" y1="31.4199" x2="38.3088" y2="40.7705" gradientUnits="userSpaceOnUse">
<stop stop-color="#C5C443"/>
<stop offset="1" stop-color="#868515"/>
</linearGradient>
</defs>
</svg>
