<svg width="172" height="44" viewBox="0 0 172 44" fill="none"
    xmlns="http://www.w3.org/2000/svg">
    <path d="M157.17 14.9374L162.373 14.0774V20.8714H170.371V25.2144H162.373V34.3734C162.373 36.1794 162.66 37.4694 163.233 38.2434C163.807 39.0174 164.781 39.4044 166.157 39.4044C167.103 39.4044 167.935 39.3041 168.651 39.1034C169.397 38.9027 169.984 38.7164 170.414 38.5444L171.274 42.6724C170.672 42.9304 169.884 43.1884 168.909 43.4464C167.935 43.7331 166.788 43.8764 165.469 43.8764C163.864 43.8764 162.517 43.6614 161.427 43.2314C160.367 42.8014 159.521 42.1851 158.89 41.3824C158.26 40.5511 157.815 39.5621 157.557 38.4154C157.299 37.2401 157.17 35.9071 157.17 34.4164V14.9374Z" fill="white"/>
    <path d="M152.9 25.5584C152.47 25.4151 151.868 25.2718 151.094 25.1284C150.348 24.9564 149.474 24.8704 148.471 24.8704C147.897 24.8704 147.281 24.9278 146.622 25.0424C145.991 25.1571 145.547 25.2574 145.289 25.3434V43.3604H140.086V21.9464C141.089 21.5738 142.336 21.2298 143.827 20.9144C145.346 20.5704 147.023 20.3984 148.858 20.3984C149.202 20.3984 149.603 20.4271 150.062 20.4844C150.52 20.5131 150.979 20.5704 151.438 20.6564C151.896 20.7138 152.341 20.7998 152.771 20.9144C153.201 21.0004 153.545 21.0864 153.803 21.1724L152.9 25.5584Z" fill="white"/>
    <path d="M125.028 39.7055C126.633 39.7055 127.852 39.6195 128.683 39.4475V33.6855C128.396 33.5995 127.981 33.5135 127.436 33.4275C126.891 33.3415 126.289 33.2985 125.63 33.2985C125.057 33.2985 124.469 33.3415 123.867 33.4275C123.294 33.5135 122.763 33.6712 122.276 33.9005C121.817 34.1298 121.445 34.4595 121.158 34.8895C120.871 35.2908 120.728 35.8068 120.728 36.4375C120.728 37.6702 121.115 38.5302 121.889 39.0175C122.663 39.4762 123.709 39.7055 125.028 39.7055ZM124.598 20.3125C126.318 20.3125 127.766 20.5275 128.941 20.9575C130.116 21.3875 131.048 21.9895 131.736 22.7635C132.453 23.5375 132.954 24.4835 133.241 25.6015C133.556 26.6908 133.714 27.8948 133.714 29.2135V42.8445C132.911 43.0165 131.693 43.2172 130.059 43.4465C128.454 43.7045 126.633 43.8335 124.598 43.8335C123.251 43.8335 122.018 43.7045 120.9 43.4465C119.782 43.1885 118.822 42.7728 118.019 42.1995C117.245 41.6262 116.629 40.8808 116.17 39.9635C115.74 39.0462 115.525 37.9138 115.525 36.5665C115.525 35.2765 115.769 34.1872 116.256 33.2985C116.772 32.4098 117.46 31.6932 118.32 31.1485C119.18 30.5752 120.169 30.1738 121.287 29.9445C122.434 29.6865 123.623 29.5575 124.856 29.5575C125.429 29.5575 126.031 29.6005 126.662 29.6865C127.293 29.7438 127.966 29.8585 128.683 30.0305V29.1705C128.683 28.5685 128.611 27.9952 128.468 27.4505C128.325 26.9058 128.067 26.4328 127.694 26.0315C127.35 25.6015 126.877 25.2718 126.275 25.0425C125.702 24.8132 124.971 24.6985 124.082 24.6985C122.878 24.6985 121.774 24.7845 120.771 24.9565C119.768 25.1285 118.951 25.3292 118.32 25.5585L117.675 21.3445C118.334 21.1152 119.295 20.8858 120.556 20.6565C121.817 20.4272 123.165 20.3125 124.598 20.3125Z" fill="white"/>
    <path d="M98.8853 14.9374L104.088 14.0774V20.8714H112.086V25.2144H104.088V34.3734C104.088 36.1794 104.375 37.4694 104.948 38.2434C105.522 39.0174 106.496 39.4044 107.872 39.4044C108.818 39.4044 109.65 39.3041 110.366 39.1034C111.112 38.9027 111.699 38.7164 112.129 38.5444L112.989 42.6724C112.387 42.9304 111.599 43.1884 110.624 43.4464C109.65 43.7331 108.503 43.8764 107.184 43.8764C105.579 43.8764 104.232 43.6614 103.142 43.2314C102.082 42.8014 101.236 42.1851 100.605 41.3824C99.9746 40.5511 99.5303 39.5621 99.2723 38.4154C99.0143 37.2401 98.8853 35.9071 98.8853 34.4164V14.9374Z" fill="white"/>
    <path d="M85.124 39.6195C86.5 39.6195 87.5033 39.4618 88.134 39.1465C88.7646 38.8025 89.08 38.2292 89.08 37.4265C89.08 36.6812 88.736 36.0648 88.048 35.5775C87.3886 35.0902 86.285 34.5598 84.737 33.9865C83.791 33.6425 82.9166 33.2842 82.114 32.9115C81.34 32.5102 80.6663 32.0515 80.093 31.5355C79.5196 31.0195 79.061 30.4032 78.717 29.6865C78.4016 28.9412 78.244 28.0382 78.244 26.9775C78.244 24.9135 79.0036 23.2938 80.523 22.1185C82.0423 20.9145 84.1063 20.3125 86.715 20.3125C88.0336 20.3125 89.295 20.4415 90.499 20.6995C91.703 20.9288 92.606 21.1582 93.208 21.3875L92.262 25.6015C91.6886 25.3435 90.9576 25.1142 90.069 24.9135C89.1803 24.6842 88.1483 24.5695 86.973 24.5695C85.9123 24.5695 85.0523 24.7558 84.393 25.1285C83.7336 25.4725 83.404 26.0172 83.404 26.7625C83.404 27.1352 83.4613 27.4648 83.576 27.7515C83.7193 28.0382 83.9486 28.3105 84.264 28.5685C84.5793 28.7978 84.995 29.0415 85.511 29.2995C86.027 29.5288 86.6576 29.7725 87.403 30.0305C88.6356 30.4892 89.682 30.9478 90.542 31.4065C91.402 31.8365 92.1043 32.3382 92.649 32.9115C93.2223 33.4562 93.638 34.0868 93.896 34.8035C94.154 35.5202 94.283 36.3802 94.283 37.3835C94.283 39.5335 93.4803 41.1675 91.875 42.2855C90.2983 43.3748 88.0336 43.9195 85.081 43.9195C83.103 43.9195 81.512 43.7475 80.308 43.4035C79.104 43.0882 78.2583 42.8302 77.771 42.6295L78.674 38.2865C79.448 38.6018 80.3653 38.9028 81.426 39.1895C82.5153 39.4762 83.748 39.6195 85.124 39.6195Z" fill="white"/>
    <path d="M61.2603 14.9374L66.4633 14.0774V20.8714H74.4613V25.2144H66.4633V34.3734C66.4633 36.1794 66.75 37.4694 67.3233 38.2434C67.8966 39.0174 68.8713 39.4044 70.2473 39.4044C71.1933 39.4044 72.0246 39.3041 72.7413 39.1034C73.4866 38.9027 74.0743 38.7164 74.5043 38.5444L75.3643 42.6724C74.7623 42.9304 73.974 43.1884 72.9993 43.4464C72.0246 43.7331 70.878 43.8764 69.5593 43.8764C67.954 43.8764 66.6066 43.6614 65.5173 43.2314C64.4566 42.8014 63.611 42.1851 62.9803 41.3824C62.3496 40.5511 61.9053 39.5621 61.6473 38.4154C61.3893 37.2401 61.2603 35.9071 61.2603 34.4164V14.9374Z" fill="white"/>
    <path d="M56.5787 43.7904C55.0307 43.7618 53.7407 43.5898 52.7087 43.2744C51.7054 42.9591 50.9027 42.5148 50.3007 41.9414C49.6987 41.3394 49.2687 40.6084 49.0107 39.7484C48.7814 38.8598 48.6667 37.8564 48.6667 36.7384V10.8524L53.8697 9.99243V35.7494C53.8697 36.3801 53.9127 36.9104 53.9987 37.3404C54.1134 37.7704 54.2997 38.1431 54.5577 38.4584C54.8157 38.7451 55.1597 38.9744 55.5897 39.1464C56.0484 39.2898 56.6217 39.4044 57.3097 39.4904L56.5787 43.7904Z" fill="white"/>
    <path d="M3.73472 32.0098H11.7075L8.52657 40.0928C8.2256 40.8576 7.48738 41.3604 6.66549 41.3604H1.00117C0.272247 41.3604 -0.211762 40.6056 0.0923751 39.9432L3.73472 32.0098Z" fill="url(#paint0_linear_1_1312)"/>
    <path d="M40.1487 32.0098H32.1759L35.3568 40.0928C35.6578 40.8576 36.396 41.3604 37.2179 41.3604H42.8822C43.6111 41.3604 44.0952 40.6056 43.791 39.9432L40.1487 32.0098Z" fill="url(#paint1_linear_1_1312)"/>
    <path d="M18.7001 2.63044C20.2365 -0.103951 24.1789 -0.0867958 25.6915 2.66086L38.3088 25.5812H30.3361L23.1222 8.95218C22.7768 8.15598 21.6506 8.1476 21.2934 8.93857L13.7773 25.5812H5.80457L18.7001 2.63044Z" fill="#C5C443"/>
    <defs>
        <linearGradient id="paint0_linear_1_1312" x1="5.57458" y1="32.0098" x2="5.57458" y2="41.3604" gradientUnits="userSpaceOnUse">
            <stop stop-color="#C5C443"/>
            <stop offset="1" stop-color="#868515"/>
        </linearGradient>
        <linearGradient id="paint1_linear_1_1312" x1="38.3088" y1="32.0098" x2="38.3088" y2="41.3604" gradientUnits="userSpaceOnUse">
            <stop stop-color="#C5C443"/>
            <stop offset="1" stop-color="#868515"/>
        </linearGradient>
    </defs>
</svg>
