<svg width="40" height="41" viewBox="0 0 40 41" fill="none" xmlns="http://www.w3.org/2000/svg">
<path fill-rule="evenodd" clip-rule="evenodd" d="M5.77413 34.8158C8.21489 37.2567 12.1433 37.2567 20 37.2567C27.8567 37.2567 31.7852 37.2567 34.2258 34.8158C36.6667 32.3752 36.6667 28.4467 36.6667 20.59C36.6667 12.7333 36.6667 8.80489 34.2258 6.36412C31.7852 3.92334 27.8567 3.92334 20 3.92334C12.1433 3.92334 8.21489 3.92334 5.77413 6.36412C3.33334 8.80489 3.33334 12.7333 3.33334 20.59C3.33334 28.4467 3.33334 32.3752 5.77413 34.8158ZM15.8333 15.1733C12.8418 15.1733 10.4167 17.5985 10.4167 20.59C10.4167 23.5815 12.8418 26.0067 15.8333 26.0067C18.8248 26.0067 21.25 23.5815 21.25 20.59C21.25 19.8997 21.8097 19.34 22.5 19.34C23.1903 19.34 23.75 19.8997 23.75 20.59C23.75 24.9623 20.2057 28.5067 15.8333 28.5067C11.4611 28.5067 7.91668 24.9623 7.91668 20.59C7.91668 16.2178 11.4611 12.6733 15.8333 12.6733C16.5237 12.6733 17.0833 13.233 17.0833 13.9233C17.0833 14.6137 16.5237 15.1733 15.8333 15.1733ZM29.5833 20.59C29.5833 23.5815 27.1582 26.0067 24.1667 26.0067C23.4763 26.0067 22.9167 26.5663 22.9167 27.2567C22.9167 27.947 23.4763 28.5067 24.1667 28.5067C28.539 28.5067 32.0833 24.9623 32.0833 20.59C32.0833 16.2178 28.539 12.6733 24.1667 12.6733C19.7943 12.6733 16.25 16.2178 16.25 20.59C16.25 21.2803 16.8097 21.84 17.5 21.84C18.1903 21.84 18.75 21.2803 18.75 20.59C18.75 17.5985 21.1752 15.1733 24.1667 15.1733C27.1582 15.1733 29.5833 17.5985 29.5833 20.59Z" fill="#C7C644"/>
</svg>
