<svg width="40" height="41" viewBox="0 0 40 41" fill="none" xmlns="http://www.w3.org/2000/svg">
<path d="M33.9724 31.5897H32.0058V17.5878C32.0058 17.0573 31.7951 16.5485 31.42 16.1734C31.0449 15.7983 30.5361 15.5875 30.0056 15.5875H24.5048C24.3722 15.5875 24.245 15.6402 24.1512 15.734C24.0575 15.8278 24.0048 15.955 24.0048 16.0876V31.5897H22.0045V9.63797C22.0078 9.32641 21.9402 9.01817 21.8068 8.7366C21.6733 8.45503 21.4776 8.2075 21.2344 8.01276C20.9028 7.75427 20.4983 7.60681 20.0782 7.59132C19.6581 7.57584 19.2437 7.69311 18.8941 7.92649L8.89272 14.5874C8.61836 14.7704 8.39352 15.0185 8.23822 15.3095C8.08292 15.6004 8.00198 15.9253 8.0026 16.2551V31.5897H6.03609C5.77763 31.5859 5.52732 31.6801 5.33551 31.8533C5.14369 32.0266 5.0246 32.2661 5.0022 32.5236C4.99311 32.6604 5.01226 32.7976 5.05843 32.9267C5.10461 33.0558 5.17684 33.174 5.27063 33.274C5.36442 33.374 5.47778 33.4537 5.60365 33.508C5.72952 33.5624 5.86523 33.5903 6.00233 33.59H34.0061C34.1432 33.5903 34.2789 33.5624 34.4048 33.508C34.5307 33.4537 34.644 33.374 34.7378 33.274C34.8316 33.174 34.9038 33.0558 34.95 32.9267C34.9962 32.7976 35.0153 32.6604 35.0063 32.5236C34.9838 32.2661 34.8648 32.0266 34.6729 31.8533C34.4811 31.6801 34.2308 31.5859 33.9724 31.5897ZM13.5033 28.5893C13.5036 28.7264 13.4758 28.8621 13.4214 28.988C13.367 29.1138 13.2874 29.2272 13.1874 29.321C13.0874 29.4148 12.9692 29.487 12.8401 29.5332C12.711 29.5794 12.5738 29.5985 12.437 29.5894C12.1792 29.567 11.9396 29.4477 11.7663 29.2556C11.593 29.0636 11.4989 28.8129 11.5031 28.5543V26.6228C11.4996 26.3644 11.5939 26.1142 11.7671 25.9225C11.9403 25.7307 12.1796 25.6116 12.437 25.5889C12.5738 25.5798 12.711 25.5989 12.8401 25.6451C12.9692 25.6913 13.0874 25.7635 13.1874 25.8573C13.2874 25.9511 13.367 26.0645 13.4214 26.1903C13.4758 26.3162 13.5036 26.4519 13.5033 26.589V28.5893ZM13.5033 21.5883C13.5036 21.7254 13.4758 21.8611 13.4214 21.987C13.367 22.1129 13.2874 22.2262 13.1874 22.32C13.0874 22.4138 12.9692 22.4861 12.8401 22.5322C12.711 22.5784 12.5738 22.5976 12.437 22.5885C12.1793 22.5658 11.9399 22.4464 11.7666 22.2544C11.5934 22.0624 11.4992 21.8119 11.5031 21.5533V19.6218C11.4996 19.3635 11.5939 19.1133 11.7671 18.9215C11.9403 18.7298 12.1796 18.6106 12.437 18.5879C12.5738 18.5788 12.711 18.598 12.8401 18.6442C12.9692 18.6903 13.0874 18.7626 13.1874 18.8564C13.2874 18.9502 13.367 19.0635 13.4214 19.1894C13.4758 19.3153 13.5036 19.451 13.5033 19.5881V21.5883ZM18.504 28.5893C18.5043 28.7264 18.4764 28.8621 18.4221 28.988C18.3677 29.1138 18.2881 29.2272 18.1881 29.321C18.0881 29.4148 17.9698 29.487 17.8407 29.5332C17.7116 29.5794 17.5744 29.5985 17.4376 29.5894C17.1803 29.567 16.941 29.4481 16.7678 29.2566C16.5946 29.065 16.5003 28.815 16.5038 28.5568V26.6228C16.5005 26.3646 16.595 26.1148 16.7682 25.9233C16.9413 25.7318 17.1804 25.6128 17.4376 25.5901C17.5744 25.581 17.7116 25.6002 17.8407 25.6464C17.9698 25.6925 18.0881 25.7648 18.1881 25.8586C18.2881 25.9524 18.3677 26.0657 18.4221 26.1916C18.4764 26.3175 18.5043 26.4532 18.504 26.5903V28.5893ZM18.504 21.5883C18.5043 21.7254 18.4764 21.8611 18.4221 21.987C18.3677 22.1129 18.2881 22.2262 18.1881 22.32C18.0881 22.4138 17.9698 22.4861 17.8407 22.5322C17.7116 22.5784 17.5744 22.5976 17.4376 22.5885C17.1804 22.5658 16.9413 22.4468 16.7682 22.2553C16.595 22.0638 16.5005 21.814 16.5038 21.5558V19.6218C16.5005 19.3637 16.595 19.1138 16.7682 18.9223C16.9413 18.7309 17.1804 18.6119 17.4376 18.5892C17.5744 18.5801 17.7116 18.5992 17.8407 18.6454C17.9698 18.6916 18.0881 18.7638 18.1881 18.8576C18.2881 18.9514 18.3677 19.0648 18.4221 19.1906C18.4764 19.3165 18.5043 19.4522 18.504 19.5893V21.5883Z" fill="#C7C644"/>
</svg>
