<svg width="24" height="24" viewBox="0 0 24 24" fill="none" xmlns="http://www.w3.org/2000/svg">
<path d="M12 4.19995C10.4573 4.19995 8.94927 4.65741 7.66657 5.51449C6.38386 6.37156 5.38412 7.58976 4.79376 9.01502C4.20339 10.4403 4.04893 12.0086 4.34989 13.5217C4.65086 15.0347 5.39373 16.4245 6.48458 17.5154C7.57543 18.6062 8.96526 19.3491 10.4783 19.6501C11.9914 19.951 13.5597 19.7966 14.9849 19.2062C16.4102 18.6158 17.6284 17.6161 18.4855 16.3334C19.3426 15.0507 19.8 13.5426 19.8 12C19.7978 9.93193 18.9753 7.94924 17.513 6.48693C16.0507 5.02462 14.068 4.20214 12 4.19995ZM12.6 18.5722V13.8H14.4C14.5591 13.8 14.7118 13.7367 14.8243 13.6242C14.9368 13.5117 15 13.3591 15 13.2C15 13.0408 14.9368 12.8882 14.8243 12.7757C14.7118 12.6632 14.5591 12.6 14.4 12.6H12.6V10.8C12.6 10.4817 12.7264 10.1765 12.9515 9.95142C13.1765 9.72638 13.4818 9.59995 13.8 9.59995H15C15.1591 9.59995 15.3118 9.53674 15.4243 9.42422C15.5368 9.31169 15.6 9.15908 15.6 8.99995C15.6 8.84082 15.5368 8.68821 15.4243 8.57569C15.3118 8.46317 15.1591 8.39995 15 8.39995H13.8C13.1635 8.39995 12.553 8.65281 12.103 9.10289C11.6529 9.55298 11.4 10.1634 11.4 10.8V12.6H9.60002C9.44089 12.6 9.28827 12.6632 9.17575 12.7757C9.06323 12.8882 9.00002 13.0408 9.00002 13.2C9.00002 13.3591 9.06323 13.5117 9.17575 13.6242C9.28827 13.7367 9.44089 13.8 9.60002 13.8H11.4V18.5722C9.70861 18.4178 8.14184 17.6173 7.02559 16.3372C5.90935 15.0571 5.32957 13.3959 5.40685 11.6992C5.48413 10.0025 6.21253 8.40097 7.44052 7.22763C8.66852 6.0543 10.3016 5.39953 12 5.39953C13.6985 5.39953 15.3315 6.0543 16.5595 7.22763C17.7875 8.40097 18.5159 10.0025 18.5932 11.6992C18.6705 13.3959 18.0907 15.0571 16.9744 16.3372C15.8582 17.6173 14.2914 18.4178 12.6 18.5722Z" fill="white"/>
<rect x="0.5" y="0.5" width="23" height="23" rx="4.5" stroke="white"/>
</svg>
