<svg width="65" height="65" viewBox="0 0 65 65" fill="none" xmlns="http://www.w3.org/2000/svg">
<rect x="0.659973" y="0.0400391" width="64" height="64" rx="32" fill="#F7F7FA"/>
<g clip-path="url(#clip0_1_714)">
<path d="M37.7928 26.8604C37.1053 26.2041 36.3084 25.6924 35.4022 25.3252C34.4959 24.958 33.535 24.7744 32.5193 24.7744C31.4568 24.7744 30.4568 24.9697 29.5193 25.3604C28.5818 25.7666 27.7654 26.3213 27.0701 27.0244C26.3748 27.7275 25.824 28.54 25.4178 29.4619C25.0115 30.3994 24.8084 31.4072 24.8084 32.4854C24.8084 33.5791 25.0233 34.6104 25.4529 35.5791C25.8826 36.5479 26.4725 37.3838 27.2225 38.0869C27.41 38.2744 27.5779 38.4775 27.7264 38.6963C27.8748 38.915 27.9959 39.1494 28.0897 39.3994H37.2537C37.3475 39.1494 37.4647 38.915 37.6053 38.6963C37.7459 38.4775 37.91 38.2744 38.0975 38.0869C38.8006 37.3838 39.3553 36.5635 39.7615 35.626C40.1678 34.6885 40.3709 33.6807 40.3709 32.6025C40.3709 31.4619 40.1404 30.3955 39.6795 29.4033C39.2186 28.4111 38.5975 27.5635 37.8162 26.8604H37.7928ZM36.0818 33.4697C35.8475 33.4697 35.6483 33.3838 35.4842 33.2119C35.3201 33.04 35.2381 32.8369 35.2381 32.6025C35.2381 31.8994 34.9842 31.2979 34.4764 30.7979C33.9686 30.2979 33.3631 30.0479 32.66 30.0479C32.4256 30.0479 32.2225 29.9619 32.0506 29.79C31.8787 29.6182 31.7928 29.415 31.7928 29.1807C31.7928 28.9463 31.8787 28.7432 32.0506 28.5713C32.2225 28.3994 32.4256 28.3135 32.66 28.3135C33.8475 28.3135 34.8592 28.7354 35.6951 29.5791C36.5311 30.4229 36.949 31.4307 36.949 32.6025C36.949 32.8525 36.867 33.0596 36.7029 33.2236C36.5389 33.3877 36.3318 33.4697 36.0818 33.4697ZM28.3709 41.9541C28.3709 42.6729 28.6209 43.2822 29.1209 43.7822C29.6209 44.2822 30.2303 44.5322 30.949 44.5322H34.3709C35.0897 44.5322 35.699 44.2822 36.199 43.7822C36.699 43.2822 36.949 42.6807 36.949 41.9775V41.1104H28.3709V41.9775V41.9541ZM43.7928 31.6885H42.949C42.7147 31.6885 42.5115 31.7705 42.3397 31.9346C42.1678 32.0986 42.0818 32.2979 42.0818 32.5322C42.0818 32.7822 42.1678 32.9893 42.3397 33.1533C42.5115 33.3174 42.7147 33.3994 42.949 33.3994H43.7928C44.0428 33.3994 44.2498 33.3174 44.4139 33.1533C44.5779 32.9893 44.66 32.7822 44.66 32.5322C44.66 32.2979 44.5779 32.0986 44.4139 31.9346C44.2498 31.7705 44.0428 31.6885 43.7928 31.6885ZM41.5662 28.2432C41.6443 28.2432 41.7186 28.2354 41.7889 28.2197C41.8592 28.2041 41.9334 28.1807 42.0115 28.1494L42.7381 27.7041C42.8943 27.6416 43.0193 27.54 43.1131 27.3994C43.2068 27.2588 43.2537 27.1025 43.2537 26.9307C43.2537 26.6963 43.1678 26.4932 42.9959 26.3213C42.824 26.1494 42.6209 26.0635 42.3865 26.0635C42.2928 26.0635 42.2029 26.0791 42.117 26.1104C42.0311 26.1416 41.949 26.1807 41.8709 26.2275L41.1443 26.6494C41.0193 26.7275 40.9178 26.833 40.8397 26.9658C40.7615 27.0986 40.7225 27.2432 40.7225 27.3994C40.7225 27.6338 40.8045 27.833 40.9686 27.9971C41.1326 28.1611 41.3318 28.2432 41.5662 28.2432ZM37.3709 24.376C37.4334 24.4229 37.4998 24.4541 37.5701 24.4697C37.6404 24.4854 37.7147 24.4932 37.7928 24.4932C37.9647 24.4932 38.1131 24.4541 38.2381 24.376C38.3631 24.2979 38.4647 24.1963 38.5428 24.0713L38.9647 23.3213C39.0115 23.2432 39.0506 23.165 39.0818 23.0869C39.1131 23.0088 39.1287 22.915 39.1287 22.8057C39.1287 22.5713 39.0467 22.3721 38.8826 22.208C38.7186 22.0439 38.5115 21.9619 38.2615 21.9619C38.0897 21.9619 37.9373 22.0088 37.8045 22.1025C37.6717 22.1963 37.5662 22.3135 37.4881 22.4541L37.0662 23.2041C37.0193 23.2666 36.9881 23.333 36.9725 23.4033C36.9568 23.4736 36.949 23.5479 36.949 23.626C36.949 23.7979 36.9881 23.9463 37.0662 24.0713C37.1443 24.1963 37.2459 24.2979 37.3709 24.376ZM32.66 23.1104C32.8943 23.1104 33.0975 23.0244 33.2693 22.8525C33.4412 22.6807 33.5272 22.4775 33.5272 22.2432V21.3994C33.5272 21.165 33.4412 20.9619 33.2693 20.79C33.0975 20.6182 32.8943 20.5322 32.66 20.5322C32.4256 20.5322 32.2225 20.6182 32.0506 20.79C31.8787 20.9619 31.7928 21.165 31.7928 21.3994V22.2432C31.7928 22.4775 31.8787 22.6807 32.0506 22.8525C32.2225 23.0244 32.4256 23.1104 32.66 23.1104ZM26.7772 24.0713C26.8553 24.1963 26.9568 24.2979 27.0818 24.376C27.2068 24.4541 27.3475 24.4932 27.5037 24.4932C27.7537 24.4932 27.9608 24.4072 28.1248 24.2354C28.2889 24.0635 28.3709 23.8604 28.3709 23.626C28.3709 23.5479 28.3631 23.4736 28.3475 23.4033C28.3318 23.333 28.3006 23.2666 28.2537 23.2041L27.8318 22.4541C27.7537 22.3135 27.6483 22.1963 27.5154 22.1025C27.3826 22.0088 27.2303 21.9619 27.0584 21.9619C26.8084 21.9619 26.6014 22.0439 26.4373 22.208C26.2733 22.3721 26.1912 22.5713 26.1912 22.8057C26.1912 22.915 26.2068 23.0127 26.2381 23.0986C26.2693 23.1846 26.3084 23.2588 26.3553 23.3213L26.7772 24.0713ZM24.1756 26.6494L23.449 26.2275C23.3865 26.2119 23.3279 26.1963 23.2733 26.1807C23.2186 26.165 23.1522 26.1572 23.074 26.1572C22.8397 26.1572 22.6404 26.2393 22.4764 26.4033C22.3123 26.5674 22.2303 26.7666 22.2303 27.001C22.2303 27.1572 22.2615 27.2939 22.324 27.4111C22.3865 27.5283 22.4725 27.626 22.5818 27.7041L23.3084 28.1494C23.3709 28.1807 23.4412 28.208 23.5193 28.2314C23.5975 28.2549 23.6756 28.2666 23.7537 28.2666C23.9881 28.2666 24.1912 28.1807 24.3631 28.0088C24.535 27.8369 24.6209 27.6338 24.6209 27.3994C24.6209 27.2432 24.5818 27.0986 24.5037 26.9658C24.4256 26.833 24.3162 26.7275 24.1756 26.6494ZM23.2381 32.5322C23.2381 32.2979 23.1522 32.0986 22.9803 31.9346C22.8084 31.7705 22.6053 31.6885 22.3709 31.6885H21.5272C21.2772 31.6885 21.0701 31.7705 20.9061 31.9346C20.742 32.0986 20.66 32.2979 20.66 32.5322C20.66 32.7822 20.742 32.9893 20.9061 33.1533C21.0701 33.3174 21.2772 33.3994 21.5272 33.3994H22.3709C22.6053 33.3994 22.8084 33.3174 22.9803 33.1533C23.1522 32.9893 23.2381 32.7822 23.2381 32.5322ZM23.3318 36.9385L22.5818 37.3604C22.4256 37.4385 22.3006 37.5479 22.2068 37.6885C22.1131 37.8291 22.0662 37.9854 22.0662 38.1572C22.0662 38.3916 22.1522 38.5908 22.324 38.7549C22.4959 38.9189 22.699 39.001 22.9334 39.001C23.0272 39.001 23.117 38.9893 23.2029 38.9658C23.2889 38.9424 23.3709 38.8994 23.449 38.8369V38.8604L24.1756 38.4385C24.3006 38.3604 24.4061 38.2549 24.492 38.1221C24.5779 37.9893 24.6209 37.8447 24.6209 37.6885C24.6209 37.4541 24.535 37.251 24.3631 37.0791C24.1912 36.9072 23.9881 36.8213 23.7537 36.8213C23.6756 36.8213 23.5975 36.833 23.5193 36.8564C23.4412 36.8799 23.3709 36.9072 23.3084 36.9385H23.3318ZM42.7381 37.3604L42.0115 36.9385C41.949 36.9072 41.8787 36.8799 41.8006 36.8564C41.7225 36.833 41.6443 36.8213 41.5662 36.8213C41.3318 36.8213 41.1287 36.9072 40.9568 37.0791C40.785 37.251 40.699 37.4541 40.699 37.6885C40.699 37.8447 40.7381 37.9893 40.8162 38.1221C40.8943 38.2549 41.0037 38.3604 41.1443 38.4385L41.8709 38.8604C41.949 38.9072 42.0311 38.9424 42.117 38.9658C42.2029 38.9893 42.2928 39.001 42.3865 39.001C42.6209 39.001 42.824 38.9189 42.9959 38.7549C43.1678 38.5908 43.2537 38.3916 43.2537 38.1572C43.2537 37.9854 43.2068 37.8291 43.1131 37.6885C43.0193 37.5479 42.8943 37.4463 42.7381 37.3838V37.3604Z" fill="#C7C644"/>
</g>
<defs>
<clipPath id="clip0_1_714">
<rect width="24" height="24" fill="white" transform="matrix(1 0 0 -1 20.66 44.04)"/>
</clipPath>
</defs>
</svg>
