<svg width="24" height="24" viewBox="0 0 24 24" fill="none" xmlns="http://www.w3.org/2000/svg">
<rect x="0.5" y="0.5" width="23" height="23" rx="4.5" stroke="white"/>
<path d="M12 8.39995C11.288 8.39995 10.592 8.61109 9.99996 9.00666C9.40794 9.40223 8.94652 9.96448 8.67405 10.6223C8.40157 11.2801 8.33028 12.0039 8.46919 12.7023C8.60809 13.4006 8.95096 14.0421 9.45443 14.5455C9.9579 15.049 10.5994 15.3919 11.2977 15.5308C11.996 15.6697 12.7199 15.5984 13.3777 15.3259C14.0355 15.0534 14.5977 14.592 14.9933 14C15.3889 13.408 15.6 12.712 15.6 12C15.599 11.0455 15.2194 10.1304 14.5445 9.45546C13.8696 8.78055 12.9545 8.40094 12 8.39995ZM12 14.4C11.5253 14.4 11.0613 14.2592 10.6666 13.9955C10.272 13.7318 9.96435 13.3569 9.7827 12.9184C9.60105 12.4798 9.55352 11.9973 9.64613 11.5317C9.73873 11.0662 9.96731 10.6385 10.303 10.3029C10.6386 9.96725 11.0662 9.73867 11.5318 9.64607C11.9974 9.55346 12.4799 9.60099 12.9185 9.78264C13.357 9.96429 13.7318 10.2719 13.9955 10.6666C14.2593 11.0613 14.4 11.5253 14.4 12C14.4 12.6365 14.1472 13.2469 13.6971 13.697C13.247 14.1471 12.6365 14.4 12 14.4ZM15.6 4.19995H8.40001C7.28647 4.20114 6.21887 4.64402 5.43148 5.43142C4.64408 6.21881 4.2012 7.28641 4.20001 8.39995V15.6C4.2012 16.7135 4.64408 17.7811 5.43148 18.5685C6.21887 19.3559 7.28647 19.7988 8.40001 19.8H15.6C16.7136 19.7988 17.7812 19.3559 18.5685 18.5685C19.3559 17.7811 19.7988 16.7135 19.8 15.6V8.39995C19.7988 7.28641 19.3559 6.21881 18.5685 5.43142C17.7812 4.64402 16.7136 4.20114 15.6 4.19995ZM18.6 15.6C18.6 16.3956 18.2839 17.1587 17.7213 17.7213C17.1587 18.2839 16.3957 18.6 15.6 18.6H8.40001C7.60436 18.6 6.8413 18.2839 6.27869 17.7213C5.71608 17.1587 5.40001 16.3956 5.40001 15.6V8.39995C5.40001 7.6043 5.71608 6.84124 6.27869 6.27863C6.8413 5.71602 7.60436 5.39995 8.40001 5.39995H15.6C16.3957 5.39995 17.1587 5.71602 17.7213 6.27863C18.2839 6.84124 18.6 7.6043 18.6 8.39995V15.6ZM16.8 8.09995C16.8 8.27795 16.7472 8.45196 16.6483 8.59996C16.5494 8.74797 16.4089 8.86332 16.2444 8.93144C16.08 8.99956 15.899 9.01739 15.7244 8.98266C15.5498 8.94793 15.3895 8.86222 15.2636 8.73635C15.1377 8.61048 15.052 8.45012 15.0173 8.27553C14.9826 8.10095 15.0004 7.91999 15.0685 7.75554C15.1366 7.59108 15.252 7.45052 15.4 7.35163C15.548 7.25274 15.722 7.19995 15.9 7.19995C16.1387 7.19995 16.3676 7.29477 16.5364 7.46356C16.7052 7.63234 16.8 7.86126 16.8 8.09995Z" fill="white"/>
</svg>
