<svg width="14" height="15" viewBox="0 0 14 15" fill="none" xmlns="http://www.w3.org/2000/svg">
<path d="M7 4.08984C6.56735 4.08984 6.14442 4.21814 5.78469 4.4585C5.42496 4.69887 5.14458 5.04051 4.97901 5.44022C4.81345 5.83994 4.77013 6.27977 4.85453 6.7041C4.93894 7.12844 5.14728 7.51821 5.4532 7.82414C5.75913 8.13007 6.14891 8.33841 6.57324 8.42281C6.99757 8.50722 7.43741 8.4639 7.83712 8.29833C8.23683 8.13276 8.57847 7.85239 8.81884 7.49265C9.05921 7.13292 9.1875 6.70999 9.1875 6.27734C9.1875 5.69718 8.95703 5.14078 8.5468 4.73055C8.13656 4.32031 7.58016 4.08984 7 4.08984ZM7 7.58984C6.74041 7.58984 6.48665 7.51287 6.27081 7.36865C6.05497 7.22443 5.88675 7.01944 5.78741 6.77962C5.68807 6.53979 5.66208 6.27589 5.71272 6.02129C5.76336 5.76669 5.88837 5.53282 6.07192 5.34927C6.25548 5.16571 6.48934 5.04071 6.74394 4.99006C6.99854 4.93942 7.26244 4.96541 7.50227 5.06475C7.7421 5.16409 7.94708 5.33232 8.0913 5.54816C8.23552 5.764 8.3125 6.01776 8.3125 6.27734C8.3125 6.62544 8.17422 6.95928 7.92808 7.20542C7.68194 7.45156 7.3481 7.58984 7 7.58984ZM7 1.46484C5.72409 1.46629 4.50085 1.97379 3.59865 2.87599C2.69644 3.7782 2.18895 5.00143 2.1875 6.27734C2.1875 7.99453 2.98102 9.81453 4.48438 11.541C5.15989 12.3212 5.92017 13.0237 6.75117 13.6355C6.82473 13.6871 6.91237 13.7147 7.00219 13.7147C7.092 13.7147 7.17964 13.6871 7.2532 13.6355C8.08268 13.0234 8.84148 12.3209 9.51562 11.541C11.0168 9.81453 11.8125 7.99453 11.8125 6.27734C11.8111 5.00143 11.3036 3.7782 10.4014 2.87599C9.49915 1.97379 8.27591 1.46629 7 1.46484ZM7 12.7305C6.09602 12.0195 3.0625 9.4082 3.0625 6.27734C3.0625 5.23305 3.47734 4.23154 4.21577 3.49311C4.95419 2.75469 5.95571 2.33984 7 2.33984C8.04429 2.33984 9.04581 2.75469 9.78423 3.49311C10.5227 4.23154 10.9375 5.23305 10.9375 6.27734C10.9375 9.40711 7.90398 12.0195 7 12.7305Z" fill="#7D7E80"/>
</svg>
