<svg width="40" height="41" viewBox="0 0 40 41" fill="none" xmlns="http://www.w3.org/2000/svg">
<path d="M25.96 19.55C22.68 19.55 19.96 22.23 19.96 25.55C19.96 28.83 22.64 31.55 25.96 31.55C29.28 31.55 31.96 28.87 31.96 25.55C31.96 22.23 29.24 19.55 25.96 19.55ZM28.88 24.79L27.76 25.91C27.64 26.03 27.6 26.15 27.6 26.23L27.88 27.91C27.96 28.39 27.52 28.11 27.52 28.11L26.16 27.39C25.96 27.27 25.76 27.39 25.76 27.39L24.36 28.11C24 28.3101 24 28.11 24 27.95L24.28 26.39C24.32 26.07 24.16 25.95 24.16 25.91L23.16 24.95L23.04 24.83C22.92 24.71 22.84 24.51 23.28 24.43L24.68 24.23C24.88 24.19 25 24.11 25.04 24.03L25.8 22.47C25.84 22.35 26 22.23 26.16 22.55L26.92 24.07C26.96 24.15 27.08 24.19 27.16 24.23H27.28L28.76 24.43H28.8C28.88 24.47 29.16 24.55 28.88 24.79Z" fill="#C7C644"/>
<path d="M19.56 31.4699C19.96 31.4699 20.2 30.9899 19.96 30.6699C18.68 29.2299 17.96 27.3899 17.96 25.4699C17.96 24.1099 18.4 22.5899 19.12 21.3899C19.96 19.9499 20.92 19.3499 21.68 18.2299C22.92 16.3899 23.16 13.7499 22.36 11.7499C21.56 9.70992 19.68 8.50992 17.48 8.54992C15.28 8.58992 13.48 9.94992 12.8 11.9899C12 14.2299 12.36 16.9499 14.16 18.6299C14.92 19.3099 15.56 20.3899 15.2 21.4299C15.12 21.6299 14.88 21.9499 14.32 22.1899C12.04 23.1899 9.71998 24.3899 8.67998 26.0699C8.47998 26.3899 8.07998 27.1899 8.03998 28.3099C8.03998 28.5899 8.03998 28.8299 8.07998 29.1899C8.07998 29.3499 8.07998 29.3499 8.11998 29.5099C8.23998 30.1899 8.63998 30.7899 9.23998 31.1499C9.47998 31.2699 10.04 31.4699 11.12 31.4699H19.56Z" fill="#C7C644"/>
</svg>
