<svg width="64" height="65" viewBox="0 0 64 65" fill="none" xmlns="http://www.w3.org/2000/svg">
<rect y="0.979736" width="64" height="64" rx="32" fill="#F7F7FA"/>
<g clip-path="url(#clip0_1_733)">
<path d="M23.4922 39.5656V44.6046C23.4922 44.6203 23.4922 44.6281 23.4922 44.6281C23.4922 44.8 23.5352 44.9523 23.6211 45.0851C23.707 45.2179 23.8203 45.3156 23.9609 45.3781C24.0234 45.4093 24.0859 45.4367 24.1484 45.4601C24.2109 45.4835 24.2812 45.4875 24.3594 45.4718C24.4375 45.4718 24.5234 45.4562 24.6172 45.425C24.7109 45.3937 24.7891 45.3546 24.8516 45.3078L25.2031 45.05V35.3L24.8047 35.8156C24.3984 36.3312 24.0781 36.9054 23.8438 37.5382C23.6094 38.171 23.4922 38.8468 23.4922 39.5656ZM39.1953 35.8156L38.7969 35.3234V45.05L39.1484 45.3078C39.2109 45.3546 39.2891 45.3937 39.3828 45.425C39.4766 45.4562 39.5625 45.4718 39.6406 45.4718C39.7188 45.4718 39.7891 45.464 39.8516 45.4484C39.9141 45.4328 39.9766 45.4093 40.0391 45.3781C40.1797 45.3156 40.293 45.214 40.3789 45.0734C40.4648 44.9328 40.5078 44.7843 40.5078 44.6281C40.5078 44.6281 40.5078 44.6203 40.5078 44.6046V39.5656C40.5078 38.8937 40.3945 38.2335 40.168 37.5851C39.9414 36.9367 39.6172 36.3468 39.1953 35.8156ZM36.5703 27.4718C36.7422 28.0968 36.875 28.7218 36.9688 29.3468C37.0625 29.9718 37.1094 30.6046 37.1094 31.2453V42.05C37.1094 42.1593 37.0859 42.2687 37.0391 42.3781C36.9922 42.4875 36.9297 42.5734 36.8516 42.6359C36.7734 42.714 36.6836 42.7765 36.582 42.8234C36.4805 42.8703 36.3672 42.9015 36.2422 42.9171H32.8438V44.6046C32.8438 44.7609 32.8086 44.9093 32.7383 45.05C32.668 45.1906 32.5625 45.2921 32.4219 45.3546C32.3594 45.4015 32.293 45.4328 32.2227 45.4484C32.1523 45.464 32.0781 45.4718 32 45.4718C31.9219 45.4718 31.8477 45.464 31.7773 45.4484C31.707 45.4328 31.6328 45.4015 31.5547 45.3546H31.5781C31.4531 45.2921 31.3516 45.1945 31.2734 45.0617C31.1953 44.9289 31.1562 44.7843 31.1562 44.6281C31.1562 44.6281 31.1562 44.6203 31.1562 44.6046V42.9171H27.7578C27.5234 42.9171 27.3203 42.8312 27.1484 42.6593C26.9766 42.4875 26.8906 42.2843 26.8906 42.05V31.2453C26.8906 30.6046 26.9375 29.9718 27.0312 29.3468C27.125 28.7218 27.2578 28.0968 27.4297 27.4718H36.5703ZM32 30.05C31.2969 30.05 30.6953 30.296 30.1953 30.7882C29.6953 31.2804 29.4453 31.8781 29.4453 32.5812C29.4453 32.5968 29.4453 32.6046 29.4453 32.6046C29.4453 32.6046 29.4453 32.6125 29.4453 32.6281V32.6046C29.4453 32.9484 29.5117 33.2804 29.6445 33.6007C29.7773 33.921 29.9609 34.1984 30.1953 34.4328C30.4297 34.6671 30.7031 34.8507 31.0156 34.9835C31.3281 35.1164 31.6562 35.1828 32 35.1828C32.7031 35.1828 33.3047 34.9367 33.8047 34.4445C34.3047 33.9523 34.5547 33.3546 34.5547 32.6515C34.5547 32.6515 34.5547 32.6476 34.5547 32.6398C34.5547 32.632 34.5547 32.6203 34.5547 32.6046C34.5547 32.2765 34.4883 31.9562 34.3555 31.6437C34.2227 31.3312 34.0391 31.05 33.8047 30.8C33.5703 30.5656 33.3008 30.382 32.9961 30.2492C32.6914 30.1164 32.3594 30.05 32 30.05ZM32 31.7609C32.2344 31.7609 32.4336 31.8429 32.5977 32.007C32.7617 32.171 32.8438 32.3703 32.8438 32.6046C32.8438 32.8546 32.7617 33.0617 32.5977 33.2257C32.4336 33.3898 32.2344 33.4718 32 33.4718C31.7656 33.4718 31.5664 33.3898 31.4023 33.2257C31.2383 33.0617 31.1562 32.8546 31.1562 32.6046C31.1562 32.3703 31.2383 32.171 31.4023 32.007C31.5664 31.8429 31.7656 31.7609 32 31.7609ZM34.0391 22.4562C33.8047 22.1593 33.5078 21.921 33.1484 21.7414C32.7891 21.5617 32.4062 21.4718 32 21.4718C31.5781 21.4718 31.1914 21.5617 30.8398 21.7414C30.4883 21.921 30.1953 22.1593 29.9609 22.4562C29.5547 22.9562 29.1914 23.4835 28.8711 24.0382C28.5508 24.5929 28.2656 25.1671 28.0156 25.7609H35.9844C35.7344 25.1671 35.4492 24.5929 35.1289 24.0382C34.8086 23.4835 34.4453 22.9562 34.0391 22.4562Z" fill="#C7C644"/>
</g>
<defs>
<clipPath id="clip0_1_733">
<rect width="24" height="24" fill="white" transform="matrix(1 0 0 -1 20 44.9797)"/>
</clipPath>
</defs>
</svg>
