<svg width="95" height="95" viewBox="0 0 95 95" fill="none" xmlns="http://www.w3.org/2000/svg">
<path d="M53.8361 12.963C39.0541 32.3874 41.3967 33.8123 12.5232 31.7448C35.9705 48.7206 33.2601 48.3064 32.0866 72.6838C46.8341 53.2469 44.5187 51.8189 73.3881 53.8978C49.9365 36.9336 52.6282 37.3279 53.8247 12.9588L53.8361 12.963ZM68.9461 36.3734C71.8741 32.5094 71.4179 32.2263 77.1594 32.6381C72.4964 29.263 73.0122 29.3466 73.2686 24.4973C70.3249 28.3686 70.7968 28.6444 65.0553 28.2326C69.7141 31.6191 69.1868 31.5313 68.9461 36.3734ZM18.7739 51.4104C16.2738 52.9198 16.4637 53.184 13.3506 51.6607C15.2144 54.6154 14.9253 54.4451 13.7194 57.1149C16.2196 55.6055 16.0182 55.3371 19.1427 56.8646C17.2789 53.91 17.5566 54.0761 18.7739 51.4104Z" fill="black"/>
</svg>
