<svg width="65" height="65" viewBox="0 0 65 65" fill="none" xmlns="http://www.w3.org/2000/svg">
<rect x="0.329956" y="0.0400391" width="64" height="64" rx="32" fill="#F7F7FA"/>
<g clip-path="url(#clip0_1_707)">
<path d="M37.4393 39.7979V43.6885C37.4393 43.8291 37.4081 43.958 37.3456 44.0752C37.2831 44.1924 37.1893 44.29 37.0643 44.3682C37.0018 44.4307 36.9315 44.4736 36.8534 44.4971C36.7753 44.5205 36.6893 44.5322 36.5956 44.5322C36.5956 44.5322 36.5917 44.5322 36.5839 44.5322C36.576 44.5322 36.5721 44.5322 36.5721 44.5322C36.5253 44.5322 36.4784 44.5283 36.4315 44.5205C36.3846 44.5127 36.3456 44.5088 36.3143 44.5088L34.0409 43.7354L31.744 44.5088C31.7128 44.5088 31.6737 44.5127 31.6268 44.5205C31.58 44.5283 31.5331 44.5322 31.4862 44.5322C31.3925 44.5322 31.3026 44.5205 31.2167 44.4971C31.1307 44.4736 31.0565 44.4307 30.994 44.3682C30.8846 44.29 30.7948 44.1924 30.7245 44.0752C30.6542 43.958 30.619 43.8291 30.619 43.6885V39.7979C31.0721 40.2041 31.5917 40.5244 32.1776 40.7588C32.7635 40.9932 33.3846 41.1104 34.0409 41.1104C34.6971 41.1104 35.3143 40.9932 35.8925 40.7588C36.4706 40.5244 36.9862 40.1963 37.4393 39.7744V39.7979ZM38.2831 20.5322C38.9862 20.5322 39.5878 20.7822 40.0878 21.2822C40.5878 21.7822 40.8378 22.3838 40.8378 23.0869C40.8378 23.0869 40.8378 23.0908 40.8378 23.0986C40.8378 23.1064 40.8378 23.1104 40.8378 23.1104V39.3994C40.8221 39.9463 40.6581 40.4385 40.3456 40.876C40.0331 41.3135 39.6346 41.626 39.1503 41.8135H39.1268V35.9775C39.1268 35.9307 39.1268 35.8838 39.1268 35.8369C39.1268 35.79 39.119 35.751 39.1034 35.7197C39.0721 34.7979 38.8221 33.9658 38.3534 33.2236C37.8846 32.4814 37.2753 31.8994 36.5253 31.4775H36.5018C36.1581 31.2744 35.7753 31.1143 35.3534 30.9971C34.9315 30.8799 34.494 30.8213 34.0409 30.8213C33.5878 30.8213 33.1503 30.8799 32.7284 30.9971C32.3065 31.1143 31.9081 31.2744 31.5331 31.4775H31.5565C30.7753 31.915 30.1425 32.5322 29.6581 33.3291C29.1737 34.126 28.9315 35.001 28.9315 35.9541C28.9315 35.9541 28.9315 35.958 28.9315 35.9658C28.9315 35.9736 28.9315 35.9775 28.9315 35.9775V41.9775H26.3768C25.6737 41.9775 25.0721 41.7275 24.5721 41.2275C24.0721 40.7275 23.8221 40.126 23.8221 39.4229C23.8221 39.4229 23.8221 39.4189 23.8221 39.4111C23.8221 39.4033 23.8221 39.3994 23.8221 39.3994V23.1104C23.8378 22.4072 24.0917 21.8057 24.5839 21.3057C25.076 20.8057 25.6737 20.5479 26.3768 20.5322H38.2831ZM34.0409 32.5322C34.9784 32.5322 35.7792 32.8682 36.4432 33.54C37.1073 34.2119 37.4393 35.0244 37.4393 35.9775C37.4393 36.915 37.1073 37.7197 36.4432 38.3916C35.7792 39.0635 34.9784 39.3994 34.0409 39.3994C33.0878 39.3994 32.2792 39.0674 31.6151 38.4033C30.951 37.7393 30.619 36.9307 30.619 35.9775C30.619 35.0244 30.951 34.2119 31.6151 33.54C32.2792 32.8682 33.0878 32.5322 34.0409 32.5322ZM36.5721 27.3994H28.0878C27.9315 27.3994 27.787 27.4385 27.6542 27.5166C27.5214 27.5947 27.4159 27.6963 27.3378 27.8213C27.3065 27.8838 27.2792 27.9502 27.2557 28.0205C27.2323 28.0908 27.2206 28.165 27.2206 28.2432C27.2206 28.3213 27.2323 28.3994 27.2557 28.4775C27.2792 28.5557 27.3065 28.626 27.3378 28.6885C27.4159 28.8135 27.5214 28.915 27.6542 28.9932C27.787 29.0713 27.9315 29.1104 28.0878 29.1104H36.5721C36.7284 29.1104 36.8729 29.0713 37.0057 28.9932C37.1385 28.915 37.244 28.8135 37.3221 28.6885C37.3534 28.626 37.3807 28.5557 37.4042 28.4775C37.4276 28.3994 37.4393 28.3213 37.4393 28.2432C37.4393 28.165 37.4276 28.0908 37.4042 28.0205C37.3807 27.9502 37.3534 27.8838 37.3221 27.8213C37.244 27.6963 37.1385 27.5947 37.0057 27.5166C36.8729 27.4385 36.7284 27.3994 36.5721 27.3994ZM36.5721 23.9775H28.0878C27.9315 23.9775 27.787 24.0127 27.6542 24.083C27.5214 24.1533 27.4159 24.2588 27.3378 24.3994C27.3065 24.4619 27.2792 24.5283 27.2557 24.5986C27.2323 24.6689 27.2206 24.7432 27.2206 24.8213C27.2206 24.8994 27.2323 24.9736 27.2557 25.0439C27.2792 25.1143 27.3065 25.1807 27.3378 25.2432C27.4159 25.3838 27.5214 25.4932 27.6542 25.5713C27.787 25.6494 27.9315 25.6885 28.0878 25.6885H36.5721C36.7284 25.6885 36.8729 25.6494 37.0057 25.5713C37.1385 25.4932 37.244 25.3838 37.3221 25.2432C37.3534 25.1807 37.3807 25.1143 37.4042 25.0439C37.4276 24.9736 37.4393 24.8994 37.4393 24.8213C37.4393 24.7432 37.4276 24.6689 37.4042 24.5986C37.3807 24.5283 37.3534 24.4619 37.3221 24.3994C37.244 24.2744 37.1385 24.1729 37.0057 24.0947C36.8729 24.0166 36.7284 23.9775 36.5721 23.9775Z" fill="#C7C644"/>
</g>
<defs>
<clipPath id="clip0_1_707">
<rect width="24" height="24" fill="white" transform="matrix(1 0 0 -1 20.33 44.04)"/>
</clipPath>
</defs>
</svg>
