<svg width="64" height="64" viewBox="0 0 64 64" fill="none" xmlns="http://www.w3.org/2000/svg">
<rect width="64" height="64" rx="32" fill="#FDFCC4"/>
<path d="M31.0002 25C31.0002 24.8022 31.0589 24.6089 31.1687 24.4444C31.2786 24.28 31.4348 24.1518 31.6175 24.0761C31.8003 24.0004 32.0013 23.9806 32.1953 24.0192C32.3893 24.0578 32.5675 24.153 32.7073 24.2929C32.8472 24.4327 32.9424 24.6109 32.981 24.8049C33.0196 24.9989 32.9998 25.2 32.9241 25.3827C32.8484 25.5654 32.7202 25.7216 32.5558 25.8315C32.3913 25.9413 32.198 26 32.0002 26C31.735 26 31.4806 25.8946 31.2931 25.7071C31.1056 25.5196 31.0002 25.2652 31.0002 25ZM34.0002 33C34.0002 33.1978 34.0589 33.3911 34.1687 33.5556C34.2786 33.72 34.4348 33.8482 34.6175 33.9239C34.8003 33.9996 35.0013 34.0194 35.1953 33.9808C35.3893 33.9422 35.5675 33.847 35.7073 33.7071C35.8472 33.5673 35.9424 33.3891 35.981 33.1951C36.0196 33.0011 35.9998 32.8 35.9241 32.6173C35.8484 32.4346 35.7202 32.2784 35.5558 32.1685C35.3913 32.0586 35.198 32 35.0002 32C34.735 32 34.4806 32.1054 34.2931 32.2929C34.1056 32.4804 34.0002 32.7348 34.0002 33ZM40.0627 37.4337C41.3281 36.3711 42.3388 35.038 43.0203 33.5326C43.7017 32.0273 44.0366 30.3882 44.0002 28.7362C44.0002 28.6446 43.9965 28.5533 43.989 28.4625C43.981 28.3354 43.9248 28.2161 43.8319 28.129C43.739 28.0419 43.6163 27.9935 43.489 27.9937H40.469L37.5777 31.4625C37.9388 32.0711 38.0732 32.7878 37.957 33.4859C37.8408 34.1841 37.4815 34.8186 36.9427 35.2774C36.4039 35.7363 35.7202 35.9898 35.0125 35.9933C34.3048 35.9968 33.6186 35.75 33.0753 35.2965C32.532 34.843 32.1665 34.212 32.0434 33.5151C31.9203 32.8181 32.0476 32.1001 32.4027 31.488C32.7579 30.8758 33.318 30.4089 33.984 30.1698C34.6501 29.9307 35.3793 29.9347 36.0427 30.1812L39.2315 26.3537C39.3259 26.2422 39.4437 26.1527 39.5766 26.0915C39.7094 26.0304 39.854 25.9992 40.0002 26H42.8927C42.9729 26.0001 43.052 25.9809 43.1232 25.944C43.1945 25.9071 43.2558 25.8536 43.302 25.788C43.3482 25.7224 43.378 25.6467 43.3888 25.5672C43.3995 25.4877 43.391 25.4068 43.364 25.3312C41.909 21.25 38.1077 18.25 33.5927 18.01H33.519C33.4517 18.0075 33.3847 18.0185 33.3219 18.0425C33.259 18.0665 33.2017 18.103 33.1532 18.1496C33.1048 18.1963 33.0663 18.2523 33.04 18.3142C33.0137 18.3761 33.0002 18.4427 33.0002 18.51V22.1662C33.6674 22.4021 34.2298 22.8663 34.5878 23.4767C34.9459 24.0871 35.0767 24.8045 34.957 25.502C34.8373 26.1995 34.4749 26.8322 33.9339 27.2884C33.3928 27.7445 32.7079 27.9947 32.0002 27.9947C31.2925 27.9947 30.6076 27.7445 30.0665 27.2884C29.5255 26.8322 29.1631 26.1995 29.0434 25.502C28.9237 24.8045 29.0545 24.0871 29.4126 23.4767C29.7707 22.8663 30.333 22.4021 31.0002 22.1662V18.7912C31.0004 18.716 30.9836 18.6417 30.9511 18.5739C30.9186 18.5061 30.8712 18.4464 30.8125 18.3994C30.7537 18.3525 30.6851 18.3194 30.6118 18.3026C30.5385 18.2858 30.4623 18.2858 30.389 18.3025C28.037 18.8801 25.9408 20.2165 24.4244 22.1049C22.9081 23.9934 22.0561 26.3288 22.0002 28.75L19.194 34.1425L19.1665 34.1987C18.9619 34.6682 18.9453 35.1983 19.1199 35.6797C19.2946 36.1611 19.6472 36.5571 20.1052 36.7862L20.1365 36.8012L23.0002 38.1125V41.9875C23.0002 42.5179 23.2109 43.0266 23.586 43.4017C23.9611 43.7768 24.4698 43.9875 25.0002 43.9875H30.0002V44.9875C30.0002 45.2527 30.1056 45.5071 30.2931 45.6946C30.4806 45.8821 30.735 45.9875 31.0002 45.9875H39.9715C40.1484 45.9892 40.323 45.9462 40.479 45.8625C40.655 45.7665 40.7981 45.6198 40.8897 45.4415C40.9813 45.2632 41.0172 45.0615 40.9927 44.8625L40.0627 37.4337Z" fill="#9C9B2A"/>
</svg>
