<svg width="65" height="65" viewBox="0 0 65 65" fill="none" xmlns="http://www.w3.org/2000/svg">
<rect x="0.97998" y="0.0400391" width="64" height="64" rx="32" fill="#F7F7FA"/>
<g clip-path="url(#clip0_1_721)">
<path d="M29.2769 22.126C30.4644 21.8604 31.6519 21.8018 32.8394 21.9502C34.0269 22.0986 35.1597 22.4463 36.2378 22.9932C37.3159 23.5557 38.2729 24.2666 39.1089 25.126C39.9448 25.9854 40.605 26.9541 41.0894 28.0322L41.1362 28.1025H40.48L38.6987 29.8604H38.0425C37.7769 29.2041 37.4331 28.6025 37.0112 28.0557C36.5737 27.5088 36.0737 27.04 35.5112 26.6494C34.9487 26.2588 34.3315 25.9541 33.6597 25.7354C32.9878 25.5166 32.2847 25.4072 31.5503 25.4072C30.7378 25.4072 29.9644 25.54 29.23 25.8057C28.4956 26.0713 27.8315 26.4385 27.2378 26.9072L27.2612 26.8838C26.4019 27.54 25.7222 28.3604 25.2222 29.3447C24.7222 30.3291 24.4722 31.3916 24.4722 32.5322C24.4722 33.6885 24.7222 34.7549 25.2222 35.7314C25.7222 36.708 26.394 37.5244 27.2378 38.1807H27.2612C27.8394 38.6494 28.4956 39.0127 29.23 39.2705C29.9644 39.5283 30.7378 39.6572 31.5503 39.6572C32.2847 39.6572 32.9878 39.5479 33.6597 39.3291C34.3315 39.1104 34.9487 38.8057 35.5112 38.415C36.0737 38.0244 36.5659 37.5635 36.9878 37.0322C37.4253 36.4854 37.769 35.8916 38.019 35.251L38.0425 35.2041H38.6987L40.48 36.9854H41.1128C40.6128 38.0947 39.9487 39.083 39.1206 39.9502C38.2925 40.8174 37.355 41.5166 36.3081 42.0479L36.2378 42.0713C35.5503 42.4307 34.8081 42.708 34.0112 42.9033C33.2144 43.0986 32.3862 43.1963 31.5269 43.1963C30.6987 43.1963 29.894 43.1025 29.1128 42.915C28.3315 42.7432 27.5933 42.4854 26.8979 42.1416C26.2026 41.7979 25.5581 41.376 24.9644 40.876C24.355 40.3916 23.8159 39.8525 23.3472 39.2588L23.3237 39.2354C22.5894 38.3291 22.0151 37.3018 21.6011 36.1533C21.187 35.0049 20.98 33.7979 20.98 32.5322C20.98 31.2666 21.187 30.0635 21.6011 28.9229C22.0151 27.7822 22.5972 26.751 23.3472 25.8291L23.3237 25.8525C24.0581 24.9307 24.9292 24.1455 25.937 23.4971C26.9448 22.8486 28.0347 22.3916 29.2065 22.126H29.2769ZM28.1284 28.4541C28.5815 28.0635 29.0972 27.7588 29.6753 27.54C30.2534 27.3213 30.8706 27.2119 31.5269 27.2119C32.4956 27.2119 33.3823 27.4541 34.187 27.9385C34.9917 28.4229 35.6206 29.0557 36.0737 29.8369L36.0972 29.8604H31.5269C31.0581 29.8604 30.6206 29.9814 30.2144 30.2236C29.8081 30.4658 29.4878 30.79 29.2534 31.1963C29.144 31.3994 29.0581 31.6143 28.9956 31.8408C28.9331 32.0674 28.9019 32.2979 28.9019 32.5322C28.9019 32.7822 28.9331 33.0205 28.9956 33.2471C29.0581 33.4736 29.144 33.6885 29.2534 33.8916V33.8682C29.4878 34.29 29.8081 34.6182 30.2144 34.8525C30.6206 35.0869 31.0581 35.2041 31.5269 35.2041H36.0972C35.6284 36.001 34.9917 36.6455 34.187 37.1377C33.3823 37.6299 32.4956 37.876 31.5269 37.876C30.8706 37.876 30.2534 37.7627 29.6753 37.5361C29.0972 37.3096 28.5815 37.001 28.1284 36.6104V36.6338C27.5503 36.1338 27.0894 35.5322 26.7456 34.8291C26.4019 34.126 26.23 33.3604 26.23 32.5322C26.23 31.7197 26.4019 30.9619 26.7456 30.2588C27.0894 29.5557 27.5503 28.9541 28.1284 28.4541ZM44.1128 29.8604C44.3472 29.876 44.5503 29.9697 44.7222 30.1416C44.894 30.3135 44.98 30.5166 44.98 30.751C44.98 30.876 44.9565 30.9932 44.9097 31.1025C44.8628 31.2119 44.8003 31.3057 44.7222 31.3838L44.2065 31.9229C44.1284 32.001 44.0659 32.0908 44.019 32.1924C43.9722 32.2939 43.9487 32.4072 43.9487 32.5322C43.9487 32.6572 43.9722 32.7744 44.019 32.8838C44.0659 32.9932 44.1284 33.0869 44.2065 33.165L44.7222 33.7041C44.8003 33.7822 44.8628 33.8721 44.9097 33.9736C44.9565 34.0752 44.98 34.1885 44.98 34.3135C44.98 34.5635 44.894 34.7744 44.7222 34.9463C44.5503 35.1182 44.3472 35.2041 44.1128 35.2041H41.5815C41.4565 35.2041 41.3394 35.1807 41.23 35.1338C41.1206 35.0869 41.0269 35.0244 40.9487 34.9463L39.4487 33.4229H31.5269C31.3706 33.4229 31.2261 33.3838 31.0933 33.3057C30.9604 33.2275 30.855 33.1182 30.7769 32.9775C30.6987 32.8369 30.6597 32.6885 30.6597 32.5322C30.6597 32.376 30.6987 32.2275 30.7769 32.0869C30.855 31.9463 30.9604 31.8369 31.0933 31.7588C31.2261 31.6807 31.3706 31.6416 31.5269 31.6416H39.4487L40.9487 30.1416C41.0269 30.0479 41.1206 29.9775 41.23 29.9307C41.3394 29.8838 41.4565 29.8604 41.5815 29.8604H44.1128Z" fill="#C7C644"/>
</g>
<defs>
<clipPath id="clip0_1_721">
<rect width="24" height="24" fill="white" transform="matrix(1 0 0 -1 20.98 44.04)"/>
</clipPath>
</defs>
</svg>
