<svg width="24" height="24" viewBox="0 0 24 24" fill="none" xmlns="http://www.w3.org/2000/svg">
<rect x="0.5" y="0.5" width="23" height="23" rx="4.5" stroke="white"/>
<path d="M18.5063 18.2781L13.8113 10.8996L18.444 5.80331C18.5488 5.6852 18.6028 5.53055 18.5943 5.3729C18.5859 5.21524 18.5156 5.06728 18.3987 4.9611C18.2819 4.85491 18.1279 4.79906 17.9702 4.80565C17.8124 4.81224 17.6636 4.88074 17.556 4.9963L13.143 9.85031L10.1063 5.07805C10.0521 4.99282 9.97735 4.92263 9.88886 4.87399C9.80036 4.82535 9.70102 4.79984 9.60004 4.7998H6.00004C5.89246 4.79975 5.78685 4.82863 5.69426 4.8834C5.60167 4.93817 5.5255 5.01684 5.47375 5.11115C5.42199 5.20546 5.39655 5.31195 5.40007 5.41947C5.4036 5.52699 5.43597 5.63159 5.49379 5.7223L10.1888 13.1001L5.55604 18.2001C5.50194 18.2582 5.45991 18.3264 5.43239 18.4009C5.40488 18.4754 5.39241 18.5546 5.39573 18.6339C5.39904 18.7133 5.41807 18.7911 5.4517 18.8631C5.48534 18.935 5.53291 18.9995 5.59167 19.0529C5.65043 19.1063 5.71921 19.1475 5.79401 19.1741C5.86881 19.2008 5.94815 19.2123 6.02743 19.208C6.10672 19.2037 6.18437 19.1838 6.25588 19.1493C6.32739 19.1148 6.39135 19.0665 6.44404 19.0071L10.857 14.1531L13.8938 18.9253C13.9484 19.0098 14.0234 19.0793 14.1118 19.1273C14.2003 19.1752 14.2994 19.2002 14.4 19.1998H18C18.1075 19.1998 18.213 19.1709 18.3055 19.1161C18.3979 19.0614 18.474 18.9828 18.5258 18.8886C18.5775 18.7945 18.603 18.6881 18.5996 18.5807C18.5961 18.4733 18.5639 18.3688 18.5063 18.2781ZM14.7293 17.9998L7.09279 5.9998H9.26779L16.9073 17.9998H14.7293Z" fill="white"/>
</svg>
